<svg width="50.000000" height="43.247070" viewBox="0 0 50 43.2471" fill="none" xmlns="http://www.w3.org/2000/svg" xmlns:xlink="http://www.w3.org/1999/xlink">
	<desc>
			Created with Pixso.
	</desc>
	<defs/>
	<path d="M49.99 21.68L49.99 21.67C49.99 21.65 50 21.63 50 21.61C50 21.6 49.99 21.58 49.99 21.56C49.99 21.56 49.99 21.55 49.99 21.55C49.98 21.54 49.98 21.53 49.97 21.51C49.97 21.51 49.97 21.51 49.97 21.5L37.58 0.1L37.58 0.09C37.57 0.08 37.56 0.07 37.55 0.06C37.55 0.05 37.55 0.05 37.54 0.05C37.53 0.04 37.52 0.02 37.5 0.02C37.48 0.01 37.47 0 37.45 0C37.44 0 37.44 0 37.43 0C37.42 -0.01 37.41 -0.01 37.39 0L12.59 0C12.58 -0.01 12.57 -0.01 12.55 0C12.55 0 12.54 0 12.54 0C12.52 0 12.51 0.01 12.49 0.02C12.48 0.02 12.46 0.04 12.45 0.05C12.45 0.05 12.44 0.05 12.44 0.06C12.43 0.07 12.42 0.08 12.42 0.09L12.42 0.1L0.02 21.5C0.02 21.51 0.02 21.51 0.02 21.51C0.01 21.53 0.01 21.54 0 21.55C0 21.55 0 21.56 0 21.56C0 21.58 0 21.6 0 21.61C0 21.63 0 21.65 0 21.67L0 21.68C0.01 21.69 0.01 21.71 0.02 21.72C0.02 21.72 0.02 21.72 0.02 21.72L12.41 43.13L12.41 43.14C12.42 43.15 12.42 43.16 12.43 43.17L12.44 43.18C12.46 43.2 12.47 43.21 12.49 43.21C12.5 43.22 12.52 43.23 12.53 43.23C12.55 43.24 12.57 43.24 12.59 43.24L37.38 43.24C37.4 43.24 37.42 43.24 37.44 43.23C37.45 43.23 37.47 43.22 37.49 43.21C37.5 43.21 37.51 43.2 37.53 43.18L37.54 43.17C37.55 43.16 37.55 43.15 37.56 43.14L37.56 43.13L49.97 21.72C49.97 21.72 49.97 21.72 49.97 21.72C49.98 21.71 49.98 21.69 49.99 21.68ZM37.39 42.59L25.38 21.83L49.39 21.83L37.39 42.59ZM12.6 0.65L24.61 21.4L0.59 21.4L12.6 0.65ZM25 21.18L12.99 0.43L37.01 0.43L25 21.18ZM25 22.05L37.01 42.8L12.99 42.8L25 22.05ZM25.38 21.4L26.03 20.28C26.03 20.29 26.03 20.3 26.04 20.32C26.06 20.38 26.11 20.41 26.18 20.41C26.25 20.41 26.3 20.38 26.33 20.32C26.34 20.3 26.34 20.28 26.34 20.25C26.34 20.22 26.33 20.19 26.31 20.17C26.28 20.12 26.24 20.1 26.18 20.1C26.16 20.1 26.14 20.1 26.12 20.11L27.77 17.25C27.78 17.25 27.79 17.25 27.8 17.25C27.83 17.24 27.86 17.23 27.89 17.2C27.91 17.17 27.92 17.13 27.92 17.1C27.92 17.07 27.92 17.05 27.91 17.03L30.07 13.28C30.1 13.29 30.12 13.3 30.14 13.3C30.19 13.3 30.23 13.29 30.26 13.25C30.29 13.22 30.3 13.19 30.3 13.14C30.3 13.09 30.28 13.04 30.23 13.01L32.39 9.27C32.43 9.32 32.47 9.34 32.52 9.34C32.57 9.34 32.6 9.33 32.63 9.3C32.66 9.27 32.68 9.23 32.68 9.19C32.68 9.15 32.67 9.11 32.64 9.08C32.61 9.05 32.58 9.03 32.54 9.03L34.21 6.14C34.24 6.11 34.26 6.08 34.27 6.04L34.75 5.2C34.75 5.21 34.75 5.22 34.75 5.22C34.75 5.27 34.76 5.31 34.8 5.34C34.83 5.37 34.86 5.38 34.91 5.38C34.95 5.38 34.99 5.37 35.02 5.34C35.05 5.31 35.07 5.27 35.07 5.22C35.07 5.18 35.05 5.14 35.02 5.11C34.99 5.08 34.95 5.07 34.91 5.07C34.87 5.07 34.84 5.08 34.81 5.1L36.48 2.22L36.49 2.22C36.56 2.22 36.61 2.19 36.64 2.13C36.67 2.07 36.66 2.02 36.62 1.96L37.39 0.65L38.11 1.9C38.1 1.9 38.09 1.9 38.08 1.9C38.04 1.9 38 1.92 37.97 1.95C37.94 1.97 37.92 2.01 37.92 2.05C37.92 2.09 37.92 2.12 37.95 2.16C37.97 2.19 38.01 2.21 38.05 2.22C38.09 2.22 38.13 2.22 38.16 2.2C38.19 2.18 38.22 2.15 38.23 2.11L40.41 5.87L40.4 5.87C40.33 5.9 40.3 5.95 40.3 6.02C40.3 6.08 40.33 6.13 40.4 6.16C40.42 6.17 40.44 6.17 40.46 6.17C40.49 6.17 40.52 6.16 40.55 6.15C40.55 6.15 40.56 6.14 40.56 6.13L42.72 9.87C42.67 9.92 42.67 9.98 42.69 10.04C42.72 10.1 42.77 10.13 42.84 10.13C42.85 10.14 42.86 10.14 42.87 10.13L45.06 13.91C45.06 13.94 45.06 13.97 45.07 14C45.09 14.04 45.12 14.06 45.16 14.08L46.81 16.95L46.8 16.95C46.78 16.95 46.76 16.95 46.74 16.96C46.67 16.99 46.64 17.03 46.64 17.1C46.64 17.17 46.67 17.22 46.74 17.25C46.76 17.26 46.78 17.26 46.8 17.26C46.83 17.26 46.86 17.25 46.89 17.24C46.91 17.22 46.93 17.2 46.94 17.17L49.11 20.92C49.03 20.95 49.01 21.01 49.02 21.1C49.04 21.18 49.1 21.22 49.18 21.22C49.21 21.22 49.24 21.21 49.27 21.19L49.39 21.41L25.38 21.4Z" fill="#FFFFFF" fill-opacity="1.000000" fill-rule="nonzero"/>
	<path d="M48.39 20.09C48.33 20.1 48.29 20.12 48.26 20.16C48.23 20.21 48.22 20.26 48.24 20.31C48.27 20.38 48.32 20.41 48.39 20.41C48.46 20.41 48.51 20.38 48.54 20.31C48.54 20.29 48.55 20.27 48.55 20.25C48.55 20.22 48.54 20.19 48.52 20.16C48.49 20.12 48.45 20.1 48.39 20.09Z" fill="#FFFFFF" fill-opacity="1.000000" fill-rule="nonzero"/>
	<path d="M47.6 19.31C47.55 19.31 47.52 19.32 47.48 19.35C47.46 19.38 47.44 19.42 47.44 19.46C47.44 19.51 47.45 19.54 47.48 19.58C47.52 19.61 47.55 19.62 47.6 19.62C47.64 19.62 47.68 19.61 47.71 19.58C47.74 19.55 47.76 19.51 47.76 19.47C47.76 19.42 47.74 19.38 47.71 19.35C47.68 19.32 47.64 19.31 47.6 19.31Z" fill="#FFFFFF" fill-opacity="1.000000" fill-rule="nonzero"/>
	<path d="M46.89 20.12C46.87 20.11 46.84 20.1 46.8 20.1C46.78 20.1 46.75 20.1 46.73 20.12C46.71 20.13 46.69 20.15 46.67 20.17C46.66 20.19 46.65 20.21 46.65 20.24C46.64 20.27 46.65 20.29 46.66 20.32C46.67 20.36 46.7 20.38 46.74 20.4C46.76 20.41 46.78 20.41 46.8 20.41C46.84 20.41 46.87 20.41 46.89 20.39C46.92 20.37 46.94 20.35 46.95 20.32C46.96 20.3 46.96 20.28 46.96 20.26C46.96 20.22 46.95 20.19 46.94 20.17C46.92 20.15 46.91 20.14 46.89 20.12Z" fill="#FFFFFF" fill-opacity="1.000000" fill-rule="nonzero"/>
	<path d="M46.89 18.54C46.87 18.52 46.84 18.51 46.8 18.51C46.78 18.51 46.76 18.52 46.74 18.53C46.68 18.55 46.65 18.6 46.65 18.67C46.65 18.74 46.68 18.79 46.74 18.82C46.76 18.83 46.78 18.83 46.8 18.83C46.84 18.83 46.87 18.82 46.89 18.8C46.91 18.79 46.93 18.77 46.94 18.75C46.96 18.72 46.96 18.7 46.96 18.67C46.96 18.65 46.96 18.62 46.94 18.6C46.93 18.58 46.91 18.56 46.89 18.54Z" fill="#FFFFFF" fill-opacity="1.000000" fill-rule="nonzero"/>
	<path d="M47.6 20.89C47.55 20.89 47.52 20.9 47.48 20.93C47.46 20.97 47.44 21 47.44 21.05C47.44 21.09 47.45 21.13 47.48 21.16C47.52 21.19 47.55 21.21 47.6 21.21C47.64 21.21 47.68 21.19 47.71 21.16C47.74 21.13 47.76 21.09 47.76 21.05C47.76 21 47.74 20.97 47.71 20.94C47.68 20.9 47.64 20.89 47.6 20.89Z" fill="#FFFFFF" fill-opacity="1.000000" fill-rule="nonzero"/>
	<path d="M44.42 12.98C44.38 12.98 44.34 12.99 44.31 13.02C44.28 13.05 44.27 13.09 44.27 13.13C44.27 13.18 44.28 13.21 44.31 13.25C44.34 13.28 44.38 13.29 44.42 13.29C44.47 13.29 44.51 13.28 44.54 13.25C44.57 13.21 44.58 13.18 44.58 13.13C44.58 13.09 44.57 13.05 44.54 13.02C44.51 12.99 44.47 12.98 44.42 12.98Z" fill="#FFFFFF" fill-opacity="1.000000" fill-rule="nonzero"/>
	<path d="M43.63 13.77C43.6 13.77 43.58 13.77 43.56 13.79C43.53 13.8 43.52 13.82 43.5 13.84C43.49 13.86 43.48 13.88 43.47 13.91C43.47 13.94 43.47 13.96 43.49 13.99C43.51 14.05 43.56 14.08 43.63 14.08C43.7 14.08 43.75 14.05 43.78 13.99C43.79 13.97 43.79 13.95 43.79 13.93C43.79 13.89 43.78 13.86 43.76 13.84C43.73 13.79 43.69 13.77 43.63 13.77Z" fill="#FFFFFF" fill-opacity="1.000000" fill-rule="nonzero"/>
	<path d="M43.63 12.18C43.59 12.18 43.55 12.2 43.52 12.23C43.49 12.26 43.47 12.3 43.47 12.34C43.47 12.39 43.49 12.42 43.52 12.45C43.55 12.48 43.59 12.5 43.63 12.5C43.67 12.5 43.71 12.48 43.74 12.45C43.77 12.42 43.79 12.39 43.79 12.34C43.79 12.3 43.77 12.26 43.74 12.23C43.71 12.2 43.67 12.18 43.63 12.18Z" fill="#FFFFFF" fill-opacity="1.000000" fill-rule="nonzero"/>
	<path d="M45.22 16.93C45.17 16.93 45.14 16.95 45.11 16.98C45.07 17.01 45.06 17.05 45.06 17.09C45.06 17.13 45.07 17.17 45.11 17.2C45.14 17.23 45.17 17.25 45.22 17.25C45.26 17.25 45.3 17.23 45.33 17.2C45.36 17.17 45.38 17.13 45.38 17.09C45.38 17.05 45.36 17.01 45.33 16.98C45.3 16.95 45.26 16.93 45.22 16.93Z" fill="#FFFFFF" fill-opacity="1.000000" fill-rule="nonzero"/>
	<path d="M45.22 15.35C45.17 15.35 45.14 15.37 45.11 15.4C45.07 15.43 45.06 15.46 45.06 15.51C45.06 15.55 45.07 15.59 45.11 15.62C45.14 15.65 45.17 15.67 45.22 15.67C45.26 15.67 45.3 15.65 45.33 15.62C45.36 15.59 45.38 15.55 45.38 15.51C45.38 15.46 45.36 15.43 45.33 15.4C45.3 15.37 45.26 15.35 45.22 15.35Z" fill="#FFFFFF" fill-opacity="1.000000" fill-rule="nonzero"/>
	<path d="M44.42 16.14C44.38 16.14 44.34 16.16 44.31 16.19C44.28 16.22 44.27 16.25 44.27 16.3C44.27 16.34 44.28 16.38 44.31 16.41C44.34 16.44 44.38 16.46 44.42 16.46C44.47 16.46 44.51 16.44 44.54 16.41C44.57 16.38 44.58 16.34 44.58 16.3C44.58 16.25 44.57 16.22 44.54 16.19C44.51 16.16 44.47 16.14 44.42 16.14Z" fill="#FFFFFF" fill-opacity="1.000000" fill-rule="nonzero"/>
	<path d="M46.01 16.14C45.97 16.14 45.93 16.16 45.9 16.19C45.87 16.22 45.85 16.25 45.85 16.3C45.85 16.34 45.87 16.38 45.9 16.41C45.93 16.44 45.97 16.46 46.01 16.46C46.05 16.46 46.09 16.44 46.12 16.41C46.15 16.38 46.17 16.34 46.17 16.3C46.17 16.25 46.15 16.22 46.12 16.19C46.09 16.16 46.05 16.14 46.01 16.14Z" fill="#FFFFFF" fill-opacity="1.000000" fill-rule="nonzero"/>
	<path d="M44.42 14.56C44.38 14.56 44.34 14.57 44.31 14.61C44.28 14.64 44.27 14.67 44.27 14.72C44.27 14.76 44.28 14.8 44.31 14.83C44.34 14.86 44.38 14.87 44.42 14.87C44.47 14.87 44.51 14.86 44.54 14.83C44.57 14.8 44.58 14.76 44.58 14.72C44.58 14.67 44.57 14.64 44.54 14.61C44.51 14.57 44.47 14.56 44.42 14.56Z" fill="#FFFFFF" fill-opacity="1.000000" fill-rule="nonzero"/>
	<path d="M43.63 16.93C43.59 16.93 43.55 16.95 43.52 16.98C43.49 17.01 43.47 17.05 43.47 17.09C43.47 17.13 43.49 17.17 43.52 17.2C43.55 17.23 43.59 17.25 43.63 17.25C43.67 17.25 43.71 17.23 43.74 17.2C43.77 17.17 43.79 17.13 43.79 17.09C43.79 17.05 43.77 17.01 43.74 16.98C43.71 16.95 43.67 16.93 43.63 16.93Z" fill="#FFFFFF" fill-opacity="1.000000" fill-rule="nonzero"/>
	<path d="M43.63 15.35C43.59 15.35 43.55 15.37 43.52 15.4C43.49 15.43 43.47 15.46 43.47 15.51C43.47 15.55 43.49 15.59 43.52 15.62C43.55 15.65 43.59 15.67 43.63 15.67C43.67 15.67 43.71 15.65 43.74 15.62C43.77 15.59 43.79 15.55 43.79 15.51C43.79 15.46 43.77 15.43 43.74 15.4C43.71 15.37 43.67 15.35 43.63 15.35Z" fill="#FFFFFF" fill-opacity="1.000000" fill-rule="nonzero"/>
	<path d="M45.22 20.09C45.16 20.1 45.12 20.12 45.08 20.16C45.05 20.21 45.05 20.26 45.07 20.31C45.1 20.38 45.15 20.41 45.22 20.41C45.29 20.41 45.34 20.38 45.36 20.31C45.37 20.29 45.38 20.27 45.38 20.25C45.38 20.22 45.37 20.19 45.35 20.16C45.32 20.12 45.27 20.1 45.22 20.09Z" fill="#FFFFFF" fill-opacity="1.000000" fill-rule="nonzero"/>
	<path d="M45.22 18.51C45.17 18.51 45.14 18.53 45.1 18.56C45.07 18.59 45.06 18.63 45.06 18.67C45.06 18.72 45.07 18.76 45.1 18.79C45.13 18.82 45.17 18.83 45.22 18.83C45.26 18.83 45.3 18.82 45.33 18.79C45.36 18.75 45.38 18.72 45.38 18.67C45.38 18.63 45.36 18.59 45.33 18.56C45.3 18.53 45.26 18.51 45.22 18.51Z" fill="#FFFFFF" fill-opacity="1.000000" fill-rule="nonzero"/>
	<path d="M44.42 19.31C44.38 19.31 44.34 19.32 44.31 19.35C44.28 19.38 44.27 19.42 44.27 19.46C44.27 19.51 44.28 19.54 44.31 19.58C44.34 19.61 44.38 19.62 44.42 19.62C44.47 19.62 44.5 19.61 44.54 19.58C44.57 19.55 44.58 19.51 44.58 19.47C44.58 19.42 44.57 19.38 44.54 19.35C44.51 19.32 44.47 19.31 44.42 19.31Z" fill="#FFFFFF" fill-opacity="1.000000" fill-rule="nonzero"/>
	<path d="M46.01 19.31C45.97 19.31 45.93 19.32 45.9 19.35C45.87 19.38 45.85 19.42 45.85 19.46C45.85 19.51 45.87 19.54 45.9 19.58C45.93 19.61 45.97 19.62 46.01 19.62C46.05 19.62 46.09 19.61 46.12 19.58C46.15 19.55 46.17 19.51 46.17 19.47C46.17 19.42 46.15 19.38 46.12 19.35C46.09 19.32 46.05 19.31 46.01 19.31Z" fill="#FFFFFF" fill-opacity="1.000000" fill-rule="nonzero"/>
	<path d="M44.42 17.72C44.38 17.72 44.34 17.74 44.31 17.77C44.28 17.8 44.27 17.84 44.27 17.88C44.27 17.92 44.28 17.96 44.31 17.99C44.34 18.02 44.38 18.04 44.42 18.04C44.47 18.04 44.51 18.02 44.54 17.99C44.57 17.96 44.58 17.92 44.58 17.88C44.58 17.84 44.57 17.8 44.54 17.77C44.51 17.74 44.47 17.72 44.42 17.72Z" fill="#FFFFFF" fill-opacity="1.000000" fill-rule="nonzero"/>
	<path d="M46.01 17.72C45.97 17.72 45.93 17.74 45.9 17.77C45.87 17.8 45.85 17.84 45.85 17.88C45.85 17.92 45.87 17.96 45.9 17.99C45.93 18.02 45.97 18.04 46.01 18.04C46.05 18.04 46.09 18.02 46.12 17.99C46.15 17.96 46.17 17.92 46.17 17.88C46.17 17.84 46.15 17.8 46.12 17.77C46.09 17.74 46.05 17.72 46.01 17.72Z" fill="#FFFFFF" fill-opacity="1.000000" fill-rule="nonzero"/>
	<path d="M43.63 20.09C43.57 20.1 43.53 20.12 43.5 20.16C43.47 20.21 43.46 20.26 43.48 20.31C43.51 20.38 43.56 20.41 43.63 20.41C43.7 20.41 43.75 20.38 43.78 20.31C43.79 20.29 43.79 20.27 43.79 20.25C43.79 20.22 43.78 20.19 43.76 20.16C43.73 20.12 43.69 20.1 43.63 20.09Z" fill="#FFFFFF" fill-opacity="1.000000" fill-rule="nonzero"/>
	<path d="M43.63 18.51C43.59 18.51 43.55 18.53 43.52 18.56C43.49 18.59 43.47 18.63 43.47 18.67C43.47 18.72 43.49 18.76 43.52 18.79C43.55 18.82 43.59 18.83 43.63 18.83C43.68 18.83 43.71 18.82 43.74 18.79C43.78 18.75 43.79 18.72 43.79 18.67C43.79 18.63 43.77 18.59 43.74 18.56C43.71 18.53 43.68 18.51 43.63 18.51Z" fill="#FFFFFF" fill-opacity="1.000000" fill-rule="nonzero"/>
	<path d="M44.42 20.89C44.38 20.89 44.34 20.9 44.31 20.93C44.28 20.97 44.27 21 44.27 21.05C44.27 21.09 44.28 21.13 44.31 21.16C44.34 21.19 44.38 21.21 44.42 21.21C44.47 21.21 44.5 21.19 44.54 21.16C44.57 21.13 44.58 21.09 44.58 21.05C44.58 21 44.57 20.97 44.54 20.94C44.51 20.9 44.47 20.89 44.42 20.89Z" fill="#FFFFFF" fill-opacity="1.000000" fill-rule="nonzero"/>
	<path d="M46.01 20.89C45.97 20.89 45.93 20.9 45.9 20.93C45.87 20.97 45.85 21 45.85 21.05C45.85 21.09 45.87 21.13 45.9 21.16C45.93 21.19 45.97 21.21 46.01 21.21C46.05 21.21 46.09 21.19 46.12 21.16C46.15 21.13 46.17 21.09 46.17 21.05C46.17 21 46.15 20.97 46.12 20.94C46.09 20.9 46.05 20.89 46.01 20.89Z" fill="#FFFFFF" fill-opacity="1.000000" fill-rule="nonzero"/>
	<path d="M40.55 7.47C40.52 7.45 40.49 7.44 40.46 7.44C40.44 7.44 40.41 7.44 40.4 7.45C40.37 7.46 40.34 7.48 40.33 7.51C40.31 7.54 40.3 7.56 40.3 7.6C40.3 7.62 40.3 7.64 40.31 7.66C40.33 7.7 40.36 7.73 40.4 7.74C40.41 7.75 40.44 7.75 40.46 7.75C40.49 7.75 40.52 7.75 40.55 7.73C40.57 7.71 40.59 7.69 40.6 7.66C40.61 7.64 40.62 7.62 40.62 7.6C40.62 7.56 40.61 7.54 40.59 7.51C40.58 7.49 40.56 7.48 40.55 7.47Z" fill="#FFFFFF" fill-opacity="1.000000" fill-rule="nonzero"/>
	<path d="M42.04 10.6C42 10.6 41.96 10.62 41.93 10.65C41.9 10.68 41.89 10.72 41.89 10.76C41.89 10.8 41.9 10.84 41.93 10.87C41.96 10.9 42 10.92 42.04 10.92C42.09 10.92 42.13 10.9 42.16 10.87C42.19 10.84 42.2 10.8 42.2 10.76C42.2 10.72 42.19 10.68 42.16 10.65C42.13 10.62 42.09 10.6 42.04 10.6Z" fill="#FFFFFF" fill-opacity="1.000000" fill-rule="nonzero"/>
	<path d="M42.04 9.02C42 9.02 41.96 9.04 41.93 9.07C41.9 9.1 41.89 9.13 41.89 9.18C41.89 9.22 41.9 9.26 41.93 9.29C41.96 9.32 42 9.34 42.04 9.34C42.09 9.34 42.13 9.32 42.16 9.29C42.19 9.26 42.2 9.22 42.2 9.18C42.2 9.13 42.19 9.1 42.16 9.07C42.13 9.04 42.09 9.02 42.04 9.02Z" fill="#FFFFFF" fill-opacity="1.000000" fill-rule="nonzero"/>
	<path d="M41.25 9.81C41.21 9.81 41.17 9.83 41.14 9.86C41.11 9.89 41.09 9.93 41.1 9.97C41.1 10.01 41.11 10.05 41.14 10.08C41.17 10.11 41.21 10.13 41.25 10.13C41.3 10.13 41.33 10.11 41.37 10.08C41.4 10.05 41.41 10.01 41.41 9.97C41.41 9.93 41.4 9.89 41.36 9.86C41.33 9.83 41.3 9.81 41.25 9.81Z" fill="#FFFFFF" fill-opacity="1.000000" fill-rule="nonzero"/>
	<path d="M41.25 8.23C41.21 8.23 41.17 8.24 41.14 8.28C41.11 8.31 41.09 8.34 41.1 8.39C41.1 8.43 41.11 8.47 41.14 8.5C41.17 8.53 41.21 8.54 41.25 8.54C41.3 8.54 41.33 8.53 41.36 8.5C41.4 8.47 41.41 8.43 41.41 8.39C41.41 8.34 41.4 8.3 41.36 8.27C41.33 8.24 41.3 8.23 41.25 8.23Z" fill="#FFFFFF" fill-opacity="1.000000" fill-rule="nonzero"/>
	<path d="M40.55 10.63C40.52 10.61 40.49 10.6 40.46 10.6C40.44 10.6 40.41 10.61 40.4 10.62C40.33 10.64 40.3 10.69 40.3 10.76C40.3 10.83 40.33 10.88 40.4 10.91C40.41 10.91 40.44 10.92 40.46 10.92C40.49 10.92 40.52 10.91 40.55 10.89C40.57 10.88 40.58 10.86 40.6 10.84C40.61 10.81 40.62 10.79 40.62 10.76C40.62 10.74 40.61 10.71 40.6 10.69C40.58 10.66 40.57 10.64 40.55 10.63Z" fill="#FFFFFF" fill-opacity="1.000000" fill-rule="nonzero"/>
	<path d="M40.55 9.05C40.52 9.03 40.49 9.02 40.46 9.02C40.44 9.02 40.41 9.02 40.4 9.03C40.33 9.06 40.3 9.11 40.3 9.18C40.3 9.25 40.33 9.3 40.4 9.32C40.41 9.33 40.44 9.34 40.46 9.34C40.49 9.34 40.52 9.33 40.55 9.31C40.59 9.28 40.62 9.24 40.62 9.18C40.62 9.12 40.59 9.08 40.55 9.05Z" fill="#FFFFFF" fill-opacity="1.000000" fill-rule="nonzero"/>
	<path d="M42.04 13.77C42.02 13.77 41.99 13.77 41.97 13.79C41.95 13.8 41.93 13.82 41.91 13.84C41.9 13.86 41.89 13.88 41.89 13.91C41.88 13.94 41.89 13.96 41.9 13.99C41.93 14.05 41.97 14.08 42.04 14.08C42.11 14.08 42.16 14.05 42.19 13.99C42.2 13.97 42.2 13.95 42.2 13.93C42.2 13.89 42.19 13.86 42.18 13.84C42.14 13.79 42.1 13.77 42.04 13.77Z" fill="#FFFFFF" fill-opacity="1.000000" fill-rule="nonzero"/>
	<path d="M42.04 12.18C42 12.18 41.96 12.2 41.93 12.23C41.9 12.26 41.89 12.3 41.89 12.34C41.89 12.39 41.9 12.42 41.93 12.45C41.96 12.48 42 12.5 42.04 12.5C42.09 12.5 42.13 12.48 42.16 12.45C42.19 12.42 42.2 12.39 42.2 12.34C42.2 12.3 42.19 12.26 42.16 12.23C42.13 12.2 42.09 12.18 42.04 12.18Z" fill="#FFFFFF" fill-opacity="1.000000" fill-rule="nonzero"/>
	<path d="M41.25 12.98C41.21 12.98 41.17 12.99 41.14 13.02C41.11 13.05 41.09 13.09 41.09 13.13C41.09 13.18 41.11 13.21 41.14 13.25C41.17 13.28 41.21 13.29 41.25 13.29C41.3 13.29 41.33 13.28 41.36 13.25C41.39 13.21 41.41 13.18 41.41 13.13C41.41 13.09 41.39 13.05 41.36 13.02C41.33 12.99 41.29 12.98 41.25 12.98Z" fill="#FFFFFF" fill-opacity="1.000000" fill-rule="nonzero"/>
	<path d="M42.84 12.98C42.79 12.98 42.76 12.99 42.73 13.02C42.69 13.05 42.68 13.09 42.68 13.13C42.68 13.18 42.69 13.21 42.73 13.25C42.76 13.28 42.79 13.29 42.84 13.29C42.88 13.29 42.92 13.28 42.95 13.25C42.98 13.21 43 13.18 43 13.13C43 13.09 42.98 13.05 42.95 13.02C42.92 12.99 42.88 12.98 42.84 12.98Z" fill="#FFFFFF" fill-opacity="1.000000" fill-rule="nonzero"/>
	<path d="M41.25 11.39C41.21 11.39 41.17 11.41 41.14 11.44C41.11 11.47 41.09 11.51 41.09 11.55C41.09 11.6 41.11 11.63 41.14 11.66C41.17 11.7 41.21 11.71 41.25 11.71C41.3 11.71 41.33 11.7 41.36 11.66C41.39 11.63 41.41 11.6 41.41 11.55C41.41 11.51 41.39 11.47 41.36 11.44C41.33 11.41 41.29 11.39 41.25 11.39Z" fill="#FFFFFF" fill-opacity="1.000000" fill-rule="nonzero"/>
	<path d="M42.84 11.39C42.79 11.39 42.76 11.41 42.73 11.44C42.69 11.47 42.68 11.51 42.68 11.55C42.68 11.6 42.69 11.63 42.73 11.66C42.76 11.7 42.79 11.71 42.84 11.71C42.88 11.71 42.92 11.7 42.95 11.66C42.98 11.63 43 11.6 43 11.55C43 11.51 42.98 11.47 42.95 11.44C42.92 11.41 42.88 11.39 42.84 11.39Z" fill="#FFFFFF" fill-opacity="1.000000" fill-rule="nonzero"/>
	<path d="M40.55 13.79C40.52 13.78 40.49 13.77 40.46 13.77C40.44 13.77 40.41 13.77 40.4 13.78C40.37 13.79 40.34 13.81 40.33 13.84C40.31 13.86 40.3 13.89 40.3 13.93C40.3 13.95 40.3 13.97 40.31 13.99C40.33 14.03 40.36 14.05 40.4 14.07C40.41 14.08 40.44 14.08 40.46 14.08C40.49 14.08 40.52 14.08 40.55 14.06C40.57 14.04 40.59 14.02 40.6 13.99C40.61 13.97 40.62 13.95 40.62 13.93C40.62 13.89 40.61 13.86 40.59 13.84C40.58 13.82 40.56 13.81 40.55 13.79Z" fill="#FFFFFF" fill-opacity="1.000000" fill-rule="nonzero"/>
	<path d="M40.55 12.21C40.52 12.19 40.49 12.18 40.46 12.18C40.44 12.18 40.41 12.19 40.4 12.2C40.33 12.22 40.3 12.27 40.3 12.34C40.3 12.41 40.33 12.46 40.4 12.49C40.41 12.5 40.44 12.5 40.46 12.5C40.49 12.5 40.52 12.49 40.55 12.47C40.57 12.46 40.58 12.44 40.6 12.42C40.61 12.39 40.62 12.37 40.62 12.34C40.62 12.32 40.61 12.29 40.6 12.27C40.58 12.25 40.57 12.23 40.55 12.21Z" fill="#FFFFFF" fill-opacity="1.000000" fill-rule="nonzero"/>
	<path d="M42.04 16.93C42 16.93 41.96 16.95 41.93 16.98C41.9 17.01 41.89 17.05 41.89 17.09C41.89 17.13 41.9 17.17 41.93 17.2C41.96 17.23 42 17.25 42.04 17.25C42.09 17.25 42.13 17.23 42.16 17.2C42.19 17.17 42.2 17.13 42.2 17.09C42.2 17.05 42.19 17.01 42.16 16.98C42.13 16.95 42.09 16.93 42.04 16.93Z" fill="#FFFFFF" fill-opacity="1.000000" fill-rule="nonzero"/>
	<path d="M42.04 15.35C42 15.35 41.96 15.37 41.93 15.4C41.9 15.43 41.89 15.46 41.89 15.51C41.89 15.55 41.9 15.59 41.93 15.62C41.96 15.65 42 15.67 42.04 15.67C42.09 15.67 42.13 15.65 42.16 15.62C42.19 15.59 42.2 15.55 42.2 15.51C42.2 15.46 42.19 15.43 42.16 15.4C42.13 15.37 42.09 15.35 42.04 15.35Z" fill="#FFFFFF" fill-opacity="1.000000" fill-rule="nonzero"/>
	<path d="M41.25 16.14C41.21 16.14 41.17 16.16 41.14 16.19C41.11 16.22 41.09 16.25 41.09 16.3C41.09 16.34 41.11 16.38 41.14 16.41C41.17 16.44 41.21 16.46 41.25 16.46C41.3 16.46 41.33 16.44 41.36 16.41C41.39 16.38 41.41 16.34 41.41 16.3C41.41 16.25 41.39 16.22 41.36 16.19C41.33 16.16 41.29 16.14 41.25 16.14Z" fill="#FFFFFF" fill-opacity="1.000000" fill-rule="nonzero"/>
	<path d="M42.84 16.14C42.79 16.14 42.76 16.16 42.73 16.19C42.69 16.22 42.68 16.25 42.68 16.3C42.68 16.34 42.69 16.38 42.73 16.41C42.76 16.44 42.79 16.46 42.84 16.46C42.88 16.46 42.92 16.44 42.95 16.41C42.98 16.38 43 16.34 43 16.3C43 16.25 42.98 16.22 42.95 16.19C42.92 16.16 42.88 16.14 42.84 16.14Z" fill="#FFFFFF" fill-opacity="1.000000" fill-rule="nonzero"/>
	<path d="M41.25 14.56C41.21 14.56 41.17 14.57 41.14 14.61C41.11 14.64 41.09 14.67 41.09 14.72C41.09 14.76 41.11 14.8 41.14 14.83C41.17 14.86 41.21 14.87 41.25 14.87C41.3 14.87 41.33 14.86 41.36 14.83C41.39 14.8 41.41 14.76 41.41 14.72C41.41 14.67 41.39 14.64 41.36 14.61C41.33 14.57 41.29 14.56 41.25 14.56Z" fill="#FFFFFF" fill-opacity="1.000000" fill-rule="nonzero"/>
	<path d="M42.84 14.56C42.79 14.56 42.76 14.57 42.73 14.61C42.69 14.64 42.68 14.67 42.68 14.72C42.68 14.76 42.69 14.8 42.73 14.83C42.76 14.86 42.79 14.87 42.84 14.87C42.88 14.87 42.92 14.86 42.95 14.83C42.98 14.8 43 14.76 43 14.72C43 14.67 42.98 14.64 42.95 14.61C42.92 14.57 42.88 14.56 42.84 14.56Z" fill="#FFFFFF" fill-opacity="1.000000" fill-rule="nonzero"/>
	<path d="M40.55 16.96C40.52 16.94 40.49 16.93 40.46 16.93C40.44 16.93 40.41 16.94 40.4 16.95C40.33 16.97 40.3 17.02 40.3 17.09C40.3 17.16 40.33 17.21 40.4 17.24C40.41 17.25 40.44 17.25 40.46 17.25C40.49 17.25 40.52 17.24 40.55 17.22C40.57 17.21 40.58 17.19 40.6 17.17C40.61 17.14 40.62 17.12 40.62 17.09C40.62 17.06 40.61 17.04 40.6 17.02C40.58 16.99 40.57 16.97 40.55 16.96Z" fill="#FFFFFF" fill-opacity="1.000000" fill-rule="nonzero"/>
	<path d="M40.55 15.38C40.52 15.36 40.49 15.35 40.46 15.35C40.44 15.35 40.41 15.35 40.4 15.36C40.33 15.39 40.3 15.44 40.3 15.51C40.3 15.58 40.33 15.63 40.4 15.65C40.41 15.66 40.44 15.67 40.46 15.67C40.49 15.67 40.52 15.66 40.55 15.64C40.57 15.63 40.58 15.61 40.6 15.58C40.61 15.56 40.62 15.54 40.62 15.51C40.62 15.48 40.61 15.46 40.6 15.43C40.58 15.41 40.57 15.39 40.55 15.38Z" fill="#FFFFFF" fill-opacity="1.000000" fill-rule="nonzero"/>
	<path d="M42.04 20.09C41.99 20.1 41.94 20.12 41.91 20.16C41.88 20.21 41.88 20.26 41.9 20.31C41.93 20.38 41.97 20.41 42.04 20.41C42.11 20.41 42.16 20.38 42.19 20.31C42.2 20.29 42.2 20.27 42.2 20.25C42.2 20.22 42.19 20.19 42.18 20.16C42.15 20.12 42.1 20.1 42.04 20.09Z" fill="#FFFFFF" fill-opacity="1.000000" fill-rule="nonzero"/>
	<path d="M42.04 18.51C42 18.51 41.96 18.53 41.93 18.56C41.9 18.59 41.88 18.63 41.88 18.67C41.88 18.72 41.9 18.76 41.93 18.79C41.96 18.82 42 18.83 42.04 18.83C42.09 18.83 42.13 18.82 42.16 18.79C42.19 18.75 42.2 18.72 42.2 18.67C42.2 18.63 42.19 18.59 42.16 18.56C42.13 18.53 42.09 18.51 42.04 18.51Z" fill="#FFFFFF" fill-opacity="1.000000" fill-rule="nonzero"/>
	<path d="M41.25 19.31C41.21 19.31 41.17 19.32 41.14 19.35C41.11 19.38 41.09 19.42 41.09 19.46C41.09 19.51 41.11 19.54 41.14 19.58C41.17 19.61 41.21 19.62 41.25 19.62C41.29 19.62 41.33 19.61 41.36 19.58C41.39 19.55 41.41 19.51 41.41 19.47C41.41 19.42 41.39 19.38 41.36 19.35C41.33 19.32 41.3 19.31 41.25 19.31Z" fill="#FFFFFF" fill-opacity="1.000000" fill-rule="nonzero"/>
	<path d="M42.84 19.31C42.79 19.31 42.76 19.32 42.73 19.35C42.69 19.38 42.68 19.42 42.68 19.46C42.68 19.51 42.69 19.54 42.73 19.58C42.76 19.61 42.79 19.62 42.84 19.62C42.88 19.62 42.92 19.61 42.95 19.58C42.98 19.55 43 19.51 43 19.47C43 19.42 42.98 19.38 42.95 19.35C42.92 19.32 42.88 19.31 42.84 19.31Z" fill="#FFFFFF" fill-opacity="1.000000" fill-rule="nonzero"/>
	<path d="M41.25 17.72C41.21 17.72 41.17 17.74 41.14 17.77C41.11 17.8 41.09 17.84 41.09 17.88C41.09 17.92 41.11 17.96 41.14 17.99C41.17 18.02 41.21 18.04 41.25 18.04C41.3 18.04 41.33 18.02 41.36 17.99C41.39 17.96 41.41 17.92 41.41 17.88C41.41 17.84 41.39 17.8 41.36 17.77C41.33 17.74 41.29 17.72 41.25 17.72Z" fill="#FFFFFF" fill-opacity="1.000000" fill-rule="nonzero"/>
	<path d="M42.84 17.72C42.79 17.72 42.76 17.74 42.73 17.77C42.69 17.8 42.68 17.84 42.68 17.88C42.68 17.92 42.69 17.96 42.73 17.99C42.76 18.02 42.79 18.04 42.84 18.04C42.88 18.04 42.92 18.02 42.95 17.99C42.98 17.96 43 17.92 43 17.88C43 17.84 42.98 17.8 42.95 17.77C42.92 17.74 42.88 17.72 42.84 17.72Z" fill="#FFFFFF" fill-opacity="1.000000" fill-rule="nonzero"/>
	<path d="M40.55 20.12C40.52 20.11 40.49 20.1 40.46 20.1C40.43 20.1 40.41 20.1 40.38 20.12C40.36 20.13 40.34 20.15 40.33 20.17C40.31 20.19 40.3 20.21 40.3 20.24C40.3 20.27 40.3 20.29 40.31 20.32C40.33 20.36 40.36 20.38 40.4 20.4C40.42 20.41 40.44 20.41 40.46 20.41C40.49 20.41 40.52 20.41 40.55 20.39C40.57 20.37 40.59 20.35 40.6 20.32C40.61 20.3 40.62 20.28 40.62 20.26C40.62 20.22 40.61 20.19 40.59 20.17C40.58 20.15 40.56 20.14 40.55 20.12Z" fill="#FFFFFF" fill-opacity="1.000000" fill-rule="nonzero"/>
	<path d="M40.55 18.54C40.52 18.52 40.49 18.51 40.46 18.51C40.44 18.51 40.41 18.52 40.4 18.53C40.33 18.55 40.3 18.6 40.3 18.67C40.3 18.74 40.33 18.79 40.4 18.82C40.41 18.83 40.44 18.83 40.46 18.83C40.49 18.83 40.52 18.82 40.55 18.8C40.57 18.79 40.58 18.77 40.6 18.75C40.61 18.72 40.62 18.7 40.62 18.67C40.62 18.65 40.61 18.62 40.6 18.6C40.58 18.58 40.57 18.56 40.55 18.54Z" fill="#FFFFFF" fill-opacity="1.000000" fill-rule="nonzero"/>
	<path d="M41.25 20.89C41.21 20.89 41.17 20.9 41.14 20.93C41.11 20.97 41.09 21 41.09 21.05C41.09 21.09 41.11 21.13 41.14 21.16C41.17 21.19 41.21 21.21 41.25 21.21C41.29 21.21 41.33 21.19 41.36 21.16C41.39 21.13 41.41 21.09 41.41 21.05C41.41 21 41.39 20.97 41.36 20.94C41.33 20.9 41.3 20.89 41.25 20.89Z" fill="#FFFFFF" fill-opacity="1.000000" fill-rule="nonzero"/>
	<path d="M42.84 20.89C42.79 20.89 42.76 20.9 42.73 20.93C42.69 20.97 42.68 21 42.68 21.05C42.68 21.09 42.69 21.13 42.73 21.16C42.76 21.19 42.79 21.21 42.84 21.21C42.88 21.21 42.92 21.19 42.95 21.16C42.98 21.13 43 21.09 43 21.05C43 21 42.98 20.97 42.95 20.94C42.92 20.9 42.88 20.89 42.84 20.89Z" fill="#FFFFFF" fill-opacity="1.000000" fill-rule="nonzero"/>
	<path d="M37.37 1.14C37.35 1.12 37.32 1.11 37.29 1.11C37.23 1.11 37.18 1.13 37.15 1.18C37.12 1.23 37.12 1.28 37.14 1.33C37.17 1.39 37.21 1.43 37.29 1.43C37.32 1.43 37.35 1.42 37.37 1.4C37.4 1.38 37.42 1.36 37.43 1.33C37.44 1.31 37.44 1.29 37.44 1.27C37.44 1.23 37.43 1.2 37.42 1.18C37.4 1.16 37.39 1.15 37.37 1.14Z" fill="#FFFFFF" fill-opacity="1.000000" fill-rule="nonzero"/>
	<path d="M38.87 4.27C38.83 4.27 38.79 4.29 38.76 4.32C38.73 4.35 38.71 4.39 38.71 4.43C38.71 4.47 38.73 4.51 38.76 4.54C38.79 4.57 38.83 4.59 38.87 4.59C38.92 4.59 38.95 4.57 38.98 4.54C39.01 4.51 39.03 4.47 39.03 4.43C39.03 4.39 39.01 4.35 38.98 4.32C38.95 4.29 38.92 4.27 38.87 4.27Z" fill="#FFFFFF" fill-opacity="1.000000" fill-rule="nonzero"/>
	<path d="M38.08 3.48C38.03 3.48 38 3.5 37.97 3.53C37.94 3.56 37.92 3.6 37.92 3.64C37.92 3.68 37.94 3.72 37.97 3.75C38 3.78 38.03 3.8 38.08 3.8C38.12 3.8 38.16 3.78 38.19 3.75C38.22 3.72 38.24 3.68 38.24 3.64C38.24 3.6 38.22 3.56 38.19 3.53C38.16 3.5 38.12 3.48 38.08 3.48Z" fill="#FFFFFF" fill-opacity="1.000000" fill-rule="nonzero"/>
	<path d="M37.37 4.3C37.35 4.28 37.32 4.27 37.29 4.27C37.24 4.27 37.2 4.29 37.17 4.32C37.14 4.35 37.13 4.39 37.13 4.43C37.13 4.48 37.14 4.51 37.17 4.54C37.2 4.57 37.24 4.59 37.29 4.59C37.32 4.59 37.35 4.58 37.37 4.56C37.39 4.55 37.41 4.53 37.43 4.5C37.44 4.48 37.44 4.46 37.44 4.43C37.44 4.41 37.44 4.38 37.43 4.36C37.41 4.33 37.39 4.32 37.37 4.3Z" fill="#FFFFFF" fill-opacity="1.000000" fill-rule="nonzero"/>
	<path d="M37.37 2.72C37.35 2.7 37.32 2.69 37.29 2.69C37.24 2.69 37.2 2.71 37.17 2.74C37.14 2.77 37.13 2.81 37.13 2.85C37.13 2.89 37.14 2.93 37.18 2.96C37.21 2.99 37.24 3.01 37.29 3.01C37.33 3.01 37.37 2.99 37.4 2.96C37.43 2.93 37.45 2.89 37.45 2.85C37.45 2.79 37.42 2.75 37.37 2.72Z" fill="#FFFFFF" fill-opacity="1.000000" fill-rule="nonzero"/>
	<path d="M38.87 7.44C38.82 7.44 38.77 7.46 38.74 7.51C38.72 7.54 38.71 7.56 38.71 7.6C38.71 7.62 38.72 7.64 38.73 7.66C38.75 7.72 38.8 7.75 38.87 7.75C38.94 7.75 38.99 7.72 39.02 7.66C39.03 7.64 39.03 7.62 39.03 7.6C39.03 7.56 39.02 7.54 39 7.51C38.97 7.46 38.93 7.44 38.87 7.44Z" fill="#FFFFFF" fill-opacity="1.000000" fill-rule="nonzero"/>
	<path d="M38.87 5.86C38.83 5.86 38.79 5.87 38.76 5.9C38.73 5.93 38.71 5.97 38.71 6.01C38.71 6.06 38.73 6.09 38.76 6.13C38.79 6.16 38.83 6.17 38.87 6.17C38.92 6.17 38.95 6.16 38.98 6.13C39.01 6.09 39.03 6.06 39.03 6.01C39.03 5.97 39.01 5.93 38.98 5.9C38.95 5.87 38.92 5.86 38.87 5.86Z" fill="#FFFFFF" fill-opacity="1.000000" fill-rule="nonzero"/>
	<path d="M38.08 6.65C38.03 6.65 38 6.66 37.97 6.69C37.94 6.72 37.92 6.76 37.92 6.8C37.92 6.85 37.94 6.89 37.97 6.92C38 6.95 38.03 6.96 38.08 6.96C38.12 6.96 38.16 6.95 38.19 6.92C38.22 6.89 38.24 6.85 38.24 6.8C38.24 6.76 38.22 6.72 38.19 6.69C38.16 6.66 38.12 6.65 38.08 6.65Z" fill="#FFFFFF" fill-opacity="1.000000" fill-rule="nonzero"/>
	<path d="M39.66 6.65C39.62 6.65 39.58 6.66 39.55 6.69C39.52 6.72 39.51 6.76 39.51 6.8C39.51 6.85 39.52 6.89 39.55 6.92C39.58 6.95 39.62 6.96 39.66 6.96C39.71 6.96 39.75 6.95 39.78 6.92C39.81 6.89 39.82 6.85 39.82 6.8C39.82 6.76 39.81 6.72 39.78 6.69C39.75 6.66 39.71 6.65 39.66 6.65Z" fill="#FFFFFF" fill-opacity="1.000000" fill-rule="nonzero"/>
	<path d="M38.08 5.06C38.03 5.06 38 5.08 37.97 5.11C37.94 5.14 37.92 5.18 37.92 5.22C37.92 5.27 37.94 5.3 37.97 5.33C38 5.37 38.03 5.38 38.08 5.38C38.12 5.38 38.16 5.37 38.19 5.33C38.22 5.3 38.24 5.27 38.24 5.22C38.24 5.18 38.22 5.14 38.19 5.11C38.16 5.08 38.12 5.06 38.08 5.06Z" fill="#FFFFFF" fill-opacity="1.000000" fill-rule="nonzero"/>
	<path d="M39.66 5.06C39.62 5.06 39.58 5.08 39.55 5.11C39.52 5.14 39.51 5.18 39.51 5.22C39.51 5.27 39.52 5.3 39.55 5.33C39.58 5.37 39.62 5.38 39.66 5.38C39.71 5.38 39.75 5.37 39.78 5.33C39.81 5.3 39.82 5.27 39.82 5.22C39.82 5.18 39.81 5.14 39.78 5.11C39.75 5.08 39.71 5.06 39.66 5.06Z" fill="#FFFFFF" fill-opacity="1.000000" fill-rule="nonzero"/>
	<path d="M37.37 7.47C37.35 7.45 37.32 7.44 37.29 7.44C37.23 7.44 37.18 7.46 37.15 7.51C37.14 7.54 37.13 7.56 37.13 7.6C37.13 7.62 37.13 7.64 37.14 7.66C37.17 7.72 37.22 7.75 37.29 7.75C37.32 7.75 37.35 7.75 37.37 7.73C37.4 7.71 37.42 7.69 37.43 7.66C37.44 7.64 37.44 7.62 37.44 7.6C37.44 7.56 37.44 7.54 37.42 7.51C37.41 7.49 37.39 7.48 37.37 7.47Z" fill="#FFFFFF" fill-opacity="1.000000" fill-rule="nonzero"/>
	<path d="M37.37 5.88C37.35 5.86 37.32 5.86 37.29 5.86C37.24 5.86 37.2 5.87 37.17 5.9C37.14 5.93 37.13 5.97 37.13 6.02C37.13 6.06 37.14 6.1 37.18 6.13C37.21 6.16 37.24 6.17 37.29 6.17C37.33 6.17 37.37 6.16 37.4 6.12C37.43 6.09 37.45 6.06 37.45 6.01C37.45 5.96 37.42 5.91 37.37 5.88Z" fill="#FFFFFF" fill-opacity="1.000000" fill-rule="nonzero"/>
	<path d="M38.87 10.6C38.83 10.6 38.79 10.62 38.76 10.65C38.73 10.68 38.71 10.72 38.71 10.76C38.71 10.8 38.73 10.84 38.76 10.87C38.79 10.9 38.83 10.92 38.87 10.92C38.92 10.92 38.95 10.9 38.98 10.87C39.01 10.84 39.03 10.8 39.03 10.76C39.03 10.72 39.01 10.68 38.98 10.65C38.95 10.62 38.92 10.6 38.87 10.6Z" fill="#FFFFFF" fill-opacity="1.000000" fill-rule="nonzero"/>
	<path d="M38.87 9.02C38.83 9.02 38.79 9.04 38.76 9.07C38.73 9.1 38.71 9.13 38.71 9.18C38.71 9.22 38.73 9.26 38.76 9.29C38.79 9.32 38.83 9.34 38.87 9.34C38.92 9.34 38.95 9.32 38.98 9.29C39.01 9.26 39.03 9.22 39.03 9.18C39.03 9.13 39.01 9.1 38.98 9.07C38.95 9.04 38.92 9.02 38.87 9.02Z" fill="#FFFFFF" fill-opacity="1.000000" fill-rule="nonzero"/>
	<path d="M38.08 9.81C38.03 9.81 38 9.83 37.97 9.86C37.94 9.89 37.92 9.93 37.92 9.97C37.92 10.01 37.94 10.05 37.97 10.08C38 10.11 38.03 10.13 38.08 10.13C38.12 10.13 38.16 10.11 38.19 10.08C38.22 10.05 38.24 10.01 38.24 9.97C38.24 9.93 38.22 9.89 38.19 9.86C38.16 9.83 38.12 9.81 38.08 9.81Z" fill="#FFFFFF" fill-opacity="1.000000" fill-rule="nonzero"/>
	<path d="M39.66 9.81C39.62 9.81 39.58 9.83 39.55 9.86C39.52 9.89 39.51 9.93 39.51 9.97C39.51 10.01 39.52 10.05 39.55 10.08C39.58 10.11 39.62 10.13 39.66 10.13C39.71 10.13 39.75 10.11 39.78 10.08C39.81 10.05 39.82 10.01 39.82 9.97C39.82 9.93 39.81 9.89 39.78 9.86C39.75 9.83 39.71 9.81 39.66 9.81Z" fill="#FFFFFF" fill-opacity="1.000000" fill-rule="nonzero"/>
	<path d="M38.08 8.23C38.03 8.23 38 8.24 37.97 8.27C37.94 8.31 37.92 8.34 37.92 8.39C37.92 8.43 37.94 8.47 37.97 8.5C38 8.53 38.03 8.54 38.08 8.54C38.12 8.54 38.16 8.53 38.19 8.5C38.22 8.47 38.24 8.43 38.24 8.39C38.24 8.34 38.22 8.31 38.19 8.27C38.16 8.24 38.12 8.23 38.08 8.23Z" fill="#FFFFFF" fill-opacity="1.000000" fill-rule="nonzero"/>
	<path d="M39.66 8.23C39.62 8.23 39.58 8.24 39.55 8.27C39.52 8.31 39.51 8.34 39.51 8.39C39.51 8.43 39.52 8.47 39.55 8.5C39.58 8.53 39.62 8.54 39.66 8.54C39.71 8.54 39.75 8.53 39.78 8.5C39.81 8.47 39.82 8.43 39.82 8.39C39.82 8.34 39.81 8.31 39.78 8.27C39.75 8.24 39.71 8.23 39.66 8.23Z" fill="#FFFFFF" fill-opacity="1.000000" fill-rule="nonzero"/>
	<path d="M37.37 10.63C37.35 10.61 37.32 10.6 37.29 10.6C37.26 10.6 37.23 10.61 37.21 10.62C37.19 10.63 37.17 10.65 37.15 10.67C37.14 10.69 37.13 10.71 37.12 10.74C37.12 10.76 37.12 10.79 37.13 10.81C37.14 10.84 37.15 10.86 37.17 10.88C37.19 10.9 37.21 10.91 37.24 10.92C37.26 10.92 37.29 10.93 37.31 10.92C37.34 10.92 37.36 10.91 37.38 10.89C37.4 10.87 37.42 10.86 37.43 10.83C37.44 10.81 37.44 10.79 37.44 10.76C37.44 10.73 37.44 10.71 37.43 10.69C37.41 10.66 37.39 10.64 37.37 10.63Z" fill="#FFFFFF" fill-opacity="1.000000" fill-rule="nonzero"/>
	<path d="M37.37 9.05C37.35 9.03 37.32 9.02 37.29 9.02C37.24 9.02 37.2 9.04 37.17 9.07C37.14 9.1 37.13 9.14 37.13 9.18C37.13 9.22 37.14 9.26 37.18 9.29C37.21 9.32 37.24 9.34 37.29 9.34C37.33 9.34 37.37 9.32 37.4 9.29C37.43 9.26 37.45 9.22 37.45 9.18C37.45 9.12 37.42 9.08 37.37 9.05Z" fill="#FFFFFF" fill-opacity="1.000000" fill-rule="nonzero"/>
	<path d="M38.87 13.77C38.85 13.77 38.82 13.77 38.8 13.79C38.77 13.8 38.75 13.82 38.74 13.84C38.73 13.86 38.72 13.88 38.71 13.91C38.71 13.94 38.71 13.96 38.73 13.99C38.75 14.05 38.8 14.08 38.87 14.08C38.94 14.08 38.99 14.05 39.02 13.99C39.03 13.97 39.03 13.95 39.03 13.93C39.03 13.89 39.02 13.86 39 13.84C38.97 13.79 38.93 13.77 38.87 13.77Z" fill="#FFFFFF" fill-opacity="1.000000" fill-rule="nonzero"/>
	<path d="M38.87 12.18C38.83 12.18 38.79 12.2 38.76 12.23C38.73 12.26 38.71 12.3 38.71 12.34C38.71 12.39 38.73 12.42 38.76 12.45C38.79 12.48 38.83 12.5 38.87 12.5C38.92 12.5 38.95 12.48 38.98 12.45C39.01 12.42 39.03 12.39 39.03 12.34C39.03 12.3 39.01 12.26 38.98 12.23C38.95 12.2 38.92 12.18 38.87 12.18Z" fill="#FFFFFF" fill-opacity="1.000000" fill-rule="nonzero"/>
	<path d="M38.08 12.98C38.03 12.98 38 12.99 37.97 13.02C37.94 13.05 37.92 13.09 37.92 13.13C37.92 13.18 37.94 13.21 37.97 13.25C38 13.28 38.03 13.29 38.08 13.29C38.12 13.29 38.16 13.28 38.19 13.25C38.22 13.21 38.24 13.18 38.24 13.13C38.24 13.09 38.22 13.05 38.19 13.02C38.16 12.99 38.12 12.98 38.08 12.98Z" fill="#FFFFFF" fill-opacity="1.000000" fill-rule="nonzero"/>
	<path d="M39.66 12.98C39.62 12.98 39.58 12.99 39.55 13.02C39.52 13.05 39.51 13.09 39.51 13.13C39.51 13.18 39.52 13.21 39.55 13.25C39.58 13.28 39.62 13.29 39.66 13.29C39.71 13.29 39.75 13.28 39.78 13.25C39.81 13.21 39.82 13.18 39.82 13.13C39.82 13.09 39.81 13.05 39.78 13.02C39.75 12.99 39.71 12.98 39.66 12.98Z" fill="#FFFFFF" fill-opacity="1.000000" fill-rule="nonzero"/>
	<path d="M38.08 11.39C38.03 11.39 38 11.41 37.97 11.44C37.94 11.47 37.92 11.51 37.92 11.55C37.92 11.6 37.94 11.63 37.97 11.66C38 11.7 38.03 11.71 38.08 11.71C38.12 11.71 38.16 11.7 38.19 11.66C38.22 11.63 38.24 11.6 38.24 11.55C38.24 11.51 38.22 11.47 38.19 11.44C38.16 11.41 38.12 11.39 38.08 11.39Z" fill="#FFFFFF" fill-opacity="1.000000" fill-rule="nonzero"/>
	<path d="M39.66 11.39C39.62 11.39 39.58 11.41 39.55 11.44C39.52 11.47 39.51 11.51 39.51 11.55C39.51 11.6 39.52 11.63 39.55 11.66C39.58 11.7 39.62 11.71 39.66 11.71C39.71 11.71 39.75 11.7 39.78 11.66C39.81 11.63 39.82 11.6 39.82 11.55C39.82 11.51 39.81 11.47 39.78 11.44C39.75 11.41 39.71 11.39 39.66 11.39Z" fill="#FFFFFF" fill-opacity="1.000000" fill-rule="nonzero"/>
	<path d="M37.37 13.79C37.35 13.78 37.32 13.77 37.29 13.77C37.26 13.77 37.23 13.77 37.21 13.79C37.19 13.8 37.17 13.82 37.15 13.84C37.14 13.86 37.13 13.88 37.13 13.91C37.13 13.94 37.13 13.96 37.14 13.99C37.16 14.03 37.19 14.06 37.24 14.08C37.29 14.09 37.33 14.08 37.37 14.06C37.4 14.04 37.42 14.02 37.43 13.99C37.44 13.97 37.44 13.95 37.44 13.93C37.44 13.89 37.44 13.86 37.42 13.84C37.41 13.82 37.39 13.81 37.37 13.79Z" fill="#FFFFFF" fill-opacity="1.000000" fill-rule="nonzero"/>
	<path d="M37.37 12.21C37.35 12.19 37.32 12.18 37.29 12.18C37.26 12.18 37.23 12.19 37.21 12.2C37.19 12.21 37.17 12.23 37.15 12.25C37.14 12.27 37.13 12.29 37.12 12.32C37.12 12.35 37.12 12.37 37.13 12.4C37.14 12.42 37.15 12.44 37.17 12.46C37.19 12.48 37.21 12.49 37.24 12.5C37.26 12.51 37.29 12.51 37.31 12.5C37.34 12.5 37.36 12.49 37.38 12.47C37.4 12.46 37.42 12.44 37.43 12.41C37.44 12.39 37.44 12.37 37.44 12.34C37.44 12.31 37.44 12.29 37.43 12.27C37.41 12.25 37.39 12.23 37.37 12.21Z" fill="#FFFFFF" fill-opacity="1.000000" fill-rule="nonzero"/>
	<path d="M38.87 16.93C38.83 16.93 38.79 16.95 38.76 16.98C38.73 17.01 38.71 17.05 38.71 17.09C38.71 17.13 38.73 17.17 38.76 17.2C38.79 17.23 38.83 17.25 38.87 17.25C38.92 17.25 38.95 17.23 38.98 17.2C39.01 17.17 39.03 17.13 39.03 17.09C39.03 17.05 39.01 17.01 38.98 16.98C38.95 16.95 38.92 16.93 38.87 16.93Z" fill="#FFFFFF" fill-opacity="1.000000" fill-rule="nonzero"/>
	<path d="M38.87 15.35C38.83 15.35 38.79 15.37 38.76 15.4C38.73 15.43 38.71 15.46 38.71 15.51C38.71 15.55 38.73 15.59 38.76 15.62C38.79 15.65 38.83 15.67 38.87 15.67C38.92 15.67 38.95 15.65 38.98 15.62C39.01 15.59 39.03 15.55 39.03 15.51C39.03 15.46 39.01 15.43 38.98 15.4C38.95 15.37 38.92 15.35 38.87 15.35Z" fill="#FFFFFF" fill-opacity="1.000000" fill-rule="nonzero"/>
	<path d="M38.08 16.14C38.03 16.14 38 16.16 37.97 16.19C37.94 16.22 37.92 16.25 37.92 16.3C37.92 16.34 37.94 16.38 37.97 16.41C38 16.44 38.03 16.46 38.08 16.46C38.12 16.46 38.16 16.44 38.19 16.41C38.22 16.38 38.24 16.34 38.24 16.3C38.24 16.25 38.22 16.22 38.19 16.19C38.16 16.16 38.12 16.14 38.08 16.14Z" fill="#FFFFFF" fill-opacity="1.000000" fill-rule="nonzero"/>
	<path d="M39.66 16.14C39.62 16.14 39.58 16.16 39.55 16.19C39.52 16.22 39.51 16.25 39.51 16.3C39.51 16.34 39.52 16.38 39.55 16.41C39.58 16.44 39.62 16.46 39.66 16.46C39.71 16.46 39.75 16.44 39.78 16.41C39.81 16.38 39.82 16.34 39.82 16.3C39.82 16.25 39.81 16.22 39.78 16.19C39.75 16.16 39.71 16.14 39.66 16.14Z" fill="#FFFFFF" fill-opacity="1.000000" fill-rule="nonzero"/>
	<path d="M38.08 14.56C38.03 14.56 38 14.57 37.97 14.61C37.94 14.64 37.92 14.67 37.92 14.72C37.92 14.76 37.94 14.8 37.97 14.83C38 14.86 38.03 14.87 38.08 14.87C38.12 14.87 38.16 14.86 38.19 14.83C38.22 14.8 38.24 14.76 38.24 14.72C38.24 14.67 38.22 14.64 38.19 14.61C38.16 14.57 38.12 14.56 38.08 14.56Z" fill="#FFFFFF" fill-opacity="1.000000" fill-rule="nonzero"/>
	<path d="M39.66 14.56C39.62 14.56 39.58 14.57 39.55 14.61C39.52 14.64 39.51 14.67 39.51 14.72C39.51 14.76 39.52 14.8 39.55 14.83C39.58 14.86 39.62 14.87 39.66 14.87C39.71 14.87 39.75 14.86 39.78 14.83C39.81 14.8 39.82 14.76 39.82 14.72C39.82 14.67 39.81 14.64 39.78 14.61C39.75 14.57 39.71 14.56 39.66 14.56Z" fill="#FFFFFF" fill-opacity="1.000000" fill-rule="nonzero"/>
	<path d="M37.37 16.96C37.35 16.94 37.32 16.93 37.29 16.93C37.26 16.93 37.23 16.94 37.21 16.95C37.19 16.96 37.17 16.98 37.15 17C37.14 17.02 37.13 17.04 37.12 17.07C37.12 17.09 37.12 17.12 37.13 17.14C37.14 17.17 37.15 17.19 37.17 17.21C37.19 17.23 37.21 17.24 37.24 17.25C37.26 17.25 37.29 17.26 37.31 17.25C37.34 17.25 37.36 17.24 37.38 17.22C37.4 17.2 37.42 17.19 37.43 17.16C37.44 17.14 37.44 17.12 37.44 17.09C37.44 17.06 37.44 17.04 37.43 17.02C37.41 16.99 37.39 16.97 37.37 16.96Z" fill="#FFFFFF" fill-opacity="1.000000" fill-rule="nonzero"/>
	<path d="M37.37 15.38C37.35 15.36 37.32 15.35 37.29 15.35C37.26 15.35 37.23 15.36 37.21 15.37C37.19 15.38 37.17 15.4 37.15 15.42C37.14 15.44 37.13 15.46 37.12 15.49C37.12 15.51 37.12 15.54 37.13 15.56C37.14 15.58 37.15 15.61 37.17 15.63C37.19 15.64 37.21 15.66 37.24 15.66C37.26 15.67 37.29 15.67 37.31 15.67C37.34 15.66 37.36 15.65 37.38 15.64C37.4 15.62 37.42 15.6 37.43 15.58C37.44 15.56 37.44 15.53 37.44 15.51C37.44 15.48 37.44 15.46 37.43 15.43C37.41 15.41 37.39 15.39 37.37 15.38Z" fill="#FFFFFF" fill-opacity="1.000000" fill-rule="nonzero"/>
	<path d="M38.87 20.09C38.82 20.1 38.77 20.12 38.74 20.16C38.71 20.21 38.7 20.26 38.73 20.31C38.75 20.38 38.8 20.41 38.87 20.41C38.94 20.41 38.99 20.38 39.02 20.31C39.03 20.29 39.03 20.27 39.03 20.25C39.03 20.22 39.02 20.19 39 20.16C38.97 20.12 38.93 20.1 38.87 20.09Z" fill="#FFFFFF" fill-opacity="1.000000" fill-rule="nonzero"/>
	<path d="M38.87 18.51C38.83 18.51 38.79 18.53 38.76 18.56C38.73 18.59 38.71 18.63 38.71 18.67C38.71 18.72 38.73 18.76 38.76 18.79C38.79 18.82 38.83 18.83 38.87 18.83C38.92 18.83 38.95 18.82 38.98 18.79C39.01 18.75 39.03 18.72 39.03 18.67C39.03 18.63 39.01 18.59 38.98 18.56C38.95 18.53 38.92 18.51 38.87 18.51Z" fill="#FFFFFF" fill-opacity="1.000000" fill-rule="nonzero"/>
	<path d="M38.08 19.31C38.03 19.31 38 19.32 37.97 19.35C37.94 19.38 37.92 19.42 37.92 19.46C37.92 19.51 37.94 19.54 37.97 19.58C38 19.61 38.03 19.62 38.08 19.62C38.12 19.62 38.16 19.61 38.19 19.58C38.22 19.55 38.24 19.51 38.24 19.47C38.24 19.42 38.22 19.38 38.19 19.35C38.16 19.32 38.12 19.31 38.08 19.31Z" fill="#FFFFFF" fill-opacity="1.000000" fill-rule="nonzero"/>
	<path d="M39.66 19.31C39.62 19.31 39.58 19.32 39.55 19.35C39.52 19.38 39.51 19.42 39.51 19.46C39.51 19.51 39.52 19.54 39.55 19.58C39.58 19.61 39.62 19.62 39.66 19.62C39.71 19.62 39.75 19.61 39.78 19.58C39.81 19.55 39.82 19.51 39.82 19.47C39.82 19.42 39.81 19.38 39.78 19.35C39.75 19.32 39.71 19.31 39.66 19.31Z" fill="#FFFFFF" fill-opacity="1.000000" fill-rule="nonzero"/>
	<path d="M38.08 17.72C38.03 17.72 38 17.74 37.97 17.77C37.94 17.8 37.92 17.84 37.92 17.88C37.92 17.92 37.94 17.96 37.97 17.99C38 18.02 38.03 18.04 38.08 18.04C38.12 18.04 38.16 18.02 38.19 17.99C38.22 17.96 38.24 17.92 38.24 17.88C38.24 17.84 38.22 17.8 38.19 17.77C38.16 17.74 38.12 17.72 38.08 17.72Z" fill="#FFFFFF" fill-opacity="1.000000" fill-rule="nonzero"/>
	<path d="M39.66 17.72C39.62 17.72 39.58 17.74 39.55 17.77C39.52 17.8 39.51 17.84 39.51 17.88C39.51 17.92 39.52 17.96 39.55 17.99C39.58 18.02 39.62 18.04 39.66 18.04C39.71 18.04 39.75 18.02 39.78 17.99C39.81 17.96 39.82 17.92 39.82 17.88C39.82 17.84 39.81 17.8 39.78 17.77C39.75 17.74 39.71 17.72 39.66 17.72Z" fill="#FFFFFF" fill-opacity="1.000000" fill-rule="nonzero"/>
	<path d="M37.37 20.12C37.34 20.1 37.3 20.09 37.25 20.1C37.21 20.11 37.18 20.13 37.15 20.17C37.12 20.22 37.12 20.26 37.14 20.32C37.16 20.36 37.19 20.39 37.24 20.41C37.29 20.42 37.33 20.41 37.37 20.39C37.4 20.37 37.42 20.35 37.43 20.32C37.44 20.3 37.44 20.28 37.44 20.26C37.44 20.22 37.43 20.19 37.42 20.17C37.4 20.15 37.39 20.14 37.37 20.12Z" fill="#FFFFFF" fill-opacity="1.000000" fill-rule="nonzero"/>
	<path d="M37.37 18.54C37.35 18.52 37.32 18.51 37.29 18.51C37.24 18.52 37.21 18.54 37.18 18.57C37.15 18.6 37.14 18.63 37.14 18.67C37.14 18.71 37.15 18.75 37.18 18.78C37.21 18.81 37.24 18.83 37.29 18.83C37.32 18.83 37.35 18.82 37.37 18.8C37.39 18.79 37.41 18.77 37.43 18.75C37.44 18.72 37.44 18.7 37.44 18.67C37.44 18.65 37.44 18.62 37.43 18.6C37.41 18.58 37.39 18.56 37.37 18.54Z" fill="#FFFFFF" fill-opacity="1.000000" fill-rule="nonzero"/>
	<path d="M38.08 20.89C38.03 20.89 38 20.9 37.97 20.93C37.94 20.97 37.92 21 37.92 21.05C37.92 21.09 37.94 21.13 37.97 21.16C38 21.19 38.03 21.21 38.08 21.21C38.12 21.21 38.16 21.19 38.19 21.16C38.22 21.13 38.24 21.09 38.24 21.05C38.24 21 38.22 20.97 38.19 20.94C38.16 20.9 38.12 20.89 38.08 20.89Z" fill="#FFFFFF" fill-opacity="1.000000" fill-rule="nonzero"/>
	<path d="M39.66 20.89C39.62 20.89 39.58 20.9 39.55 20.93C39.52 20.97 39.51 21 39.51 21.05C39.51 21.09 39.52 21.13 39.55 21.16C39.58 21.19 39.62 21.21 39.66 21.21C39.71 21.21 39.75 21.19 39.78 21.16C39.81 21.13 39.82 21.09 39.82 21.05C39.82 21 39.81 20.97 39.78 20.94C39.75 20.9 39.71 20.89 39.66 20.89Z" fill="#FFFFFF" fill-opacity="1.000000" fill-rule="nonzero"/>
	<path d="M35.7 4.27C35.66 4.27 35.62 4.29 35.59 4.32C35.56 4.35 35.54 4.39 35.54 4.43C35.54 4.47 35.56 4.51 35.59 4.54C35.62 4.57 35.66 4.59 35.7 4.59C35.74 4.59 35.78 4.57 35.81 4.54C35.84 4.51 35.86 4.47 35.86 4.43C35.86 4.39 35.84 4.35 35.81 4.32C35.78 4.29 35.74 4.27 35.7 4.27Z" fill="#FFFFFF" fill-opacity="1.000000" fill-rule="nonzero"/>
	<path d="M36.49 3.48C36.45 3.48 36.41 3.5 36.38 3.53C36.35 3.56 36.33 3.6 36.33 3.64C36.33 3.68 36.35 3.72 36.38 3.75C36.41 3.78 36.45 3.8 36.49 3.8C36.54 3.8 36.57 3.78 36.6 3.75C36.64 3.72 36.65 3.68 36.65 3.64C36.65 3.6 36.64 3.56 36.6 3.53C36.57 3.5 36.54 3.48 36.49 3.48Z" fill="#FFFFFF" fill-opacity="1.000000" fill-rule="nonzero"/>
	<path d="M35.7 7.44C35.64 7.44 35.6 7.46 35.57 7.51C35.55 7.54 35.54 7.56 35.54 7.6C35.54 7.62 35.54 7.64 35.55 7.66C35.58 7.72 35.63 7.75 35.7 7.75C35.77 7.75 35.82 7.72 35.85 7.66C35.85 7.64 35.86 7.62 35.86 7.6C35.86 7.56 35.85 7.54 35.83 7.51C35.8 7.46 35.76 7.44 35.7 7.44Z" fill="#FFFFFF" fill-opacity="1.000000" fill-rule="nonzero"/>
	<path d="M35.7 5.86C35.66 5.86 35.62 5.87 35.59 5.9C35.56 5.93 35.54 5.97 35.54 6.01C35.54 6.06 35.56 6.09 35.59 6.13C35.62 6.16 35.66 6.17 35.7 6.17C35.74 6.17 35.78 6.16 35.81 6.13C35.84 6.09 35.86 6.06 35.86 6.01C35.86 5.97 35.84 5.93 35.81 5.9C35.78 5.87 35.74 5.86 35.7 5.86Z" fill="#FFFFFF" fill-opacity="1.000000" fill-rule="nonzero"/>
	<path d="M34.9 6.65C34.86 6.65 34.82 6.66 34.79 6.69C34.76 6.72 34.75 6.76 34.75 6.8C34.75 6.85 34.76 6.89 34.79 6.92C34.82 6.95 34.86 6.96 34.9 6.96C34.95 6.96 34.99 6.95 35.02 6.92C35.05 6.89 35.06 6.85 35.06 6.8C35.06 6.76 35.05 6.72 35.02 6.69C34.99 6.66 34.95 6.65 34.9 6.65Z" fill="#FFFFFF" fill-opacity="1.000000" fill-rule="nonzero"/>
	<path d="M36.49 6.65C36.45 6.65 36.41 6.66 36.38 6.69C36.35 6.72 36.33 6.76 36.33 6.8C36.33 6.85 36.35 6.89 36.38 6.92C36.41 6.95 36.45 6.96 36.49 6.96C36.54 6.96 36.57 6.95 36.6 6.92C36.64 6.89 36.65 6.85 36.65 6.8C36.65 6.76 36.64 6.72 36.6 6.69C36.57 6.66 36.54 6.65 36.49 6.65Z" fill="#FFFFFF" fill-opacity="1.000000" fill-rule="nonzero"/>
	<path d="M36.49 5.06C36.45 5.06 36.41 5.08 36.38 5.11C36.35 5.14 36.33 5.18 36.33 5.22C36.33 5.27 36.35 5.3 36.38 5.33C36.41 5.37 36.45 5.38 36.49 5.38C36.54 5.38 36.57 5.37 36.6 5.33C36.64 5.3 36.65 5.27 36.65 5.22C36.65 5.18 36.64 5.14 36.6 5.11C36.57 5.08 36.54 5.06 36.49 5.06Z" fill="#FFFFFF" fill-opacity="1.000000" fill-rule="nonzero"/>
	<path d="M34.14 7.44C34.13 7.44 34.12 7.44 34.11 7.44C34.09 7.44 34.07 7.45 34.05 7.45C34.02 7.47 34 7.49 33.98 7.51C33.96 7.54 33.95 7.57 33.95 7.6C33.95 7.62 33.96 7.64 33.96 7.66C33.98 7.7 34.01 7.73 34.05 7.75C34.07 7.75 34.09 7.76 34.11 7.76C34.12 7.76 34.13 7.76 34.14 7.76C34.19 7.75 34.23 7.71 34.25 7.66C34.26 7.64 34.27 7.62 34.27 7.6C34.27 7.57 34.26 7.54 34.24 7.52C34.22 7.48 34.18 7.45 34.14 7.44Z" fill="#FFFFFF" fill-opacity="1.000000" fill-rule="nonzero"/>
	<path d="M35.7 10.6C35.66 10.6 35.62 10.62 35.59 10.65C35.56 10.68 35.54 10.72 35.54 10.76C35.54 10.8 35.56 10.84 35.59 10.87C35.62 10.9 35.66 10.92 35.7 10.92C35.74 10.92 35.78 10.9 35.81 10.87C35.84 10.84 35.86 10.8 35.86 10.76C35.86 10.72 35.84 10.68 35.81 10.65C35.78 10.62 35.74 10.6 35.7 10.6Z" fill="#FFFFFF" fill-opacity="1.000000" fill-rule="nonzero"/>
	<path d="M35.7 9.02C35.66 9.02 35.62 9.04 35.59 9.07C35.56 9.1 35.54 9.13 35.54 9.18C35.54 9.22 35.56 9.26 35.59 9.29C35.62 9.32 35.66 9.34 35.7 9.34C35.74 9.34 35.78 9.32 35.81 9.29C35.84 9.26 35.86 9.22 35.86 9.18C35.86 9.13 35.84 9.1 35.81 9.07C35.78 9.04 35.74 9.02 35.7 9.02Z" fill="#FFFFFF" fill-opacity="1.000000" fill-rule="nonzero"/>
	<path d="M34.9 9.81C34.86 9.81 34.82 9.83 34.79 9.86C34.76 9.89 34.75 9.93 34.75 9.97C34.75 10.01 34.76 10.05 34.79 10.08C34.82 10.11 34.86 10.13 34.9 10.13C34.95 10.13 34.99 10.11 35.02 10.08C35.05 10.05 35.06 10.01 35.06 9.97C35.06 9.93 35.05 9.89 35.02 9.86C34.99 9.83 34.95 9.81 34.9 9.81Z" fill="#FFFFFF" fill-opacity="1.000000" fill-rule="nonzero"/>
	<path d="M36.49 9.81C36.45 9.81 36.41 9.83 36.38 9.86C36.35 9.89 36.33 9.93 36.33 9.97C36.33 10.01 36.35 10.05 36.38 10.08C36.41 10.11 36.45 10.13 36.49 10.13C36.54 10.13 36.57 10.11 36.6 10.08C36.64 10.05 36.65 10.01 36.65 9.97C36.65 9.93 36.64 9.89 36.6 9.86C36.57 9.83 36.54 9.81 36.49 9.81Z" fill="#FFFFFF" fill-opacity="1.000000" fill-rule="nonzero"/>
	<path d="M34.9 8.23C34.86 8.23 34.82 8.24 34.79 8.27C34.76 8.31 34.75 8.34 34.75 8.39C34.75 8.43 34.76 8.47 34.79 8.5C34.82 8.53 34.86 8.54 34.9 8.54C34.95 8.54 34.99 8.53 35.02 8.5C35.05 8.47 35.06 8.43 35.06 8.39C35.06 8.34 35.05 8.31 35.02 8.27C34.99 8.24 34.95 8.23 34.9 8.23Z" fill="#FFFFFF" fill-opacity="1.000000" fill-rule="nonzero"/>
	<path d="M36.49 8.23C36.45 8.23 36.41 8.24 36.38 8.27C36.35 8.31 36.33 8.34 36.33 8.39C36.33 8.43 36.35 8.47 36.38 8.5C36.41 8.53 36.45 8.54 36.49 8.54C36.54 8.54 36.57 8.53 36.6 8.5C36.64 8.47 36.65 8.43 36.65 8.39C36.65 8.34 36.64 8.31 36.6 8.27C36.57 8.24 36.54 8.23 36.49 8.23Z" fill="#FFFFFF" fill-opacity="1.000000" fill-rule="nonzero"/>
	<path d="M34.14 10.61C34.13 10.61 34.12 10.61 34.11 10.61C34.09 10.61 34.07 10.61 34.05 10.62C33.98 10.65 33.95 10.7 33.95 10.77C33.95 10.84 33.98 10.88 34.05 10.91C34.07 10.92 34.09 10.92 34.11 10.92C34.12 10.92 34.13 10.92 34.14 10.92C34.18 10.92 34.21 10.9 34.23 10.87C34.26 10.84 34.27 10.81 34.27 10.77C34.27 10.73 34.26 10.7 34.23 10.66C34.21 10.63 34.18 10.62 34.14 10.61Z" fill="#FFFFFF" fill-opacity="1.000000" fill-rule="nonzero"/>
	<path d="M34.14 9.02C34.13 9.02 34.12 9.02 34.11 9.02C34.09 9.02 34.07 9.03 34.05 9.04C33.98 9.06 33.95 9.11 33.95 9.18C33.95 9.25 33.98 9.3 34.05 9.33C34.07 9.34 34.09 9.34 34.11 9.34C34.12 9.34 34.13 9.34 34.14 9.34C34.18 9.33 34.21 9.31 34.23 9.29C34.26 9.26 34.27 9.22 34.27 9.18C34.27 9.15 34.26 9.11 34.23 9.08C34.21 9.05 34.18 9.03 34.14 9.02Z" fill="#FFFFFF" fill-opacity="1.000000" fill-rule="nonzero"/>
	<path d="M35.7 13.77C35.67 13.77 35.65 13.77 35.62 13.79C35.6 13.8 35.58 13.82 35.57 13.84C35.55 13.86 35.54 13.88 35.54 13.91C35.54 13.94 35.54 13.96 35.55 13.99C35.58 14.05 35.63 14.08 35.7 14.08C35.77 14.08 35.82 14.05 35.85 13.99C35.85 13.97 35.86 13.95 35.86 13.93C35.86 13.89 35.85 13.86 35.83 13.84C35.8 13.79 35.76 13.77 35.7 13.77Z" fill="#FFFFFF" fill-opacity="1.000000" fill-rule="nonzero"/>
	<path d="M35.7 12.18C35.66 12.18 35.62 12.2 35.59 12.23C35.56 12.26 35.54 12.3 35.54 12.34C35.54 12.39 35.56 12.42 35.59 12.45C35.62 12.48 35.66 12.5 35.7 12.5C35.74 12.5 35.78 12.48 35.81 12.45C35.84 12.42 35.86 12.39 35.86 12.34C35.86 12.3 35.84 12.26 35.81 12.23C35.78 12.2 35.74 12.18 35.7 12.18Z" fill="#FFFFFF" fill-opacity="1.000000" fill-rule="nonzero"/>
	<path d="M34.9 12.98C34.86 12.98 34.82 12.99 34.79 13.02C34.76 13.05 34.75 13.09 34.75 13.13C34.75 13.18 34.76 13.21 34.79 13.25C34.82 13.28 34.86 13.29 34.9 13.29C34.95 13.29 34.99 13.28 35.02 13.25C35.05 13.21 35.06 13.18 35.06 13.13C35.06 13.09 35.05 13.05 35.02 13.02C34.99 12.99 34.95 12.98 34.9 12.98Z" fill="#FFFFFF" fill-opacity="1.000000" fill-rule="nonzero"/>
	<path d="M36.49 12.98C36.45 12.98 36.41 12.99 36.38 13.02C36.35 13.05 36.33 13.09 36.33 13.13C36.33 13.18 36.35 13.21 36.38 13.25C36.41 13.28 36.45 13.29 36.49 13.29C36.54 13.29 36.57 13.28 36.6 13.25C36.64 13.21 36.65 13.18 36.65 13.13C36.65 13.09 36.64 13.05 36.6 13.02C36.57 12.99 36.54 12.98 36.49 12.98Z" fill="#FFFFFF" fill-opacity="1.000000" fill-rule="nonzero"/>
	<path d="M34.9 11.39C34.86 11.39 34.82 11.41 34.79 11.44C34.76 11.47 34.75 11.51 34.75 11.55C34.75 11.6 34.76 11.63 34.79 11.66C34.82 11.7 34.86 11.71 34.9 11.71C34.95 11.71 34.99 11.7 35.02 11.66C35.05 11.63 35.06 11.6 35.06 11.55C35.06 11.51 35.05 11.47 35.02 11.44C34.99 11.41 34.95 11.39 34.9 11.39Z" fill="#FFFFFF" fill-opacity="1.000000" fill-rule="nonzero"/>
	<path d="M36.49 11.39C36.45 11.39 36.41 11.41 36.38 11.44C36.35 11.47 36.33 11.51 36.33 11.55C36.33 11.6 36.35 11.63 36.38 11.66C36.41 11.7 36.45 11.71 36.49 11.71C36.54 11.71 36.57 11.7 36.6 11.66C36.64 11.63 36.65 11.6 36.65 11.55C36.65 11.51 36.64 11.47 36.6 11.44C36.57 11.41 36.54 11.39 36.49 11.39Z" fill="#FFFFFF" fill-opacity="1.000000" fill-rule="nonzero"/>
	<path d="M34.14 13.77C34.13 13.77 34.12 13.77 34.11 13.77C34.09 13.77 34.07 13.78 34.05 13.78C34.02 13.8 34 13.82 33.98 13.84C33.96 13.87 33.95 13.9 33.95 13.93C33.95 13.95 33.96 13.97 33.96 13.99C33.98 14.03 34.01 14.06 34.05 14.08C34.07 14.08 34.09 14.09 34.11 14.09C34.12 14.09 34.13 14.09 34.14 14.09C34.19 14.08 34.23 14.04 34.25 13.99C34.26 13.97 34.27 13.95 34.27 13.93C34.27 13.9 34.26 13.87 34.24 13.84C34.22 13.81 34.18 13.78 34.14 13.77Z" fill="#FFFFFF" fill-opacity="1.000000" fill-rule="nonzero"/>
	<path d="M34.14 12.18C34.13 12.18 34.12 12.18 34.11 12.18C34.09 12.18 34.07 12.19 34.05 12.2C33.98 12.22 33.95 12.27 33.95 12.34C33.95 12.41 33.98 12.46 34.05 12.49C34.07 12.5 34.09 12.5 34.11 12.5C34.12 12.5 34.13 12.5 34.14 12.5C34.18 12.49 34.21 12.47 34.23 12.45C34.26 12.42 34.27 12.38 34.27 12.34C34.27 12.31 34.26 12.27 34.23 12.24C34.21 12.21 34.18 12.19 34.14 12.18Z" fill="#FFFFFF" fill-opacity="1.000000" fill-rule="nonzero"/>
	<path d="M35.7 16.93C35.66 16.93 35.62 16.95 35.59 16.98C35.56 17.01 35.54 17.05 35.54 17.09C35.54 17.13 35.56 17.17 35.59 17.2C35.62 17.23 35.66 17.25 35.7 17.25C35.74 17.25 35.78 17.23 35.81 17.2C35.84 17.17 35.86 17.13 35.86 17.09C35.86 17.05 35.84 17.01 35.81 16.98C35.78 16.95 35.74 16.93 35.7 16.93Z" fill="#FFFFFF" fill-opacity="1.000000" fill-rule="nonzero"/>
	<path d="M35.7 15.35C35.66 15.35 35.62 15.37 35.59 15.4C35.56 15.43 35.54 15.46 35.54 15.51C35.54 15.55 35.56 15.59 35.59 15.62C35.62 15.65 35.66 15.67 35.7 15.67C35.74 15.67 35.78 15.65 35.81 15.62C35.84 15.59 35.86 15.55 35.86 15.51C35.86 15.46 35.84 15.43 35.81 15.4C35.78 15.37 35.74 15.35 35.7 15.35Z" fill="#FFFFFF" fill-opacity="1.000000" fill-rule="nonzero"/>
	<path d="M34.9 16.14C34.86 16.14 34.82 16.16 34.79 16.19C34.76 16.22 34.75 16.25 34.75 16.3C34.75 16.34 34.76 16.38 34.79 16.41C34.82 16.44 34.86 16.46 34.9 16.46C34.95 16.46 34.99 16.44 35.02 16.41C35.05 16.38 35.06 16.34 35.06 16.3C35.06 16.25 35.05 16.22 35.02 16.19C34.99 16.16 34.95 16.14 34.9 16.14Z" fill="#FFFFFF" fill-opacity="1.000000" fill-rule="nonzero"/>
	<path d="M36.49 16.14C36.45 16.14 36.41 16.16 36.38 16.19C36.35 16.22 36.33 16.25 36.33 16.3C36.33 16.34 36.35 16.38 36.38 16.41C36.41 16.44 36.45 16.46 36.49 16.46C36.54 16.46 36.57 16.44 36.6 16.41C36.64 16.38 36.65 16.34 36.65 16.3C36.65 16.25 36.64 16.22 36.6 16.19C36.57 16.16 36.54 16.14 36.49 16.14Z" fill="#FFFFFF" fill-opacity="1.000000" fill-rule="nonzero"/>
	<path d="M34.9 14.56C34.86 14.56 34.82 14.57 34.79 14.61C34.76 14.64 34.75 14.67 34.75 14.72C34.75 14.76 34.76 14.8 34.79 14.83C34.82 14.86 34.86 14.87 34.9 14.87C34.95 14.87 34.99 14.86 35.02 14.83C35.05 14.8 35.06 14.76 35.06 14.72C35.06 14.67 35.05 14.64 35.02 14.61C34.99 14.57 34.95 14.56 34.9 14.56Z" fill="#FFFFFF" fill-opacity="1.000000" fill-rule="nonzero"/>
	<path d="M36.49 14.56C36.45 14.56 36.41 14.57 36.38 14.61C36.35 14.64 36.33 14.67 36.33 14.72C36.33 14.76 36.35 14.8 36.38 14.83C36.41 14.86 36.45 14.87 36.49 14.87C36.54 14.87 36.57 14.86 36.6 14.83C36.64 14.8 36.65 14.76 36.65 14.72C36.65 14.67 36.64 14.64 36.6 14.61C36.57 14.57 36.54 14.56 36.49 14.56Z" fill="#FFFFFF" fill-opacity="1.000000" fill-rule="nonzero"/>
	<path d="M34.14 16.94C34.13 16.93 34.12 16.93 34.11 16.94C34.09 16.94 34.07 16.94 34.05 16.95C33.98 16.98 33.95 17.03 33.95 17.09C33.95 17.16 33.98 17.21 34.05 17.24C34.07 17.25 34.09 17.25 34.11 17.25C34.12 17.25 34.13 17.25 34.14 17.25C34.18 17.25 34.21 17.23 34.23 17.2C34.26 17.17 34.27 17.13 34.27 17.1C34.27 17.06 34.26 17.02 34.23 16.99C34.21 16.96 34.18 16.94 34.14 16.94Z" fill="#FFFFFF" fill-opacity="1.000000" fill-rule="nonzero"/>
	<path d="M34.14 15.35C34.13 15.35 34.12 15.35 34.11 15.35C34.09 15.35 34.07 15.36 34.05 15.37C33.98 15.39 33.95 15.44 33.95 15.51C33.95 15.58 33.98 15.63 34.05 15.66C34.07 15.67 34.09 15.67 34.11 15.67L34.14 15.67C34.22 15.65 34.27 15.6 34.27 15.51C34.27 15.43 34.22 15.38 34.14 15.36L34.14 15.35Z" fill="#FFFFFF" fill-opacity="1.000000" fill-rule="nonzero"/>
	<path d="M35.7 20.09C35.64 20.1 35.6 20.12 35.57 20.16C35.54 20.21 35.53 20.26 35.55 20.31C35.58 20.38 35.63 20.41 35.7 20.41C35.77 20.41 35.82 20.38 35.85 20.31C35.85 20.29 35.86 20.27 35.86 20.25C35.86 20.22 35.85 20.19 35.83 20.16C35.8 20.12 35.76 20.1 35.7 20.09Z" fill="#FFFFFF" fill-opacity="1.000000" fill-rule="nonzero"/>
	<path d="M35.7 18.51C35.65 18.51 35.62 18.53 35.58 18.56C35.55 18.59 35.54 18.63 35.54 18.67C35.54 18.72 35.55 18.76 35.58 18.79C35.62 18.82 35.65 18.83 35.7 18.83C35.74 18.83 35.78 18.82 35.81 18.79C35.84 18.75 35.86 18.72 35.86 18.67C35.86 18.63 35.84 18.59 35.81 18.56C35.78 18.53 35.74 18.51 35.7 18.51Z" fill="#FFFFFF" fill-opacity="1.000000" fill-rule="nonzero"/>
	<path d="M34.9 19.31C34.86 19.31 34.82 19.32 34.79 19.35C34.76 19.38 34.75 19.42 34.75 19.46C34.75 19.51 34.76 19.54 34.79 19.58C34.82 19.61 34.86 19.62 34.9 19.62C34.95 19.62 34.99 19.61 35.02 19.58C35.05 19.55 35.06 19.51 35.06 19.47C35.06 19.42 35.05 19.38 35.02 19.35C34.99 19.32 34.95 19.31 34.9 19.31Z" fill="#FFFFFF" fill-opacity="1.000000" fill-rule="nonzero"/>
	<path d="M36.49 19.31C36.45 19.31 36.41 19.32 36.38 19.35C36.35 19.38 36.33 19.42 36.33 19.46C36.33 19.51 36.35 19.54 36.38 19.58C36.41 19.61 36.45 19.62 36.49 19.62C36.54 19.62 36.57 19.61 36.6 19.58C36.63 19.55 36.65 19.51 36.65 19.47C36.65 19.42 36.64 19.38 36.6 19.35C36.57 19.32 36.54 19.31 36.49 19.31Z" fill="#FFFFFF" fill-opacity="1.000000" fill-rule="nonzero"/>
	<path d="M34.9 17.72C34.86 17.72 34.82 17.74 34.79 17.77C34.76 17.8 34.75 17.84 34.75 17.88C34.75 17.92 34.76 17.96 34.79 17.99C34.82 18.02 34.86 18.04 34.9 18.04C34.95 18.04 34.99 18.02 35.02 17.99C35.05 17.96 35.06 17.92 35.06 17.88C35.06 17.84 35.05 17.8 35.02 17.77C34.99 17.74 34.95 17.72 34.9 17.72Z" fill="#FFFFFF" fill-opacity="1.000000" fill-rule="nonzero"/>
	<path d="M36.49 17.72C36.45 17.72 36.41 17.74 36.38 17.77C36.35 17.8 36.33 17.84 36.33 17.88C36.33 17.92 36.35 17.96 36.38 17.99C36.41 18.02 36.45 18.04 36.49 18.04C36.54 18.04 36.57 18.02 36.6 17.99C36.64 17.96 36.65 17.92 36.65 17.88C36.65 17.84 36.64 17.8 36.6 17.77C36.57 17.74 36.54 17.72 36.49 17.72Z" fill="#FFFFFF" fill-opacity="1.000000" fill-rule="nonzero"/>
	<path d="M34.14 20.09C34.13 20.09 34.12 20.09 34.11 20.09C34.08 20.1 34.06 20.1 34.03 20.11C34.01 20.13 33.99 20.14 33.98 20.17C33.96 20.19 33.95 20.21 33.95 20.24C33.95 20.27 33.95 20.29 33.96 20.31C33.98 20.36 34.01 20.38 34.05 20.4C34.07 20.41 34.09 20.41 34.11 20.41C34.12 20.41 34.13 20.41 34.14 20.41C34.19 20.4 34.23 20.37 34.25 20.32C34.26 20.3 34.26 20.28 34.26 20.26C34.26 20.22 34.26 20.2 34.24 20.17C34.22 20.13 34.18 20.11 34.14 20.09Z" fill="#FFFFFF" fill-opacity="1.000000" fill-rule="nonzero"/>
	<path d="M34.14 18.52C34.13 18.52 34.12 18.52 34.11 18.52C34.09 18.52 34.07 18.52 34.05 18.53C33.98 18.56 33.95 18.61 33.95 18.68C33.95 18.75 33.98 18.8 34.05 18.82C34.07 18.83 34.09 18.84 34.11 18.84C34.12 18.84 34.13 18.84 34.14 18.84C34.22 18.82 34.27 18.77 34.27 18.68C34.27 18.6 34.22 18.54 34.14 18.53L34.14 18.52Z" fill="#FFFFFF" fill-opacity="1.000000" fill-rule="nonzero"/>
	<path d="M34.9 20.89C34.86 20.89 34.82 20.9 34.79 20.93C34.76 20.97 34.75 21 34.75 21.05C34.75 21.09 34.76 21.13 34.79 21.16C34.82 21.19 34.86 21.21 34.9 21.21C34.95 21.21 34.99 21.19 35.02 21.16C35.05 21.13 35.06 21.09 35.06 21.05C35.06 21 35.05 20.97 35.02 20.94C34.99 20.9 34.95 20.89 34.9 20.89Z" fill="#FFFFFF" fill-opacity="1.000000" fill-rule="nonzero"/>
	<path d="M36.49 20.89C36.45 20.89 36.41 20.9 36.38 20.93C36.35 20.97 36.33 21 36.33 21.05C36.33 21.09 36.35 21.13 36.38 21.16C36.41 21.19 36.45 21.21 36.49 21.21C36.54 21.21 36.57 21.19 36.6 21.16C36.63 21.13 36.65 21.09 36.65 21.05C36.65 21 36.64 20.97 36.6 20.94C36.57 20.9 36.54 20.89 36.49 20.89Z" fill="#FFFFFF" fill-opacity="1.000000" fill-rule="nonzero"/>
	<path d="M32.53 10.6C32.48 10.6 32.44 10.62 32.41 10.65C32.38 10.68 32.37 10.72 32.37 10.76C32.37 10.8 32.38 10.84 32.41 10.87C32.44 10.9 32.48 10.92 32.53 10.92C32.57 10.92 32.61 10.9 32.64 10.87C32.67 10.84 32.68 10.8 32.68 10.76C32.68 10.72 32.67 10.68 32.64 10.65C32.61 10.62 32.57 10.6 32.53 10.6Z" fill="#FFFFFF" fill-opacity="1.000000" fill-rule="nonzero"/>
	<path d="M33.32 9.81C33.27 9.81 33.24 9.83 33.21 9.86C33.18 9.89 33.16 9.93 33.16 9.97C33.16 10.01 33.18 10.05 33.21 10.08C33.24 10.11 33.28 10.13 33.32 10.13C33.37 10.13 33.4 10.11 33.43 10.08C33.47 10.05 33.48 10.01 33.48 9.97C33.48 9.93 33.46 9.89 33.43 9.86C33.4 9.83 33.36 9.81 33.32 9.81Z" fill="#FFFFFF" fill-opacity="1.000000" fill-rule="nonzero"/>
	<path d="M33.32 8.23C33.27 8.23 33.24 8.24 33.21 8.28C33.18 8.31 33.16 8.34 33.16 8.39C33.16 8.43 33.18 8.47 33.21 8.5C33.24 8.53 33.28 8.54 33.32 8.54C33.36 8.54 33.4 8.53 33.43 8.5C33.46 8.47 33.48 8.43 33.48 8.39C33.48 8.34 33.47 8.3 33.43 8.27C33.4 8.24 33.36 8.23 33.32 8.23Z" fill="#FFFFFF" fill-opacity="1.000000" fill-rule="nonzero"/>
	<path d="M32.53 13.77C32.5 13.77 32.47 13.77 32.45 13.79C32.43 13.8 32.41 13.82 32.39 13.84C32.38 13.86 32.37 13.88 32.37 13.91C32.37 13.94 32.37 13.96 32.38 13.99C32.41 14.05 32.46 14.08 32.53 14.08C32.6 14.08 32.64 14.05 32.67 13.99C32.68 13.97 32.69 13.95 32.68 13.93C32.69 13.89 32.68 13.86 32.66 13.84C32.63 13.79 32.58 13.77 32.53 13.77Z" fill="#FFFFFF" fill-opacity="1.000000" fill-rule="nonzero"/>
	<path d="M32.53 12.18C32.48 12.18 32.44 12.2 32.41 12.23C32.38 12.26 32.37 12.3 32.37 12.34C32.37 12.39 32.38 12.42 32.41 12.45C32.44 12.48 32.48 12.5 32.53 12.5C32.57 12.5 32.61 12.48 32.64 12.45C32.67 12.42 32.68 12.39 32.68 12.34C32.68 12.3 32.67 12.26 32.64 12.23C32.61 12.2 32.57 12.18 32.53 12.18Z" fill="#FFFFFF" fill-opacity="1.000000" fill-rule="nonzero"/>
	<path d="M31.73 12.98C31.69 12.98 31.65 12.99 31.62 13.02C31.59 13.05 31.57 13.09 31.57 13.13C31.57 13.18 31.59 13.21 31.62 13.25C31.65 13.28 31.69 13.29 31.73 13.29C31.78 13.29 31.81 13.28 31.85 13.25C31.87 13.21 31.89 13.18 31.89 13.13C31.89 13.09 31.87 13.05 31.85 13.02C31.81 12.99 31.78 12.98 31.73 12.98Z" fill="#FFFFFF" fill-opacity="1.000000" fill-rule="nonzero"/>
	<path d="M33.32 12.98C33.27 12.98 33.24 12.99 33.21 13.02C33.18 13.05 33.16 13.09 33.16 13.13C33.16 13.18 33.18 13.21 33.21 13.25C33.24 13.28 33.27 13.29 33.32 13.29C33.36 13.29 33.4 13.28 33.43 13.25C33.46 13.21 33.48 13.18 33.48 13.13C33.48 13.09 33.46 13.05 33.43 13.02C33.4 12.99 33.36 12.98 33.32 12.98Z" fill="#FFFFFF" fill-opacity="1.000000" fill-rule="nonzero"/>
	<path d="M31.73 11.39C31.69 11.39 31.65 11.41 31.62 11.44C31.59 11.47 31.57 11.51 31.57 11.55C31.57 11.6 31.59 11.63 31.62 11.66C31.65 11.7 31.69 11.71 31.73 11.71C31.78 11.71 31.81 11.7 31.85 11.66C31.87 11.63 31.89 11.6 31.89 11.55C31.89 11.51 31.87 11.47 31.85 11.44C31.81 11.41 31.78 11.39 31.73 11.39Z" fill="#FFFFFF" fill-opacity="1.000000" fill-rule="nonzero"/>
	<path d="M33.32 11.39C33.27 11.39 33.24 11.41 33.21 11.44C33.18 11.47 33.16 11.51 33.16 11.55C33.16 11.6 33.18 11.63 33.21 11.66C33.24 11.7 33.27 11.71 33.32 11.71C33.36 11.71 33.4 11.7 33.43 11.66C33.46 11.63 33.48 11.6 33.48 11.55C33.48 11.51 33.46 11.47 33.43 11.44C33.4 11.41 33.36 11.39 33.32 11.39Z" fill="#FFFFFF" fill-opacity="1.000000" fill-rule="nonzero"/>
	<path d="M31.03 13.79C31 13.78 30.97 13.77 30.94 13.77C30.91 13.77 30.89 13.77 30.86 13.79C30.84 13.8 30.82 13.82 30.81 13.84C30.79 13.86 30.78 13.88 30.78 13.91C30.78 13.94 30.78 13.96 30.79 13.99C30.81 14.03 30.85 14.06 30.89 14.08C30.94 14.09 30.99 14.08 31.03 14.06C31.05 14.04 31.07 14.02 31.09 13.99C31.09 13.97 31.1 13.95 31.1 13.93C31.1 13.89 31.09 13.86 31.07 13.84C31.06 13.82 31.05 13.81 31.03 13.79Z" fill="#FFFFFF" fill-opacity="1.000000" fill-rule="nonzero"/>
	<path d="M31.03 12.21C31 12.19 30.97 12.18 30.94 12.18C30.91 12.18 30.89 12.19 30.87 12.2C30.84 12.21 30.82 12.23 30.81 12.25C30.79 12.27 30.78 12.29 30.78 12.32C30.78 12.35 30.78 12.37 30.78 12.4C30.79 12.42 30.81 12.44 30.83 12.46C30.84 12.48 30.87 12.49 30.89 12.5C30.91 12.51 30.94 12.51 30.97 12.5C30.99 12.5 31.01 12.49 31.03 12.47C31.06 12.46 31.07 12.44 31.08 12.41C31.09 12.39 31.1 12.37 31.1 12.34C31.1 12.31 31.09 12.29 31.08 12.27C31.07 12.25 31.05 12.23 31.03 12.21Z" fill="#FFFFFF" fill-opacity="1.000000" fill-rule="nonzero"/>
	<path d="M32.53 16.93C32.48 16.93 32.44 16.95 32.41 16.98C32.38 17.01 32.37 17.05 32.37 17.09C32.37 17.13 32.38 17.17 32.41 17.2C32.44 17.23 32.48 17.25 32.53 17.25C32.57 17.25 32.61 17.23 32.64 17.2C32.67 17.17 32.68 17.13 32.68 17.09C32.68 17.05 32.67 17.01 32.64 16.98C32.61 16.95 32.57 16.93 32.53 16.93Z" fill="#FFFFFF" fill-opacity="1.000000" fill-rule="nonzero"/>
	<path d="M32.53 15.35C32.48 15.35 32.44 15.37 32.41 15.4C32.38 15.43 32.37 15.46 32.37 15.51C32.37 15.55 32.38 15.59 32.41 15.62C32.44 15.65 32.48 15.67 32.53 15.67C32.57 15.67 32.61 15.65 32.64 15.62C32.67 15.59 32.68 15.55 32.68 15.51C32.68 15.46 32.67 15.43 32.64 15.4C32.61 15.37 32.57 15.35 32.53 15.35Z" fill="#FFFFFF" fill-opacity="1.000000" fill-rule="nonzero"/>
	<path d="M31.73 16.14C31.69 16.14 31.65 16.16 31.62 16.19C31.59 16.22 31.57 16.25 31.57 16.3C31.57 16.34 31.59 16.38 31.62 16.41C31.65 16.44 31.69 16.46 31.73 16.46C31.78 16.46 31.81 16.44 31.85 16.41C31.87 16.38 31.89 16.34 31.89 16.3C31.89 16.25 31.87 16.22 31.85 16.19C31.81 16.16 31.78 16.14 31.73 16.14Z" fill="#FFFFFF" fill-opacity="1.000000" fill-rule="nonzero"/>
	<path d="M33.32 16.14C33.27 16.14 33.24 16.16 33.21 16.19C33.18 16.22 33.16 16.25 33.16 16.3C33.16 16.34 33.18 16.38 33.21 16.41C33.24 16.44 33.27 16.46 33.32 16.46C33.36 16.46 33.4 16.44 33.43 16.41C33.46 16.38 33.48 16.34 33.48 16.3C33.48 16.25 33.46 16.22 33.43 16.19C33.4 16.16 33.36 16.14 33.32 16.14Z" fill="#FFFFFF" fill-opacity="1.000000" fill-rule="nonzero"/>
	<path d="M31.73 14.56C31.69 14.56 31.65 14.57 31.62 14.61C31.59 14.64 31.57 14.67 31.57 14.72C31.57 14.76 31.59 14.8 31.62 14.83C31.65 14.86 31.69 14.87 31.73 14.87C31.78 14.87 31.81 14.86 31.85 14.83C31.87 14.8 31.89 14.76 31.89 14.72C31.89 14.67 31.87 14.64 31.85 14.61C31.81 14.57 31.78 14.56 31.73 14.56Z" fill="#FFFFFF" fill-opacity="1.000000" fill-rule="nonzero"/>
	<path d="M33.32 14.56C33.27 14.56 33.24 14.57 33.21 14.61C33.18 14.64 33.16 14.67 33.16 14.72C33.16 14.76 33.18 14.8 33.21 14.83C33.24 14.86 33.27 14.87 33.32 14.87C33.36 14.87 33.4 14.86 33.43 14.83C33.46 14.8 33.48 14.76 33.48 14.72C33.48 14.67 33.46 14.64 33.43 14.61C33.4 14.57 33.36 14.56 33.32 14.56Z" fill="#FFFFFF" fill-opacity="1.000000" fill-rule="nonzero"/>
	<path d="M31.03 16.96C31 16.94 30.97 16.93 30.94 16.93C30.91 16.93 30.89 16.94 30.87 16.95C30.84 16.96 30.82 16.98 30.81 17C30.79 17.02 30.78 17.04 30.78 17.07C30.78 17.09 30.78 17.12 30.78 17.14C30.79 17.17 30.81 17.19 30.83 17.21C30.84 17.23 30.87 17.24 30.89 17.25C30.91 17.25 30.94 17.26 30.97 17.25C30.99 17.25 31.01 17.24 31.03 17.22C31.06 17.2 31.07 17.19 31.08 17.16C31.09 17.14 31.1 17.12 31.1 17.09C31.1 17.06 31.09 17.04 31.08 17.02C31.07 16.99 31.05 16.97 31.03 16.96Z" fill="#FFFFFF" fill-opacity="1.000000" fill-rule="nonzero"/>
	<path d="M31.03 15.38C31 15.36 30.97 15.35 30.94 15.35C30.91 15.35 30.89 15.36 30.87 15.37C30.84 15.38 30.82 15.4 30.81 15.42C30.79 15.44 30.78 15.46 30.78 15.49C30.78 15.51 30.78 15.54 30.78 15.56C30.79 15.58 30.81 15.61 30.83 15.63C30.84 15.64 30.87 15.66 30.89 15.66C30.91 15.67 30.94 15.67 30.97 15.67C30.99 15.66 31.01 15.65 31.03 15.64C31.06 15.62 31.07 15.6 31.08 15.58C31.09 15.56 31.1 15.53 31.1 15.51C31.1 15.48 31.09 15.46 31.08 15.43C31.07 15.41 31.05 15.39 31.03 15.38Z" fill="#FFFFFF" fill-opacity="1.000000" fill-rule="nonzero"/>
	<path d="M32.53 20.09C32.47 20.1 32.42 20.12 32.39 20.16C32.36 20.21 32.36 20.26 32.38 20.31C32.41 20.38 32.45 20.41 32.52 20.41C32.59 20.41 32.64 20.38 32.67 20.31C32.68 20.29 32.68 20.27 32.68 20.25C32.68 20.22 32.67 20.19 32.66 20.16C32.62 20.12 32.58 20.1 32.53 20.09Z" fill="#FFFFFF" fill-opacity="1.000000" fill-rule="nonzero"/>
	<path d="M32.53 18.51C32.48 18.51 32.44 18.53 32.41 18.56C32.38 18.59 32.36 18.63 32.36 18.67C32.36 18.72 32.38 18.76 32.41 18.79C32.44 18.82 32.48 18.83 32.52 18.83C32.57 18.83 32.61 18.82 32.64 18.79C32.67 18.75 32.68 18.72 32.68 18.67C32.68 18.63 32.67 18.59 32.64 18.56C32.61 18.53 32.57 18.51 32.53 18.51Z" fill="#FFFFFF" fill-opacity="1.000000" fill-rule="nonzero"/>
	<path d="M31.73 19.31C31.69 19.31 31.65 19.32 31.62 19.35C31.59 19.38 31.57 19.42 31.57 19.46C31.57 19.51 31.59 19.54 31.62 19.58C31.65 19.61 31.69 19.62 31.73 19.62C31.77 19.62 31.81 19.61 31.84 19.58C31.87 19.55 31.89 19.51 31.89 19.47C31.89 19.42 31.88 19.38 31.85 19.35C31.81 19.32 31.78 19.31 31.73 19.31Z" fill="#FFFFFF" fill-opacity="1.000000" fill-rule="nonzero"/>
	<path d="M33.32 19.31C33.27 19.31 33.24 19.32 33.21 19.35C33.18 19.38 33.16 19.42 33.16 19.46C33.16 19.51 33.18 19.54 33.21 19.58C33.24 19.61 33.27 19.62 33.32 19.62C33.36 19.62 33.4 19.61 33.43 19.58C33.46 19.55 33.48 19.51 33.48 19.47C33.48 19.42 33.46 19.38 33.43 19.35C33.4 19.32 33.36 19.31 33.32 19.31Z" fill="#FFFFFF" fill-opacity="1.000000" fill-rule="nonzero"/>
	<path d="M31.73 17.72C31.69 17.72 31.65 17.74 31.62 17.77C31.59 17.8 31.57 17.84 31.57 17.88C31.57 17.92 31.59 17.96 31.62 17.99C31.65 18.02 31.69 18.04 31.73 18.04C31.78 18.04 31.81 18.02 31.85 17.99C31.87 17.96 31.89 17.92 31.89 17.88C31.89 17.84 31.87 17.8 31.85 17.77C31.81 17.74 31.78 17.72 31.73 17.72Z" fill="#FFFFFF" fill-opacity="1.000000" fill-rule="nonzero"/>
	<path d="M33.32 17.72C33.27 17.72 33.24 17.74 33.21 17.77C33.18 17.8 33.16 17.84 33.16 17.88C33.16 17.92 33.18 17.96 33.21 17.99C33.24 18.02 33.27 18.04 33.32 18.04C33.36 18.04 33.4 18.02 33.43 17.99C33.46 17.96 33.48 17.92 33.48 17.88C33.48 17.84 33.46 17.8 33.43 17.77C33.4 17.74 33.36 17.72 33.32 17.72Z" fill="#FFFFFF" fill-opacity="1.000000" fill-rule="nonzero"/>
	<path d="M31.03 20.12C30.99 20.1 30.95 20.09 30.91 20.1C30.86 20.11 30.83 20.13 30.81 20.17C30.78 20.22 30.77 20.26 30.79 20.32C30.81 20.36 30.85 20.39 30.89 20.41C30.94 20.42 30.99 20.41 31.03 20.39C31.05 20.37 31.07 20.35 31.09 20.32C31.09 20.3 31.1 20.28 31.1 20.26C31.1 20.22 31.09 20.19 31.07 20.17C31.06 20.15 31.04 20.14 31.03 20.12Z" fill="#FFFFFF" fill-opacity="1.000000" fill-rule="nonzero"/>
	<path d="M31.03 18.54C31 18.52 30.97 18.51 30.94 18.51C30.9 18.52 30.86 18.54 30.83 18.57C30.81 18.6 30.79 18.63 30.79 18.67C30.79 18.71 30.81 18.75 30.83 18.78C30.86 18.81 30.9 18.83 30.94 18.83C30.97 18.83 31 18.82 31.03 18.8C31.05 18.79 31.07 18.77 31.08 18.75C31.09 18.72 31.1 18.7 31.1 18.67C31.1 18.65 31.09 18.62 31.08 18.6C31.07 18.58 31.05 18.56 31.03 18.54Z" fill="#FFFFFF" fill-opacity="1.000000" fill-rule="nonzero"/>
	<path d="M31.73 20.89C31.69 20.89 31.65 20.9 31.62 20.93C31.59 20.97 31.57 21 31.57 21.05C31.57 21.09 31.59 21.13 31.62 21.16C31.65 21.19 31.69 21.21 31.73 21.21C31.77 21.21 31.81 21.19 31.84 21.16C31.87 21.13 31.89 21.09 31.89 21.05C31.89 21 31.88 20.97 31.85 20.94C31.81 20.9 31.78 20.89 31.73 20.89Z" fill="#FFFFFF" fill-opacity="1.000000" fill-rule="nonzero"/>
	<path d="M33.32 20.89C33.27 20.89 33.24 20.9 33.21 20.93C33.18 20.97 33.16 21 33.16 21.05C33.16 21.09 33.18 21.13 33.21 21.16C33.24 21.19 33.27 21.21 33.32 21.21C33.36 21.21 33.4 21.19 33.43 21.16C33.46 21.13 33.48 21.09 33.48 21.05C33.48 21 33.46 20.97 33.43 20.94C33.4 20.9 33.36 20.89 33.32 20.89Z" fill="#FFFFFF" fill-opacity="1.000000" fill-rule="nonzero"/>
	<path d="M29.35 16.93C29.31 16.93 29.27 16.95 29.24 16.98C29.21 17.01 29.19 17.05 29.19 17.09C29.19 17.13 29.21 17.17 29.24 17.2C29.27 17.23 29.31 17.25 29.35 17.25C29.4 17.25 29.43 17.23 29.47 17.2C29.5 17.17 29.51 17.13 29.51 17.09C29.51 17.05 29.5 17.01 29.47 16.98C29.43 16.95 29.4 16.93 29.35 16.93Z" fill="#FFFFFF" fill-opacity="1.000000" fill-rule="nonzero"/>
	<path d="M29.35 15.35C29.31 15.35 29.27 15.37 29.24 15.4C29.21 15.43 29.19 15.46 29.19 15.51C29.19 15.55 29.21 15.59 29.24 15.62C29.27 15.65 29.31 15.67 29.35 15.67C29.4 15.67 29.43 15.65 29.47 15.62C29.5 15.59 29.51 15.55 29.51 15.51C29.51 15.46 29.5 15.43 29.47 15.4C29.43 15.37 29.4 15.35 29.35 15.35Z" fill="#FFFFFF" fill-opacity="1.000000" fill-rule="nonzero"/>
	<path d="M28.56 16.14C28.52 16.14 28.48 16.16 28.45 16.19C28.42 16.22 28.4 16.25 28.4 16.3C28.4 16.34 28.42 16.38 28.45 16.41C28.48 16.44 28.52 16.46 28.56 16.46C28.6 16.46 28.64 16.44 28.67 16.41C28.7 16.38 28.72 16.34 28.72 16.3C28.72 16.25 28.7 16.22 28.67 16.19C28.64 16.16 28.6 16.14 28.56 16.14Z" fill="#FFFFFF" fill-opacity="1.000000" fill-rule="nonzero"/>
	<path d="M30.15 16.14C30.1 16.14 30.06 16.16 30.03 16.19C30 16.22 29.99 16.25 29.99 16.3C29.99 16.34 30 16.38 30.03 16.41C30.06 16.44 30.1 16.46 30.15 16.46C30.19 16.46 30.23 16.44 30.26 16.41C30.29 16.38 30.3 16.34 30.3 16.3C30.3 16.25 30.29 16.22 30.26 16.19C30.23 16.16 30.19 16.14 30.15 16.14Z" fill="#FFFFFF" fill-opacity="1.000000" fill-rule="nonzero"/>
	<path d="M30.15 14.56C30.1 14.56 30.06 14.57 30.03 14.61C30 14.64 29.99 14.67 29.99 14.72C29.99 14.76 30 14.8 30.03 14.83C30.06 14.86 30.1 14.87 30.15 14.87C30.19 14.87 30.23 14.86 30.26 14.83C30.29 14.8 30.3 14.76 30.3 14.72C30.3 14.67 30.29 14.64 30.26 14.61C30.23 14.57 30.19 14.56 30.15 14.56Z" fill="#FFFFFF" fill-opacity="1.000000" fill-rule="nonzero"/>
	<path d="M29.35 20.09C29.3 20.1 29.25 20.12 29.22 20.16C29.19 20.21 29.19 20.26 29.21 20.31C29.23 20.38 29.28 20.41 29.35 20.41C29.42 20.41 29.47 20.38 29.5 20.31C29.51 20.29 29.51 20.27 29.51 20.25C29.51 20.22 29.5 20.19 29.48 20.16C29.45 20.12 29.41 20.1 29.35 20.09Z" fill="#FFFFFF" fill-opacity="1.000000" fill-rule="nonzero"/>
	<path d="M29.35 18.51C29.31 18.51 29.27 18.53 29.24 18.56C29.21 18.59 29.19 18.63 29.19 18.67C29.19 18.72 29.21 18.76 29.24 18.79C29.27 18.82 29.31 18.83 29.35 18.83C29.4 18.83 29.43 18.82 29.46 18.79C29.5 18.75 29.51 18.72 29.51 18.67C29.51 18.63 29.5 18.59 29.46 18.56C29.43 18.53 29.4 18.51 29.35 18.51Z" fill="#FFFFFF" fill-opacity="1.000000" fill-rule="nonzero"/>
	<path d="M28.56 19.31C28.52 19.31 28.48 19.32 28.45 19.35C28.42 19.38 28.4 19.42 28.4 19.46C28.4 19.51 28.42 19.54 28.45 19.58C28.48 19.61 28.52 19.62 28.56 19.62C28.6 19.62 28.64 19.61 28.67 19.58C28.7 19.55 28.72 19.51 28.72 19.47C28.72 19.42 28.7 19.38 28.67 19.35C28.64 19.32 28.6 19.31 28.56 19.31Z" fill="#FFFFFF" fill-opacity="1.000000" fill-rule="nonzero"/>
	<path d="M30.15 19.31C30.1 19.31 30.06 19.32 30.03 19.35C30 19.38 29.99 19.42 29.99 19.46C29.99 19.51 30 19.54 30.03 19.58C30.06 19.61 30.1 19.62 30.14 19.62C30.19 19.62 30.23 19.61 30.26 19.58C30.29 19.55 30.3 19.51 30.3 19.47C30.3 19.42 30.29 19.38 30.26 19.35C30.23 19.32 30.19 19.31 30.15 19.31Z" fill="#FFFFFF" fill-opacity="1.000000" fill-rule="nonzero"/>
	<path d="M28.56 17.72C28.52 17.72 28.48 17.74 28.45 17.77C28.42 17.8 28.4 17.84 28.4 17.88C28.4 17.92 28.42 17.96 28.45 17.99C28.48 18.02 28.52 18.04 28.56 18.04C28.6 18.04 28.64 18.02 28.67 17.99C28.7 17.96 28.72 17.92 28.72 17.88C28.72 17.84 28.7 17.8 28.67 17.77C28.64 17.74 28.6 17.72 28.56 17.72Z" fill="#FFFFFF" fill-opacity="1.000000" fill-rule="nonzero"/>
	<path d="M30.15 17.72C30.1 17.72 30.06 17.74 30.03 17.77C30 17.8 29.99 17.84 29.99 17.88C29.99 17.92 30 17.96 30.03 17.99C30.06 18.02 30.1 18.04 30.15 18.04C30.19 18.04 30.23 18.02 30.26 17.99C30.29 17.96 30.3 17.92 30.3 17.88C30.3 17.84 30.29 17.8 30.26 17.77C30.23 17.74 30.19 17.72 30.15 17.72Z" fill="#FFFFFF" fill-opacity="1.000000" fill-rule="nonzero"/>
	<path d="M27.8 20.09C27.79 20.09 27.78 20.09 27.77 20.09C27.74 20.1 27.71 20.1 27.69 20.11C27.67 20.13 27.65 20.14 27.63 20.17C27.62 20.19 27.61 20.21 27.61 20.24C27.61 20.27 27.61 20.29 27.62 20.31C27.64 20.36 27.67 20.38 27.7 20.4C27.72 20.41 27.75 20.41 27.77 20.41C27.78 20.41 27.79 20.41 27.8 20.41C27.85 20.4 27.89 20.37 27.91 20.32C27.92 20.3 27.92 20.28 27.92 20.26C27.92 20.22 27.91 20.2 27.89 20.17C27.87 20.13 27.84 20.11 27.8 20.09Z" fill="#FFFFFF" fill-opacity="1.000000" fill-rule="nonzero"/>
	<path d="M27.8 18.52C27.79 18.52 27.78 18.52 27.77 18.52C27.75 18.52 27.72 18.52 27.7 18.53C27.64 18.56 27.61 18.61 27.61 18.68C27.61 18.75 27.64 18.8 27.7 18.82C27.72 18.83 27.75 18.84 27.77 18.84C27.78 18.84 27.79 18.84 27.8 18.84C27.88 18.82 27.92 18.77 27.92 18.68C27.92 18.6 27.88 18.54 27.8 18.53L27.8 18.52Z" fill="#FFFFFF" fill-opacity="1.000000" fill-rule="nonzero"/>
	<path d="M28.56 20.89C28.52 20.89 28.48 20.9 28.45 20.93C28.42 20.97 28.4 21 28.4 21.05C28.4 21.09 28.42 21.13 28.45 21.16C28.48 21.19 28.52 21.21 28.56 21.21C28.6 21.21 28.64 21.19 28.67 21.16C28.7 21.13 28.72 21.09 28.72 21.05C28.72 21 28.7 20.97 28.67 20.94C28.64 20.9 28.6 20.89 28.56 20.89Z" fill="#FFFFFF" fill-opacity="1.000000" fill-rule="nonzero"/>
	<path d="M30.15 20.89C30.1 20.89 30.06 20.9 30.03 20.93C30 20.97 29.99 21 29.99 21.05C29.99 21.09 30 21.13 30.03 21.16C30.06 21.19 30.1 21.21 30.14 21.21C30.19 21.21 30.23 21.19 30.26 21.16C30.29 21.13 30.3 21.09 30.3 21.05C30.3 21 30.29 20.97 30.26 20.94C30.23 20.9 30.19 20.89 30.15 20.89Z" fill="#FFFFFF" fill-opacity="1.000000" fill-rule="nonzero"/>
	<path d="M26.97 19.31C26.93 19.31 26.89 19.32 26.86 19.35C26.83 19.38 26.81 19.42 26.81 19.46C26.81 19.51 26.83 19.54 26.86 19.58C26.89 19.61 26.93 19.62 26.97 19.62C27.02 19.62 27.05 19.61 27.09 19.58C27.12 19.55 27.13 19.51 27.13 19.47C27.13 19.42 27.12 19.38 27.09 19.35C27.06 19.32 27.02 19.31 26.97 19.31Z" fill="#FFFFFF" fill-opacity="1.000000" fill-rule="nonzero"/>
	<path d="M26.97 20.89C26.93 20.89 26.89 20.9 26.86 20.93C26.83 20.97 26.81 21 26.81 21.05C26.81 21.09 26.83 21.13 26.86 21.16C26.89 21.19 26.93 21.21 26.97 21.21C27.02 21.21 27.05 21.19 27.09 21.16C27.12 21.13 27.13 21.09 27.13 21.05C27.13 21 27.12 20.97 27.09 20.94C27.06 20.9 27.02 20.89 26.97 20.89Z" fill="#FFFFFF" fill-opacity="1.000000" fill-rule="nonzero"/>
</svg>
