<svg width="50.000000" height="65.256836" viewBox="0 0 50 65.2568" fill="none" xmlns="http://www.w3.org/2000/svg" xmlns:xlink="http://www.w3.org/1999/xlink">
	<desc>
			Created with Pixso.
	</desc>
	<defs/>
	<path d="M49.98 32.72C49.98 32.72 49.98 32.71 49.98 32.71C49.99 32.68 49.99 32.66 50 32.63C49.99 32.6 49.99 32.57 49.98 32.55C49.98 32.54 49.98 32.54 49.98 32.53C49.97 32.51 49.96 32.48 49.95 32.46L25.22 0.1L25.21 0.09C25.2 0.08 25.19 0.07 25.18 0.06C25.13 0.02 25.07 0 25 0C24.94 0 24.88 0.02 24.82 0.06C24.81 0.07 24.8 0.08 24.79 0.09L24.78 0.1L0.05 32.46C0.04 32.48 0.02 32.5 0.02 32.53C0.02 32.53 0.02 32.54 0.02 32.54C0.01 32.57 0 32.59 0 32.62L0 32.62C0 32.65 0 32.68 0.01 32.7C0.01 32.71 0.01 32.71 0.01 32.72C0.02 32.75 0.03 32.77 0.04 32.79L24.76 65.15C24.77 65.15 24.77 65.15 24.77 65.16L24.8 65.18L24.82 65.2C24.83 65.21 24.84 65.21 24.85 65.22L24.87 65.23L24.91 65.24L24.93 65.24C24.97 65.25 25.01 65.25 25.05 65.24L25.06 65.24L25.1 65.23L25.12 65.22C25.13 65.21 25.14 65.21 25.16 65.2L25.17 65.18L25.2 65.16C25.2 65.15 25.21 65.15 25.21 65.15L49.93 32.79C49.95 32.77 49.97 32.75 49.98 32.72ZM25.28 25.8L44.15 25.8L46.87 29.36L25.28 29.36L25.28 25.8ZM25.28 25.24L25.28 21.68L41 21.68L43.71 25.24L25.28 25.24ZM25.28 21.11L25.28 17.56L37.85 17.56L40.57 21.11L25.28 21.11ZM25.28 16.99L25.28 13.43L34.69 13.43L37.41 16.99L25.28 16.99ZM25.28 12.87L25.28 9.31L31.54 9.31L34.26 12.87L25.28 12.87ZM25.28 8.74L25.28 5.19L28.39 5.19L31.11 8.74L25.28 8.74ZM25.28 4.62L25.28 1.11L27.96 4.62L25.28 4.62ZM24.71 32.34L0.85 32.34L24.71 1.11L24.71 32.34ZM25.28 32.91L49.15 32.91L25.28 64.15L25.28 32.91ZM25.28 32.34L25.28 29.93L47.3 29.93L49.15 32.34L25.28 32.34Z" fill="#FFFFFF" fill-opacity="1.000000" fill-rule="nonzero"/>
</svg>
