<svg width="50.000000" height="51.943359" viewBox="0 0 50 51.9434" fill="none" xmlns="http://www.w3.org/2000/svg" xmlns:xlink="http://www.w3.org/1999/xlink">
	<desc>
			Created with Pixso.
	</desc>
	<defs/>
	<path d="M50 26.94C50 40.72 38.78 51.94 25 51.94C11.21 51.94 0 40.72 0 26.94C0 26.87 0.02 26.8 0.07 26.75C0.13 26.7 0.19 26.67 0.26 26.67L49.73 26.67C49.8 26.67 49.86 26.7 49.92 26.75C49.97 26.8 50 26.87 50 26.94ZM0 25C0 11.21 11.21 0 24.99 0C38.78 0 50 11.21 50 25C50 25.07 49.97 25.13 49.92 25.18C49.86 25.24 49.8 25.26 49.73 25.26L0.26 25.26C0.19 25.26 0.13 25.24 0.07 25.18C0.02 25.13 0 25.07 0 25ZM47.94 24.73L49.46 24.73C49.43 21.89 48.92 19.15 47.94 16.49L47.94 24.73ZM43.41 24.73L47.4 24.73L47.4 15.18C46.39 12.88 45.06 10.78 43.41 8.89L43.41 24.73ZM38.87 24.73L42.87 24.73L42.87 8.31C41.66 7.01 40.33 5.86 38.87 4.85L38.87 24.73ZM34.34 24.73L38.34 24.73L38.34 4.49C37.07 3.67 35.74 2.96 34.34 2.38L34.34 24.73ZM29.81 24.73L33.81 24.73L33.81 2.17C32.51 1.66 31.17 1.28 29.81 1L29.81 24.73ZM25.28 24.73L29.27 24.73L29.27 0.9C27.95 0.67 26.62 0.54 25.28 0.53L25.28 24.73ZM0.53 24.73L24.73 24.73L24.73 0.53C11.45 0.67 0.67 11.45 0.53 24.73Z" fill="#FFFFFF" fill-opacity="1.000000" fill-rule="nonzero"/>
</svg>
