<svg width="64.999023" height="65.000000" viewBox="0 0 64.999 65" fill="none" xmlns="http://www.w3.org/2000/svg" xmlns:xlink="http://www.w3.org/1999/xlink">
	<desc>
			Created with Pixso.
	</desc>
	<defs/>
	<path d="M32.49 65C23.82 65 15.65 61.62 9.52 55.47C3.37 49.34 0 41.17 0 32.5C0 23.82 3.37 15.65 9.52 9.52C15.65 3.37 23.82 0 32.49 0C41.17 0 49.34 3.37 55.47 9.52C61.62 15.66 64.99 23.82 64.99 32.5C64.99 41.17 61.62 49.34 55.47 55.47C49.34 61.62 41.17 65 32.49 65ZM32.49 1.94C24.34 1.94 16.66 5.13 10.89 10.89C5.13 16.66 1.94 24.34 1.94 32.5C1.94 40.65 5.13 48.33 10.89 54.1C16.66 59.86 24.34 63.05 32.49 63.05C40.65 63.05 48.33 59.86 54.1 54.1C59.86 48.33 63.05 40.65 63.05 32.5C63.05 24.34 59.86 16.66 54.1 10.89C48.33 5.13 40.65 1.94 32.49 1.94Z" fill="#FFFFFF" fill-opacity="1.000000" fill-rule="nonzero"/>
	<path d="M39.14 18.41C39.01 18.29 38.81 18.3 38.68 18.43L36.05 21.27L35.87 21.1L38.5 18.26C38.63 18.13 38.62 17.92 38.49 17.8C38.36 17.68 38.15 17.69 38.03 17.82L35.39 20.66L35.22 20.5L37.85 17.65C37.97 17.52 37.96 17.32 37.83 17.2C37.7 17.07 37.5 17.08 37.37 17.21L34.74 20.05L34.56 19.89L37.19 17.05C37.32 16.91 37.31 16.71 37.18 16.59C37.04 16.47 36.84 16.47 36.72 16.61L34.09 19.45L34.08 19.45L34 19.53C33.93 19.61 33.86 19.69 33.8 19.77L33.8 19.78C33.58 20.08 33.45 20.39 33.45 20.76C33.45 21.15 33.59 21.51 33.84 21.81C33.67 21.99 32.93 22.71 32.04 23.58C30.97 22.44 30.03 21.44 29.84 21.22C30.11 20.91 30.27 20.53 30.29 20.12C30.31 19.73 30.19 19.39 29.97 19.06L29.97 19.06L29.97 19.06C29.91 18.97 29.85 18.88 29.77 18.79L29.69 18.7L29.69 18.7L29.37 18.36C27.59 16.81 26.7 16.67 26.18 17.12C25.58 17.64 25.37 18.54 26.73 20.62L27.03 21.02L27.03 21.02L27.06 21.06C27.43 21.5 27.78 21.75 28.28 21.82C28.67 21.86 29.05 21.78 29.38 21.58C29.57 21.82 30.43 22.94 31.39 24.2C30.07 25.48 28.64 26.86 28.27 27.23C28.01 27.47 27.87 27.64 27.87 27.64C27.62 27.91 27.64 28.34 27.91 28.6C28.18 28.85 28.61 28.84 28.86 28.56C28.86 28.56 29.04 28.37 29.2 28.19L29.2 28.19C29.43 27.93 30.72 26.38 31.94 24.92C33.08 26.43 34.22 27.93 34.43 28.2L34.43 28.2C34.59 28.4 34.77 28.61 34.77 28.61C35.02 28.91 35.47 28.95 35.78 28.69C36.08 28.44 36.12 27.99 35.87 27.69C35.87 27.69 35.72 27.5 35.46 27.22C35.11 26.84 33.83 25.49 32.58 24.16C33.4 23.18 34.08 22.36 34.25 22.18C34.55 22.38 34.91 22.47 35.27 22.45C35.75 22.41 36.09 22.19 36.45 21.79L36.48 21.75L36.49 21.75L39.16 18.87C39.28 18.74 39.27 18.53 39.14 18.41Z" fill="#FFFFFF" fill-opacity="1.000000" fill-rule="nonzero"/>
	<path d="M22.83 32.8C23.49 32.8 24.07 32.97 24.57 33.29L24.15 34.17C23.92 34.03 23.67 33.92 23.4 33.84C23.14 33.75 22.92 33.71 22.74 33.71C22.41 33.71 22.25 33.82 22.25 34.03C22.25 34.17 22.33 34.28 22.49 34.36C22.65 34.45 22.84 34.52 23.07 34.58C23.3 34.64 23.53 34.71 23.76 34.8C23.99 34.89 24.18 35.03 24.34 35.22C24.5 35.41 24.58 35.66 24.58 35.95C24.58 36.37 24.41 36.7 24.08 36.94C23.75 37.17 23.33 37.29 22.82 37.29C22.45 37.29 22.09 37.23 21.74 37.11C21.38 36.98 21.07 36.81 20.81 36.59L21.24 35.73C21.46 35.92 21.73 36.08 22.03 36.2C22.33 36.33 22.6 36.39 22.83 36.39C23.01 36.39 23.15 36.36 23.25 36.29C23.35 36.22 23.4 36.13 23.4 36.01C23.4 35.88 23.35 35.78 23.23 35.7C23.12 35.62 22.97 35.56 22.8 35.52C22.63 35.48 22.44 35.42 22.24 35.36C22.04 35.29 21.85 35.22 21.68 35.14C21.51 35.06 21.37 34.93 21.25 34.75C21.13 34.58 21.08 34.37 21.08 34.13C21.08 33.73 21.24 33.41 21.56 33.17C21.88 32.92 22.3 32.8 22.83 32.8Z" fill="#FFFFFF" fill-opacity="1.000000" fill-rule="nonzero"/>
	<path d="M29.59 32.85L29.59 35.41C29.59 35.99 29.41 36.45 29.05 36.79C28.69 37.14 28.2 37.31 27.58 37.31C26.96 37.31 26.47 37.14 26.1 36.79C25.74 36.45 25.56 35.99 25.56 35.41L25.56 32.85L26.67 32.85L26.67 35.41C26.67 35.7 26.76 35.93 26.93 36.11C27.1 36.28 27.32 36.37 27.59 36.37C27.86 36.37 28.07 36.28 28.24 36.11C28.4 35.94 28.48 35.7 28.48 35.41L28.48 32.85L29.59 32.85Z" fill="#FFFFFF" fill-opacity="1.000000" fill-rule="nonzero"/>
	<path d="M30.84 32.85L32.75 32.85C33.32 32.85 33.75 32.99 34.06 33.25C34.37 33.52 34.53 33.9 34.53 34.39C34.53 34.9 34.37 35.3 34.06 35.59C33.75 35.87 33.32 36.02 32.75 36.02L31.95 36.02L31.95 37.26L30.84 37.26L30.84 32.85ZM31.95 33.74L31.95 35.14L32.7 35.14C32.94 35.14 33.13 35.08 33.27 34.96C33.4 34.83 33.47 34.66 33.47 34.43C33.47 34.2 33.4 34.03 33.27 33.91C33.13 33.79 32.94 33.74 32.7 33.74L31.95 33.74Z" fill="#FFFFFF" fill-opacity="1.000000" fill-rule="nonzero"/>
	<path d="M39 33.74L36.67 33.74L36.67 34.61L38.77 34.61L38.77 35.49L36.67 35.49L36.67 36.37L39.06 36.37L39.06 37.26L35.55 37.26L35.55 32.85L39 32.85L39 33.74Z" fill="#FFFFFF" fill-opacity="1.000000" fill-rule="nonzero"/>
	<path d="M42.88 37.26L42.23 36.02L41.35 36.02L41.35 37.26L40.23 37.26L40.23 32.85L42.2 32.85C42.78 32.85 43.23 32.99 43.55 33.25C43.87 33.52 44.03 33.9 44.03 34.39C44.03 35.07 43.76 35.54 43.23 35.8L44.15 37.26L42.88 37.26ZM41.35 35.14L42.2 35.14C42.44 35.14 42.63 35.08 42.76 34.96C42.9 34.83 42.96 34.66 42.96 34.43C42.96 34.2 42.9 34.03 42.76 33.91C42.63 33.79 42.44 33.74 42.2 33.74L41.35 33.74L41.35 35.14Z" fill="#FFFFFF" fill-opacity="1.000000" fill-rule="nonzero"/>
	<path d="M26.19 41.05L24.05 41.05L24.05 42.07L26.02 42.07L26.02 42.95L24.05 42.95L24.05 44.57L22.93 44.57L22.93 40.17L26.19 40.17L26.19 41.05Z" fill="#FFFFFF" fill-opacity="1.000000" fill-rule="nonzero"/>
	<path d="M29.26 40.14C29.94 40.14 30.51 40.35 30.96 40.77C31.41 41.2 31.64 41.73 31.64 42.37C31.64 43.01 31.41 43.55 30.96 43.98C30.5 44.41 29.93 44.62 29.26 44.62C28.58 44.62 28.01 44.41 27.56 43.98C27.11 43.55 26.88 43.01 26.88 42.37C26.88 41.73 27.11 41.2 27.56 40.77C28.01 40.35 28.58 40.14 29.26 40.14ZM29.27 41.07C28.93 41.07 28.63 41.2 28.39 41.45C28.14 41.7 28.02 42 28.02 42.37C28.02 42.74 28.14 43.05 28.39 43.31C28.63 43.56 28.93 43.69 29.27 43.69C29.61 43.69 29.9 43.56 30.13 43.31C30.37 43.05 30.49 42.74 30.49 42.37C30.49 42 30.37 41.7 30.13 41.45C29.9 41.2 29.61 41.07 29.27 41.07Z" fill="#FFFFFF" fill-opacity="1.000000" fill-rule="nonzero"/>
	<path d="M34.75 40.14C35.44 40.14 36.01 40.35 36.46 40.77C36.91 41.2 37.14 41.73 37.14 42.37C37.14 43.01 36.91 43.55 36.46 43.98C36 44.41 35.43 44.62 34.75 44.62C34.07 44.62 33.51 44.41 33.06 43.98C32.6 43.55 32.38 43.01 32.38 42.37C32.38 41.73 32.6 41.2 33.06 40.77C33.51 40.35 34.07 40.14 34.75 40.14ZM34.77 41.07C34.42 41.07 34.13 41.2 33.89 41.45C33.64 41.7 33.52 42 33.52 42.37C33.52 42.74 33.64 43.05 33.89 43.31C34.13 43.56 34.43 43.69 34.77 43.69C35.11 43.69 35.4 43.56 35.63 43.31C35.87 43.05 35.99 42.74 35.99 42.37C35.99 42 35.87 41.7 35.63 41.45C35.4 41.2 35.11 41.07 34.77 41.07Z" fill="#FFFFFF" fill-opacity="1.000000" fill-rule="nonzero"/>
	<path d="M38.17 40.17L40.06 40.17C40.75 40.17 41.32 40.38 41.75 40.78C42.18 41.19 42.4 41.72 42.4 42.37C42.4 43.02 42.18 43.55 41.74 43.96C41.3 44.37 40.73 44.57 40.02 44.57L38.17 44.57L38.17 40.17ZM39.29 41.06L39.29 43.68L40.09 43.68C40.43 43.68 40.71 43.56 40.93 43.32C41.15 43.08 41.26 42.77 41.26 42.38C41.26 42 41.15 41.68 40.92 41.43C40.69 41.19 40.39 41.06 40.04 41.06L39.29 41.06Z" fill="#FFFFFF" fill-opacity="1.000000" fill-rule="nonzero"/>
	<path d="M26.62 48.34C26.85 48.34 27.07 48.4 27.25 48.53L27.13 48.8C26.94 48.68 26.76 48.63 26.59 48.63C26.5 48.63 26.43 48.64 26.38 48.68C26.32 48.71 26.3 48.76 26.3 48.82C26.3 48.88 26.32 48.93 26.37 48.97C26.42 49.01 26.48 49.04 26.55 49.06C26.62 49.08 26.7 49.11 26.79 49.14C26.87 49.17 26.95 49.2 27.03 49.24C27.1 49.27 27.16 49.32 27.21 49.4C27.25 49.47 27.28 49.56 27.28 49.66C27.28 49.82 27.21 49.95 27.08 50.04C26.96 50.13 26.79 50.18 26.59 50.18C26.45 50.18 26.32 50.16 26.19 50.1C26.06 50.05 25.94 49.98 25.85 49.89L25.98 49.63C26.07 49.71 26.17 49.78 26.28 49.83C26.39 49.87 26.5 49.89 26.6 49.89C26.71 49.89 26.79 49.87 26.85 49.84C26.91 49.8 26.94 49.74 26.94 49.67C26.94 49.61 26.91 49.56 26.86 49.51C26.82 49.47 26.76 49.44 26.68 49.42C26.61 49.4 26.53 49.38 26.44 49.35C26.36 49.32 26.28 49.29 26.21 49.26C26.13 49.23 26.07 49.17 26.02 49.1C25.98 49.03 25.95 48.95 25.95 48.84C25.95 48.69 26.01 48.57 26.14 48.48C26.26 48.39 26.42 48.34 26.62 48.34Z" fill="#FFFFFF" fill-opacity="1.000000" fill-rule="nonzero"/>
	<path d="M29.12 48.63L28.12 48.63L28.12 49.12L29.02 49.12L29.02 49.39L28.12 49.39L28.12 49.9L29.15 49.9L29.15 50.17L27.82 50.17L27.82 48.35L29.12 48.35L29.12 48.63Z" fill="#FFFFFF" fill-opacity="1.000000" fill-rule="nonzero"/>
	<path d="M30.01 50.17L29.71 50.17L29.71 48.35L30.01 48.35L30.01 50.17Z" fill="#FFFFFF" fill-opacity="1.000000" fill-rule="nonzero"/>
	<path d="M31.92 48.63L31.34 48.63L31.34 50.17L31.04 50.17L31.04 48.63L30.46 48.63L30.46 48.35L31.92 48.35L31.92 48.63Z" fill="#FFFFFF" fill-opacity="1.000000" fill-rule="nonzero"/>
	<path d="M33.68 50.17L33.37 50.17L33.37 48.62L33.01 48.62L33.01 48.35L33.68 48.35L33.68 50.17Z" fill="#FFFFFF" fill-opacity="1.000000" fill-rule="nonzero"/>
	<path d="M34.87 50.19C34.67 50.19 34.49 50.14 34.33 50.05L34.45 49.82C34.56 49.89 34.7 49.93 34.85 49.93C35.02 49.93 35.15 49.87 35.24 49.75C35.32 49.64 35.36 49.47 35.36 49.27C35.26 49.44 35.1 49.53 34.86 49.53C34.68 49.53 34.53 49.48 34.43 49.37C34.33 49.27 34.28 49.12 34.28 48.95C34.28 48.76 34.33 48.61 34.45 48.5C34.56 48.39 34.72 48.34 34.92 48.34C35.15 48.34 35.33 48.42 35.46 48.57C35.59 48.73 35.66 48.95 35.66 49.22C35.66 49.51 35.59 49.75 35.44 49.92C35.3 50.1 35.11 50.19 34.87 50.19ZM34.92 49.29C35.04 49.29 35.13 49.25 35.2 49.19C35.28 49.12 35.31 49.04 35.31 48.94C35.31 48.85 35.28 48.78 35.21 48.71C35.15 48.64 35.05 48.6 34.93 48.6C34.82 48.6 34.73 48.63 34.66 48.69C34.6 48.76 34.56 48.84 34.56 48.95C34.56 49.06 34.59 49.14 34.66 49.2C34.72 49.26 34.81 49.29 34.92 49.29Z" fill="#FFFFFF" fill-opacity="1.000000" fill-rule="nonzero"/>
	<path d="M36.65 50.19C36.46 50.19 36.28 50.14 36.11 50.05L36.23 49.82C36.35 49.89 36.48 49.93 36.63 49.93C36.81 49.93 36.93 49.87 37.02 49.75C37.11 49.64 37.15 49.47 37.14 49.27C37.05 49.44 36.88 49.53 36.64 49.53C36.46 49.53 36.32 49.48 36.21 49.37C36.11 49.27 36.06 49.12 36.06 48.95C36.06 48.76 36.12 48.61 36.23 48.5C36.35 48.39 36.5 48.34 36.7 48.34C36.93 48.34 37.11 48.42 37.24 48.57C37.37 48.73 37.44 48.95 37.44 49.22C37.44 49.51 37.37 49.75 37.23 49.92C37.08 50.1 36.89 50.19 36.65 50.19ZM36.7 49.29C36.82 49.29 36.92 49.25 36.99 49.19C37.06 49.12 37.09 49.04 37.09 48.94C37.09 48.85 37.06 48.78 37 48.71C36.93 48.64 36.84 48.6 36.72 48.6C36.6 48.6 36.51 48.63 36.44 48.69C36.38 48.76 36.35 48.84 36.35 48.95C36.35 49.06 36.38 49.14 36.44 49.2C36.5 49.26 36.59 49.29 36.7 49.29Z" fill="#FFFFFF" fill-opacity="1.000000" fill-rule="nonzero"/>
	<path d="M38.48 48.34C38.66 48.34 38.8 48.38 38.9 48.46C39.01 48.55 39.06 48.66 39.06 48.8C39.06 48.96 38.95 49.15 38.73 49.39L38.25 49.9L39.15 49.9L39.15 50.17L37.85 50.17L37.85 49.95L38.52 49.23C38.67 49.08 38.74 48.95 38.74 48.84C38.74 48.77 38.72 48.71 38.66 48.67C38.61 48.63 38.53 48.61 38.44 48.61C38.27 48.61 38.11 48.68 37.94 48.83L37.82 48.6C38.03 48.42 38.25 48.34 38.48 48.34Z" fill="#FFFFFF" fill-opacity="1.000000" fill-rule="nonzero"/>
</svg>
