<svg width="74.435059" height="65.000000" viewBox="0 0 74.4351 65" fill="none" xmlns="http://www.w3.org/2000/svg" xmlns:xlink="http://www.w3.org/1999/xlink">
	<desc>
			Created with Pixso.
	</desc>
	<defs/>
	<path d="M1.82 64.91L0 64.91L0 57.74L1.82 57.74L1.82 64.91Z" fill="#FFFFFF" fill-opacity="1.000000" fill-rule="nonzero"/>
	<path d="M12.22 64.91L10.61 64.91L7.32 60.5L7.32 64.91L5.61 64.91L5.61 57.74L7.22 57.74L10.52 62.16L10.52 57.74L12.22 57.74L12.22 64.91Z" fill="#FFFFFF" fill-opacity="1.000000" fill-rule="nonzero"/>
	<path d="M28.61 64.91L27 64.91L26.99 60.26L25.27 64.2L24.08 64.2L22.37 60.26L22.37 64.91L20.73 64.91L20.73 57.73L22.74 57.73L24.68 62L26.62 57.73L28.61 57.73L28.61 64.91Z" fill="#FFFFFF" fill-opacity="1.000000" fill-rule="nonzero"/>
	<path d="M35.81 57.68C36.92 57.68 37.84 58.03 38.58 58.72C39.32 59.41 39.69 60.28 39.69 61.31C39.69 62.36 39.32 63.24 38.58 63.94C37.83 64.65 36.91 65 35.8 65C34.7 65 33.78 64.65 33.04 63.94C32.3 63.25 31.94 62.37 31.94 61.31C31.94 60.27 32.3 59.41 33.04 58.72C33.78 58.03 34.7 57.68 35.81 57.68ZM35.82 59.21C35.27 59.21 34.79 59.41 34.39 59.82C33.99 60.22 33.8 60.73 33.8 61.33C33.8 61.93 34 62.43 34.4 62.85C34.8 63.26 35.27 63.47 35.82 63.47C36.37 63.47 36.84 63.26 37.23 62.85C37.61 62.43 37.81 61.93 37.81 61.33C37.81 60.73 37.61 60.22 37.23 59.82C36.84 59.41 36.37 59.21 35.82 59.21Z" fill="#FFFFFF" fill-opacity="1.000000" fill-rule="nonzero"/>
	<path d="M48.48 59.21L46.32 59.21L46.32 64.91L44.5 64.91L44.5 59.21L42.36 59.21L42.36 57.73L48.48 57.73L48.48 59.21Z" fill="#FFFFFF" fill-opacity="1.000000" fill-rule="nonzero"/>
	<path d="M53.43 64.91L51.61 64.91L51.61 57.74L53.43 57.74L53.43 64.91Z" fill="#FFFFFF" fill-opacity="1.000000" fill-rule="nonzero"/>
	<path d="M60.62 57.68C61.73 57.68 62.65 58.03 63.39 58.72C64.13 59.41 64.5 60.28 64.5 61.31C64.5 62.36 64.13 63.24 63.39 63.94C62.65 64.65 61.72 65 60.61 65C59.51 65 58.59 64.65 57.85 63.94C57.12 63.25 56.75 62.37 56.75 61.31C56.75 60.27 57.12 59.41 57.85 58.72C58.59 58.03 59.51 57.68 60.62 57.68ZM60.64 59.21C60.08 59.21 59.6 59.41 59.2 59.82C58.81 60.22 58.61 60.73 58.61 61.33C58.61 61.93 58.81 62.43 59.21 62.85C59.61 63.26 60.08 63.47 60.64 63.47C61.19 63.47 61.66 63.26 62.04 62.85C62.43 62.43 62.62 61.93 62.62 61.33C62.62 60.73 62.43 60.22 62.04 59.82C61.66 59.41 61.19 59.21 60.64 59.21Z" fill="#FFFFFF" fill-opacity="1.000000" fill-rule="nonzero"/>
	<path d="M74.43 64.91L72.82 64.91L69.52 60.5L69.52 64.91L67.81 64.91L67.81 57.74L69.42 57.74L72.73 62.16L72.73 57.74L74.43 57.74L74.43 64.91Z" fill="#FFFFFF" fill-opacity="1.000000" fill-rule="nonzero"/>
	<path d="M52.62 45.59L14.46 45.59L14.46 7.39L52.62 7.39L52.62 45.59ZM15.07 44.98L52.01 44.98L52.01 8L15.07 8L15.07 44.98Z" fill="#FFFFFF" fill-opacity="1.000000" fill-rule="nonzero"/>
	<path d="M56.07 41.72L17.91 41.72L17.91 3.53L56.07 3.53L56.07 41.72ZM18.51 41.12L55.46 41.12L55.46 4.14L18.51 4.14L18.51 41.12Z" fill="#FFFFFF" fill-opacity="1.000000" fill-rule="nonzero"/>
	<path d="M59.72 38.19L21.56 38.19L21.56 0L59.72 0L59.72 38.19ZM22.17 37.58L59.11 37.58L59.11 0.6L22.17 0.6L22.17 37.58Z" fill="#FFFFFF" fill-opacity="1.000000" fill-rule="nonzero"/>
	<path d="M26.69 24.87L35.13 24.87L35.13 33.31L26.69 33.31L26.69 24.87Z" fill="#FFFFFF" fill-opacity="1.000000" fill-rule="nonzero"/>
</svg>
