<svg width="69.827148" height="65.000000" viewBox="0 0 69.8271 65" fill="none" xmlns="http://www.w3.org/2000/svg" xmlns:xlink="http://www.w3.org/1999/xlink">
	<desc>
			Created with Pixso.
	</desc>
	<defs/>
	<path d="M0 55.11L1.08 55.11L1.08 46.46L0 46.46L0 55.11Z" fill="#FFFFFF" fill-opacity="1.000000" fill-rule="nonzero"/>
	<path d="M11.74 46.46L11.74 53.13L6.9 46.46L5.91 46.46L5.91 55.11L6.97 55.11L6.97 48.37L11.89 55.11L12.81 55.11L12.81 46.46L11.74 46.46Z" fill="#FFFFFF" fill-opacity="1.000000" fill-rule="nonzero"/>
	<path d="M23.43 46.46L20.68 53.49L17.88 46.46L16.69 46.46L20.18 55.11L21.18 55.11L24.62 46.46L23.43 46.46Z" fill="#FFFFFF" fill-opacity="1.000000" fill-rule="nonzero"/>
	<path d="M28.53 55.11L29.62 55.11L29.62 46.46L28.53 46.46L28.53 55.11Z" fill="#FFFFFF" fill-opacity="1.000000" fill-rule="nonzero"/>
	<path d="M37.03 55.22C38.75 55.22 40.09 54.29 40.09 52.66C40.09 50.86 38.55 50.5 37.19 50.17C36.08 49.91 35.08 49.66 35.08 48.72C35.08 47.89 35.87 47.4 36.92 47.4C37.97 47.4 38.76 47.96 38.76 48.92L39.84 48.92C39.84 47.35 38.74 46.36 36.95 46.36C35.16 46.36 34.01 47.26 34.01 48.76C34.01 50.49 35.48 50.85 36.81 51.16C37.93 51.43 38.96 51.66 38.96 52.68C38.96 53.59 38.11 54.16 37.02 54.16C35.82 54.16 34.95 53.53 34.95 52.46L33.83 52.46C33.83 54.16 35.13 55.22 37.03 55.22Z" fill="#FFFFFF" fill-opacity="1.000000" fill-rule="nonzero"/>
	<path d="M44.3 55.11L45.39 55.11L45.39 46.46L44.3 46.46L44.3 55.11Z" fill="#FFFFFF" fill-opacity="1.000000" fill-rule="nonzero"/>
	<path d="M54.16 55.26C56.78 55.26 58.68 53.34 58.68 50.8C58.68 48.24 56.78 46.33 54.16 46.33C51.54 46.33 49.62 48.24 49.62 50.8C49.62 53.34 51.54 55.26 54.16 55.26ZM54.16 54.2C52.19 54.2 50.74 52.73 50.74 50.8C50.74 48.86 52.19 47.39 54.16 47.39C56.12 47.39 57.58 48.85 57.58 50.8C57.58 52.74 56.12 54.2 54.16 54.2Z" fill="#FFFFFF" fill-opacity="1.000000" fill-rule="nonzero"/>
	<path d="M68.76 46.46L68.76 53.13L63.92 46.46L62.93 46.46L62.93 55.11L63.99 55.11L63.99 48.37L68.91 55.11L69.82 55.11L69.82 46.46L68.76 46.46Z" fill="#FFFFFF" fill-opacity="1.000000" fill-rule="nonzero"/>
	<path d="M16.78 64.63C17.46 64.63 17.98 64.26 17.98 63.62C17.98 62.91 17.38 62.77 16.84 62.63C16.4 62.53 16.01 62.43 16.01 62.06C16.01 61.74 16.32 61.54 16.73 61.54C17.15 61.54 17.46 61.76 17.46 62.14L17.89 62.14C17.89 61.52 17.45 61.13 16.74 61.13C16.04 61.13 15.58 61.49 15.58 62.08C15.58 62.76 16.16 62.9 16.69 63.02C17.13 63.13 17.54 63.22 17.54 63.62C17.54 63.99 17.2 64.21 16.77 64.21C16.3 64.21 15.95 63.96 15.95 63.54L15.52 63.54C15.52 64.21 16.03 64.63 16.78 64.63Z" fill="#FFFFFF" fill-opacity="1.000000" fill-rule="nonzero"/>
	<path d="M25.98 64.99L25.31 64.23C25.69 63.91 25.91 63.43 25.91 62.88C25.91 61.87 25.16 61.12 24.13 61.12C23.1 61.12 22.34 61.87 22.34 62.88C22.34 63.89 23.1 64.64 24.13 64.64C24.44 64.64 24.73 64.57 24.98 64.45L25.45 64.99L25.98 64.99ZM24.13 64.22C23.35 64.22 22.78 63.64 22.78 62.88C22.78 62.12 23.35 61.54 24.13 61.54C24.91 61.54 25.48 62.11 25.48 62.88C25.48 63.3 25.31 63.66 25.03 63.9L24.42 63.18L23.9 63.18L24.7 64.11C24.52 64.18 24.33 64.22 24.13 64.22Z" fill="#FFFFFF" fill-opacity="1.000000" fill-rule="nonzero"/>
	<path d="M31.82 64.64C32.59 64.64 33.16 64.09 33.16 63.32L33.16 61.17L32.73 61.17L32.73 63.28C32.73 63.85 32.35 64.22 31.82 64.22C31.29 64.22 30.91 63.85 30.91 63.28L30.91 61.17L30.48 61.17L30.48 63.32C30.48 64.09 31.05 64.64 31.82 64.64Z" fill="#FFFFFF" fill-opacity="1.000000" fill-rule="nonzero"/>
	<path d="M40.34 64.58L40.8 64.58L39.37 61.17L38.97 61.17L37.57 64.58L38.03 64.58L38.36 63.77L40 63.77L40.34 64.58ZM39.17 61.76L39.84 63.37L38.52 63.37L39.17 61.76Z" fill="#FFFFFF" fill-opacity="1.000000" fill-rule="nonzero"/>
	<path d="M47.25 64.58L47.73 64.58L46.91 63.2C47.36 63.07 47.66 62.7 47.66 62.21C47.66 61.61 47.19 61.17 46.55 61.17L45.26 61.17L45.26 64.58L45.68 64.58L45.68 63.25L46.46 63.25L47.25 64.58ZM45.68 61.58L46.53 61.58C46.95 61.58 47.23 61.85 47.23 62.21C47.23 62.58 46.95 62.84 46.53 62.84L45.68 62.84L45.68 61.58Z" fill="#FFFFFF" fill-opacity="1.000000" fill-rule="nonzero"/>
	<path d="M52.73 64.17L52.73 63.03L54.1 63.03L54.1 62.63L52.73 62.63L52.73 61.58L54.23 61.58L54.23 61.17L52.3 61.17L52.3 64.58L54.29 64.58L54.29 64.17L52.73 64.17Z" fill="#FFFFFF" fill-opacity="1.000000" fill-rule="nonzero"/>
	<path d="M19.4 2.79L27.54 2.79L26.47 3.83L19.92 3.83L19.92 10.37L18.88 11.45L18.88 2.79L19.4 2.79ZM30.5 2.79L39.32 2.79L40.36 3.83L29.46 3.83L30.5 2.79ZM42.31 2.79L50.97 2.79L50.97 11.45L49.9 10.38L49.9 3.83L43.36 3.83L42.31 2.79ZM50.97 14.42L50.97 23.23L49.9 24.27L49.9 13.38L50.97 14.42ZM50.97 26.23L50.97 34.89L42.31 34.89L43.35 33.82L49.89 33.82L49.89 27.28L50.97 26.23ZM39.32 34.89L30.5 34.89L29.46 33.82L40.36 33.82L39.32 34.89ZM27.54 34.89L18.88 34.89L18.88 26.23L19.92 27.27L19.92 33.81L26.46 33.81L27.54 34.89ZM18.88 23.23L18.88 14.42L19.92 13.38L19.92 24.27L18.88 23.23Z" fill="#FFFFFF" fill-opacity="1.000000" fill-rule="nonzero"/>
	<path d="M38.93 0.16L53.77 15L53.77 22.68L38.76 37.68L31.09 37.68L16.08 22.68C16.08 20.11 16.08 17.54 16.08 15C21.06 9.99 26.07 4.98 31.09 0L38.77 0L38.93 0.16ZM52.7 15.42L38.31 1.04L31.51 1.04L17.12 15.42L17.12 22.22L31.5 36.61L38.3 36.61L52.68 22.22L52.68 15.42L52.7 15.42Z" fill="#FFFFFF" fill-opacity="1.000000" fill-rule="nonzero"/>
	<path d="M35.28 3.15L39.09 6.96L37.58 6.96L34.92 4.26L32.23 6.96L30.76 6.96L34.92 2.79L35.28 3.15ZM41.2 9.08L44.69 12.56L44.69 14.02L39.7 9.08L41.2 9.08ZM46.8 14.67L50.97 18.84L46.8 23.01L46.8 21.51L49.47 18.84L46.8 16.14L46.8 14.67ZM44.69 25.12L41.2 28.6L39.7 28.6L44.69 23.62L44.69 25.12ZM39.09 30.72L34.92 34.89L30.76 30.72L32.22 30.72L34.92 33.39L37.59 30.72L39.09 30.72ZM28.65 28.6L25.16 25.12L25.16 23.62L30.11 28.6L28.65 28.6ZM23.05 23.01L18.88 18.84L23.05 14.67L23.05 16.13L20.35 18.84L23.05 21.51L23.05 23.01ZM25.16 12.56L28.65 9.08L30.11 9.08L25.16 14.02L25.16 12.56Z" fill="#FFFFFF" fill-opacity="1.000000" fill-rule="nonzero"/>
	<path d="M46.25 11.58L46.25 26.29L42.54 30.03L42.15 30.16L27.67 30.16L27.31 30.03L23.57 26.29L23.57 11.35L27.44 7.48L42.38 7.48L46.25 11.35L46.25 11.58ZM45.21 25.87L45.21 11.81L41.95 8.52L27.89 8.52L24.61 11.81L24.61 25.86L27.89 29.12L41.95 29.12L45.21 25.87Z" fill="#FFFFFF" fill-opacity="1.000000" fill-rule="nonzero"/>
	<path d="M35.28 8.07L39.28 12.07L34.92 16.46L30.53 12.07L34.92 7.71L35.28 8.07ZM37.82 12.07L34.92 9.14L31.99 12.07L34.92 15L37.82 12.07Z" fill="#FFFFFF" fill-opacity="1.000000" fill-rule="nonzero"/>
	<path d="M45.69 19.19L41.66 23.2L37.3 18.84L41.66 14.45L46.06 18.84L45.69 19.19ZM41.66 21.77L44.59 18.84L41.66 15.91L38.76 18.84L41.66 21.77Z" fill="#FFFFFF" fill-opacity="1.000000" fill-rule="nonzero"/>
	<path d="M34.57 29.61L30.54 25.58L34.93 21.21L39.3 25.58L34.92 29.97L34.57 29.61ZM31.99 25.58L34.92 28.51L37.82 25.58L34.92 22.68L31.99 25.58Z" fill="#FFFFFF" fill-opacity="1.000000" fill-rule="nonzero"/>
	<path d="M24.15 18.48L28.16 14.45L32.55 18.85L28.16 23.21L23.79 18.84L24.15 18.48ZM28.16 15.91L25.22 18.84L28.16 21.77L31.09 18.84L28.16 15.91Z" fill="#FFFFFF" fill-opacity="1.000000" fill-rule="nonzero"/>
	<path d="M35.28 15.33L38.79 18.84L34.92 22.71L31.05 18.84L34.92 14.97L35.28 15.33ZM37.34 18.84L34.92 16.43L32.51 18.84L34.92 21.25L37.34 18.84Z" fill="#FFFFFF" fill-opacity="1.000000" fill-rule="nonzero"/>
</svg>
