<svg width="74.825684" height="65.000000" viewBox="0 0 74.8257 65" fill="none" xmlns="http://www.w3.org/2000/svg" xmlns:xlink="http://www.w3.org/1999/xlink">
	<desc>
			Created with Pixso.
	</desc>
	<defs/>
	<path d="M37.47 0.96C28.3 0.96 20.83 8.43 20.83 17.6C20.83 26.77 28.3 34.23 37.47 34.23C46.64 34.23 54.1 26.77 54.1 17.6C54.1 8.43 46.64 0.96 37.47 0.96ZM37.47 35.2C27.76 35.2 19.87 27.3 19.87 17.6C19.87 7.89 27.76 0 37.47 0C47.17 0 55.07 7.89 55.07 17.6C55.07 27.3 47.17 35.2 37.47 35.2Z" fill="#FFFFFF" fill-opacity="1.000000" fill-rule="nonzero"/>
	<path d="M37.47 3.11C29.48 3.11 22.98 9.61 22.98 17.6C22.98 25.59 29.48 32.09 37.47 32.09C45.46 32.09 51.96 25.59 51.96 17.6C51.96 9.61 45.46 3.11 37.47 3.11ZM37.47 33.06C28.94 33.06 22 26.12 22 17.6C22 9.07 28.94 2.13 37.47 2.13C45.99 2.13 52.93 9.07 52.93 17.6C52.93 26.12 45.99 33.06 37.47 33.06Z" fill="#FFFFFF" fill-opacity="1.000000" fill-rule="nonzero"/>
	<path d="M37.47 5.24C30.66 5.24 25.12 10.79 25.12 17.6C25.12 24.41 30.66 29.95 37.47 29.95C44.28 29.95 49.82 24.41 49.82 17.6C49.82 10.79 44.28 5.24 37.47 5.24ZM37.47 30.92C30.12 30.92 24.15 24.94 24.15 17.6C24.15 10.25 30.12 4.27 37.47 4.27C44.81 4.27 50.79 10.25 50.79 17.6C50.79 24.94 44.81 30.92 37.47 30.92Z" fill="#FFFFFF" fill-opacity="1.000000" fill-rule="nonzero"/>
	<path d="M37.47 7.38C31.84 7.38 27.25 11.97 27.25 17.6C27.25 23.23 31.84 27.81 37.47 27.81C43.1 27.81 47.68 23.23 47.68 17.6C47.68 11.97 43.1 7.38 37.47 7.38ZM37.47 28.78C31.3 28.78 26.28 23.76 26.28 17.6C26.28 11.43 31.3 6.41 37.47 6.41C43.63 6.41 48.65 11.43 48.65 17.6C48.65 23.76 43.63 28.78 37.47 28.78Z" fill="#FFFFFF" fill-opacity="1.000000" fill-rule="nonzero"/>
	<path d="M37.47 9.53C33.02 9.53 29.4 13.15 29.4 17.6C29.4 22.05 33.02 25.67 37.47 25.67C41.92 25.67 45.54 22.05 45.54 17.6C45.54 13.15 41.92 9.53 37.47 9.53ZM37.47 26.64C32.48 26.64 28.43 22.58 28.43 17.6C28.43 12.61 32.48 8.55 37.47 8.55C42.46 8.55 46.51 12.61 46.51 17.6C46.51 22.58 42.46 26.64 37.47 26.64Z" fill="#FFFFFF" fill-opacity="1.000000" fill-rule="nonzero"/>
	<path d="M37.47 11.66C34.2 11.66 31.53 14.33 31.53 17.6C31.53 20.87 34.2 23.53 37.47 23.53C40.74 23.53 43.4 20.87 43.4 17.6C43.4 14.33 40.74 11.66 37.47 11.66ZM37.47 24.5C33.66 24.5 30.56 21.41 30.56 17.6C30.56 13.79 33.66 10.69 37.47 10.69C41.28 10.69 44.37 13.79 44.37 17.6C44.37 21.41 41.28 24.5 37.47 24.5Z" fill="#FFFFFF" fill-opacity="1.000000" fill-rule="nonzero"/>
	<path d="M37.47 13.8C35.38 13.8 33.68 15.5 33.68 17.6C33.68 19.69 35.38 21.39 37.47 21.39C39.56 21.39 41.26 19.69 41.26 17.6C41.26 15.5 39.56 13.8 37.47 13.8ZM37.47 22.36C34.84 22.36 32.71 20.22 32.71 17.6C32.71 14.97 34.84 12.83 37.47 12.83C40.1 12.83 42.23 14.97 42.23 17.6C42.23 20.22 40.1 22.36 37.47 22.36Z" fill="#FFFFFF" fill-opacity="1.000000" fill-rule="nonzero"/>
	<path d="M37.47 15.94C36.56 15.94 35.81 16.69 35.81 17.6C35.81 18.51 36.56 19.25 37.47 19.25C38.38 19.25 39.12 18.51 39.12 17.6C39.12 16.69 38.38 15.94 37.47 15.94ZM37.47 20.22C36.02 20.22 34.84 19.04 34.84 17.6C34.84 16.15 36.02 14.97 37.47 14.97C38.92 14.97 40.09 16.15 40.09 17.6C40.09 19.04 38.92 20.22 37.47 20.22Z" fill="#FFFFFF" fill-opacity="1.000000" fill-rule="nonzero"/>
	<path d="M4.85 53.2C3.13 53.2 1.88 52.85 1.07 52.14C0.35 51.52 0 50.67 0 49.59C0 48.52 0.35 47.67 1.07 47.04C1.88 46.34 3.13 45.99 4.85 45.99C5.85 45.99 6.68 46.11 7.34 46.34C7.99 46.57 8.5 46.88 8.86 47.28C9.22 47.68 9.47 48.13 9.59 48.65L6.53 48.65C6.23 48.11 5.66 47.84 4.85 47.84C4.14 47.84 3.63 48.05 3.3 48.45C3.03 48.77 2.9 49.15 2.9 49.59C2.9 50.04 3.03 50.42 3.3 50.74C3.63 51.14 4.14 51.34 4.85 51.34C5.66 51.34 6.23 51.07 6.53 50.53L9.59 50.53C9.47 51.05 9.22 51.51 8.86 51.91C8.5 52.31 7.99 52.62 7.34 52.86C6.68 53.08 5.85 53.2 4.85 53.2Z" fill="#FFFFFF" fill-opacity="1.000000" fill-rule="nonzero"/>
	<path d="M20.19 53.05L17.45 53.05C17.32 52.87 17.23 52.65 17.18 52.38C17.14 52.17 17.07 51.97 16.98 51.77C16.89 51.57 16.74 51.4 16.51 51.27C16.29 51.13 15.97 51.06 15.54 51.05L13.65 51.05L13.65 53.05L10.74 53.05L10.74 46.13L15.46 46.13C16.6 46.13 17.51 46.21 18.2 46.38C18.89 46.54 19.4 46.81 19.72 47.17C20.03 47.54 20.19 48.01 20.19 48.59C20.19 49.08 20.08 49.48 19.87 49.82C19.65 50.15 19.3 50.41 18.82 50.6C19.28 50.79 19.58 51.02 19.72 51.29C19.85 51.55 19.94 51.84 19.97 52.16C20 52.44 20.08 52.74 20.19 53.05ZM13.65 49.34L15.31 49.34C15.77 49.34 16.14 49.32 16.4 49.28C16.67 49.24 16.86 49.18 16.99 49.1C17.12 49.03 17.2 48.95 17.23 48.87C17.27 48.78 17.29 48.69 17.29 48.59C17.29 48.5 17.27 48.4 17.23 48.31C17.2 48.22 17.12 48.14 16.99 48.07C16.86 48 16.67 47.94 16.4 47.9C16.14 47.86 15.77 47.84 15.31 47.84L13.65 47.84L13.65 49.34Z" fill="#FFFFFF" fill-opacity="1.000000" fill-rule="nonzero"/>
	<path d="M29.69 53.05L21.35 53.05L21.35 46.13L29.31 46.13L29.31 47.84L24.26 47.84L24.26 48.92L28.52 48.92L28.52 50.26L24.26 50.26L24.26 51.34L29.69 51.34L29.69 53.05Z" fill="#FFFFFF" fill-opacity="1.000000" fill-rule="nonzero"/>
	<path d="M41.7 53.05L38.75 53.05L38.1 51.92L33.73 51.92L33.08 53.05L30.14 53.05L34.57 46.13L37.27 46.13L41.7 53.05ZM37.13 50.2L35.92 48.1L34.71 50.2L37.13 50.2Z" fill="#FFFFFF" fill-opacity="1.000000" fill-rule="nonzero"/>
	<path d="M47.67 53.05L44.77 53.05L44.77 47.84L42.05 47.84L42.05 46.13L50.38 46.13L50.38 47.84L47.67 47.84L47.67 53.05Z" fill="#FFFFFF" fill-opacity="1.000000" fill-rule="nonzero"/>
	<path d="M54.35 53.05L51.44 53.05L51.44 46.13L54.35 46.13L54.35 53.05Z" fill="#FFFFFF" fill-opacity="1.000000" fill-rule="nonzero"/>
	<path d="M61.77 53.05L59.06 53.05L55.18 46.13L58.13 46.13L60.41 51.07L62.7 46.13L65.65 46.13L61.77 53.05Z" fill="#FFFFFF" fill-opacity="1.000000" fill-rule="nonzero"/>
	<path d="M74.82 53.05L66.48 53.05L66.48 46.13L74.44 46.13L74.44 47.84L69.39 47.84L69.39 48.92L73.66 48.92L73.66 50.26L69.39 50.26L69.39 51.34L74.82 51.34L74.82 53.05Z" fill="#FFFFFF" fill-opacity="1.000000" fill-rule="nonzero"/>
	<path d="M15.08 64.99C14.15 64.99 13.39 64.89 12.82 64.69C12.25 64.49 11.81 64.21 11.51 63.86C11.21 63.51 11.01 63.11 10.91 62.65L14 62.65C14.22 62.97 14.58 63.13 15.08 63.13C15.58 63.13 15.95 62.97 16.18 62.65C16.19 62.61 16.2 62.58 16.2 62.56C16.2 62.47 16.09 62.41 15.85 62.36C15.63 62.32 15.28 62.29 14.83 62.27C14.25 62.24 13.64 62.18 13.01 62.08C11.6 61.86 10.89 61.29 10.89 60.37C10.89 60.3 10.9 60.22 10.91 60.13C11.01 59.67 11.21 59.27 11.51 58.91C11.81 58.56 12.25 58.29 12.82 58.08C13.39 57.88 14.15 57.78 15.08 57.78C16.02 57.78 16.77 57.88 17.34 58.08C17.92 58.29 18.35 58.56 18.65 58.91C18.95 59.27 19.16 59.67 19.26 60.13L16.18 60.13C15.95 59.81 15.58 59.64 15.08 59.64C14.58 59.64 14.22 59.81 14 60.13C13.98 60.16 13.97 60.18 13.97 60.2C13.97 60.28 14.08 60.34 14.3 60.37C14.52 60.41 14.85 60.45 15.28 60.47C15.7 60.5 16.16 60.54 16.65 60.6C17.13 60.66 17.59 60.75 18.01 60.9C18.43 61.04 18.76 61.25 19 61.53C19.19 61.75 19.28 62.02 19.28 62.35C19.28 62.45 19.27 62.54 19.26 62.65C19.16 63.11 18.95 63.51 18.65 63.86C18.35 64.21 17.92 64.49 17.34 64.69C16.77 64.89 16.02 64.99 15.08 64.99Z" fill="#FFFFFF" fill-opacity="1.000000" fill-rule="nonzero"/>
	<path d="M25.57 64.85L22.67 64.85L22.67 59.63L19.95 59.63L19.95 57.92L28.29 57.92L28.29 59.63L25.57 59.63L25.57 64.85Z" fill="#FFFFFF" fill-opacity="1.000000" fill-rule="nonzero"/>
	<path d="M33.44 65C31.75 65 30.56 64.65 29.87 63.95C29.29 63.35 29.01 62.5 29.01 61.39L29.01 57.92L31.91 57.92L31.91 61.39C31.91 61.87 31.99 62.25 32.15 62.54C32.39 62.94 32.82 63.14 33.44 63.14C34.06 63.14 34.49 62.94 34.73 62.54C34.89 62.25 34.97 61.86 34.97 61.39L34.97 57.92L37.88 57.92L37.88 61.43C37.88 62.52 37.59 63.35 37.02 63.95C36.32 64.65 35.13 65 33.44 65Z" fill="#FFFFFF" fill-opacity="1.000000" fill-rule="nonzero"/>
	<path d="M43.71 64.85L39.08 64.85L39.08 57.92L43.71 57.92C45.6 57.92 46.97 58.19 47.79 58.71C48.46 59.14 48.84 59.73 48.94 60.46C48.98 60.78 49 61.09 49 61.39C49 61.68 48.98 61.98 48.94 62.31C48.9 62.63 48.79 62.94 48.62 63.24C48.45 63.54 48.17 63.81 47.79 64.05C47.42 64.29 46.9 64.48 46.24 64.63C45.58 64.77 44.74 64.85 43.71 64.85ZM43.43 63.14C44.91 63.14 45.75 62.76 45.94 62.02C45.99 61.81 46.02 61.6 46.02 61.39C46.02 61.18 45.99 60.97 45.93 60.76C45.88 60.55 45.77 60.36 45.6 60.2C45.43 60.02 45.17 59.89 44.82 59.79C44.48 59.69 44.01 59.63 43.43 59.63L41.98 59.63L41.98 63.14L43.43 63.14Z" fill="#FFFFFF" fill-opacity="1.000000" fill-rule="nonzero"/>
	<path d="M53.06 64.85L50.15 64.85L50.15 57.92L53.06 57.92L53.06 64.85Z" fill="#FFFFFF" fill-opacity="1.000000" fill-rule="nonzero"/>
	<path d="M59.07 64.99C57.35 64.99 56.1 64.64 55.29 63.94C54.57 63.31 54.22 62.46 54.22 61.38C54.22 60.31 54.57 59.46 55.29 58.84C56.1 58.13 57.35 57.78 59.07 57.78C60.78 57.78 62.04 58.13 62.84 58.84C63.56 59.46 63.92 60.31 63.92 61.38C63.92 62.46 63.56 63.31 62.84 63.94C62.04 64.64 60.78 64.99 59.07 64.99ZM59.07 63.13C59.76 63.13 60.28 62.94 60.61 62.54C60.87 62.21 61 61.83 61 61.38C61 60.94 60.87 60.56 60.61 60.24C60.28 59.84 59.76 59.63 59.07 59.63C58.36 59.63 57.85 59.84 57.52 60.24C57.25 60.56 57.12 60.94 57.12 61.38C57.12 61.83 57.25 62.21 57.52 62.54C57.85 62.94 58.36 63.13 59.07 63.13Z" fill="#FFFFFF" fill-opacity="1.000000" fill-rule="nonzero"/>
</svg>
