<svg width="60.000000" height="59.742188" viewBox="0 0 60 59.7422" fill="none" xmlns="http://www.w3.org/2000/svg" xmlns:xlink="http://www.w3.org/1999/xlink">
	<desc>
			Created with Pixso.
	</desc>
	<defs/>
	<path d="M31.28 30.16L59.7 30.16C59.83 30.16 59.92 30.1 59.97 29.98C60.02 29.86 60 29.75 59.91 29.66L30.79 0.08C30.73 0.02 30.66 0 30.58 0L0.29 0C0.16 0 0.07 0.06 0.02 0.17C-0.03 0.29 -0.01 0.4 0.08 0.49L28.71 29.57L0.29 29.57C0.16 29.57 0.07 29.63 0.02 29.75C-0.03 29.87 -0.01 29.98 0.08 30.07L29.2 59.65C29.26 59.71 29.33 59.74 29.41 59.74L59.7 59.74C59.83 59.74 59.92 59.68 59.97 59.56C60.02 59.44 60 59.33 59.91 59.24L31.28 30.16ZM0.99 0.58L30.45 0.58L59 29.57L29.54 29.57L0.99 0.58ZM29.54 59.15L0.99 30.16L30.45 30.16L59 59.15L29.54 59.15Z" fill="#FFFFFF" fill-opacity="1.000000" fill-rule="nonzero"/>
</svg>
