<svg width="64.455566" height="60.000000" viewBox="0 0 64.4556 60" fill="none" xmlns="http://www.w3.org/2000/svg" xmlns:xlink="http://www.w3.org/1999/xlink">
	<desc>
			Created with Pixso.
	</desc>
	<defs/>
	<path d="M0 50.87L1 50.87L1 42.89L0 42.89L0 50.87Z" fill="#FFFFFF" fill-opacity="1.000000" fill-rule="nonzero"/>
	<path d="M10.84 42.89L10.84 49.05L6.37 42.89L5.46 42.89L5.46 50.87L6.44 50.87L6.44 44.64L10.98 50.87L11.82 50.87L11.82 42.89L10.84 42.89Z" fill="#FFFFFF" fill-opacity="1.000000" fill-rule="nonzero"/>
	<path d="M21.63 42.89L19.09 49.38L16.51 42.89L15.4 42.89L18.63 50.87L19.55 50.87L22.72 42.89L21.63 42.89Z" fill="#FFFFFF" fill-opacity="1.000000" fill-rule="nonzero"/>
	<path d="M26.34 50.87L27.34 50.87L27.34 42.89L26.34 42.89L26.34 50.87Z" fill="#FFFFFF" fill-opacity="1.000000" fill-rule="nonzero"/>
	<path d="M34.18 50.97C35.77 50.97 37 50.12 37 48.61C37 46.95 35.59 46.62 34.33 46.31C33.31 46.07 32.38 45.84 32.38 44.97C32.38 44.21 33.11 43.75 34.08 43.75C35.05 43.75 35.78 44.27 35.78 45.16L36.77 45.16C36.77 43.71 35.76 42.8 34.1 42.8C32.45 42.8 31.39 43.63 31.39 45.01C31.39 46.61 32.75 46.94 33.98 47.22C35.02 47.47 35.96 47.69 35.96 48.62C35.96 49.47 35.18 49.99 34.17 49.99C33.07 49.99 32.26 49.41 32.26 48.42L31.23 48.42C31.23 49.99 32.43 50.97 34.18 50.97Z" fill="#FFFFFF" fill-opacity="1.000000" fill-rule="nonzero"/>
	<path d="M40.89 50.87L41.89 50.87L41.89 42.89L40.89 42.89L40.89 50.87Z" fill="#FFFFFF" fill-opacity="1.000000" fill-rule="nonzero"/>
	<path d="M49.99 51.01C52.41 51.01 54.16 49.24 54.16 46.89C54.16 44.53 52.41 42.76 49.99 42.76C47.57 42.76 45.8 44.53 45.8 46.89C45.8 49.24 47.57 51.01 49.99 51.01ZM49.99 50.03C48.18 50.03 46.83 48.67 46.83 46.89C46.83 45.1 48.18 43.74 49.99 43.74C51.8 43.74 53.15 45.09 53.15 46.89C53.15 48.68 51.8 50.03 49.99 50.03Z" fill="#FFFFFF" fill-opacity="1.000000" fill-rule="nonzero"/>
	<path d="M63.47 42.89L63.47 49.05L59 42.89L58.09 42.89L58.09 50.87L59.07 50.87L59.07 44.64L63.61 50.87L64.45 50.87L64.45 42.89L63.47 42.89Z" fill="#FFFFFF" fill-opacity="1.000000" fill-rule="nonzero"/>
	<path d="M15.49 59.66C16.11 59.66 16.6 59.32 16.6 58.73C16.6 58.07 16.04 57.94 15.55 57.81C15.14 57.72 14.78 57.63 14.78 57.29C14.78 56.99 15.06 56.81 15.45 56.81C15.83 56.81 16.12 57.01 16.12 57.36L16.51 57.36C16.51 56.79 16.11 56.43 15.46 56.43C14.8 56.43 14.38 56.76 14.38 57.3C14.38 57.93 14.92 58.06 15.41 58.18C15.82 58.27 16.19 58.36 16.19 58.73C16.19 59.06 15.88 59.27 15.48 59.27C15.05 59.27 14.73 59.04 14.73 58.65L14.32 58.65C14.32 59.27 14.79 59.66 15.49 59.66Z" fill="#FFFFFF" fill-opacity="1.000000" fill-rule="nonzero"/>
	<path d="M23.98 60L23.37 59.29C23.71 58.99 23.92 58.55 23.92 58.04C23.92 57.11 23.23 56.41 22.27 56.41C21.32 56.41 20.62 57.11 20.62 58.04C20.62 58.97 21.32 59.67 22.27 59.67C22.56 59.67 22.83 59.61 23.06 59.49L23.49 60L23.98 60ZM22.27 59.28C21.56 59.28 21.03 58.75 21.03 58.04C21.03 57.34 21.56 56.8 22.27 56.8C22.99 56.8 23.52 57.33 23.52 58.04C23.52 58.43 23.36 58.76 23.11 58.98L22.54 58.32L22.06 58.32L22.8 59.18C22.64 59.25 22.46 59.28 22.27 59.28Z" fill="#FFFFFF" fill-opacity="1.000000" fill-rule="nonzero"/>
	<path d="M29.37 59.67C30.08 59.67 30.61 59.16 30.61 58.45L30.61 56.46L30.21 56.46L30.21 58.41C30.21 58.94 29.86 59.28 29.37 59.28C28.88 59.28 28.54 58.94 28.54 58.41L28.54 56.46L28.13 56.46L28.13 58.45C28.13 59.16 28.66 59.67 29.37 59.67Z" fill="#FFFFFF" fill-opacity="1.000000" fill-rule="nonzero"/>
	<path d="M37.23 59.62L37.66 59.62L36.34 56.46L35.97 56.46L34.68 59.62L35.1 59.62L35.41 58.86L36.92 58.86L37.23 59.62ZM36.16 57.01L36.78 58.5L35.55 58.5L36.16 57.01Z" fill="#FFFFFF" fill-opacity="1.000000" fill-rule="nonzero"/>
	<path d="M43.61 59.62L44.06 59.62L43.3 58.34C43.71 58.22 44 57.87 44 57.43C44 56.87 43.56 56.46 42.97 56.46L41.77 56.46L41.77 59.62L42.17 59.62L42.17 58.39L42.89 58.39L43.61 59.62ZM42.17 56.84L42.95 56.84C43.34 56.84 43.59 57.09 43.59 57.43C43.59 57.77 43.34 58.01 42.95 58.01L42.17 58.01L42.17 56.84Z" fill="#FFFFFF" fill-opacity="1.000000" fill-rule="nonzero"/>
	<path d="M48.67 59.24L48.67 58.18L49.94 58.18L49.94 57.81L48.67 57.81L48.67 56.84L50.06 56.84L50.06 56.46L48.28 56.46L48.28 59.62L50.11 59.62L50.11 59.24L48.67 59.24Z" fill="#FFFFFF" fill-opacity="1.000000" fill-rule="nonzero"/>
	<path d="M17.9 2.58L25.42 2.58L24.43 3.54L18.38 3.54L18.38 9.58L17.42 10.57L17.42 2.58L17.9 2.58ZM28.15 2.58L36.29 2.58L37.25 3.54L27.19 3.54L28.15 2.58ZM39.06 2.58L47.05 2.58L47.05 10.57L46.06 9.58L46.06 3.54L40.02 3.54L39.06 2.58ZM47.05 13.31L47.05 21.45L46.06 22.41L46.06 12.35L47.05 13.31ZM47.05 24.21L47.05 32.2L39.06 32.2L40.02 31.22L46.06 31.22L46.06 25.18L47.05 24.21ZM36.29 32.2L28.15 32.2L27.19 31.22L37.25 31.22L36.29 32.2ZM25.42 32.2L17.42 32.2L17.42 24.21L18.38 25.17L18.38 31.21L24.42 31.21L25.42 32.2ZM17.42 21.45L17.42 13.31L18.38 12.35L18.38 22.41L17.42 21.45Z" fill="#FFFFFF" fill-opacity="1.000000" fill-rule="nonzero"/>
	<path d="M35.93 0.15L49.63 13.85L49.63 20.94L35.78 34.78L28.69 34.78L14.84 20.93C14.84 18.56 14.84 16.19 14.84 13.84C19.44 9.22 24.07 4.6 28.69 0L35.79 0L35.93 0.15ZM48.64 14.24L35.36 0.96L29.08 0.96L15.8 14.24L15.8 20.51L29.08 33.79L35.35 33.79L48.63 20.51L48.63 14.24L48.64 14.24Z" fill="#FFFFFF" fill-opacity="1.000000" fill-rule="nonzero"/>
	<path d="M32.56 2.91L36.08 6.42L34.69 6.42L32.24 3.93L29.75 6.42L28.4 6.42L32.24 2.58L32.56 2.91ZM38.03 8.38L41.25 11.6L41.25 12.94L36.65 8.38L38.03 8.38ZM43.2 13.54L47.05 17.39L43.2 21.24L43.2 19.85L45.67 17.39L43.2 14.9L43.2 13.54ZM41.25 23.19L38.03 26.4L36.65 26.4L41.25 21.8L41.25 23.19ZM36.08 28.36L32.24 32.2L28.39 28.36L29.74 28.36L32.24 30.82L34.7 28.36L36.08 28.36ZM26.44 26.4L23.23 23.19L23.23 21.8L27.79 26.4L26.44 26.4ZM21.27 21.24L17.42 17.39L21.27 13.54L21.27 14.89L18.78 17.39L21.27 19.85L21.27 21.24ZM23.23 11.6L26.44 8.38L27.79 8.38L23.23 12.94L23.23 11.6Z" fill="#FFFFFF" fill-opacity="1.000000" fill-rule="nonzero"/>
	<path d="M42.69 10.69L42.69 24.27L39.26 27.72L38.9 27.84L25.54 27.84L25.21 27.72L21.75 24.27L21.75 10.48L25.33 6.9L39.12 6.9L42.69 10.48L42.69 10.69ZM41.73 23.88L41.73 10.9L38.72 7.87L25.75 7.87L22.71 10.9L22.71 23.87L25.75 26.88L38.72 26.88L41.73 23.88Z" fill="#FFFFFF" fill-opacity="1.000000" fill-rule="nonzero"/>
	<path d="M32.56 7.45L36.26 11.14L32.24 15.2L28.18 11.14L32.24 7.11L32.56 7.45ZM34.91 11.14L32.24 8.43L29.53 11.14L32.24 13.85L34.91 11.14Z" fill="#FFFFFF" fill-opacity="1.000000" fill-rule="nonzero"/>
	<path d="M42.18 17.72L38.46 21.41L34.43 17.39L38.46 13.33L42.51 17.39L42.18 17.72ZM38.46 20.1L41.16 17.39L38.46 14.68L35.78 17.39L38.46 20.1Z" fill="#FFFFFF" fill-opacity="1.000000" fill-rule="nonzero"/>
	<path d="M31.91 27.33L28.19 23.61L32.24 19.58L36.27 23.61L32.24 27.67L31.91 27.33ZM29.53 23.61L32.24 26.32L34.91 23.61L32.24 20.93L29.53 23.61Z" fill="#FFFFFF" fill-opacity="1.000000" fill-rule="nonzero"/>
	<path d="M22.29 17.06L25.99 13.34L30.05 17.4L25.99 21.43L21.96 17.39L22.29 17.06ZM25.99 14.68L23.28 17.39L25.99 20.1L28.69 17.39L25.99 14.68Z" fill="#FFFFFF" fill-opacity="1.000000" fill-rule="nonzero"/>
	<path d="M32.56 14.15L35.81 17.39L32.24 20.97L28.66 17.39L32.24 13.81L32.56 14.15ZM34.46 17.39L32.24 15.16L30.01 17.39L32.24 19.62L34.46 17.39Z" fill="#FFFFFF" fill-opacity="1.000000" fill-rule="nonzero"/>
</svg>
