<svg width="68.708496" height="60.000000" viewBox="0 0 68.7085 60" fill="none" xmlns="http://www.w3.org/2000/svg" xmlns:xlink="http://www.w3.org/1999/xlink">
	<desc>
			Created with Pixso.
	</desc>
	<defs/>
	<path d="M1.68 59.92L0 59.92L0 53.3L1.68 53.3L1.68 59.92Z" fill="#FFFFFF" fill-opacity="1.000000" fill-rule="nonzero"/>
	<path d="M11.28 59.92L9.8 59.92L6.75 55.85L6.75 59.92L5.17 59.92L5.17 53.3L6.66 53.3L9.71 57.38L9.71 53.3L11.28 53.3L11.28 59.92Z" fill="#FFFFFF" fill-opacity="1.000000" fill-rule="nonzero"/>
	<path d="M26.41 59.92L24.92 59.92L24.91 55.62L23.33 59.26L22.23 59.26L20.65 55.62L20.65 59.92L19.14 59.92L19.14 53.29L20.99 53.29L22.78 57.23L24.58 53.29L26.41 53.29L26.41 59.92Z" fill="#FFFFFF" fill-opacity="1.000000" fill-rule="nonzero"/>
	<path d="M33.05 53.24C34.08 53.24 34.93 53.57 35.61 54.21C36.29 54.84 36.63 55.64 36.63 56.6C36.63 57.57 36.29 58.37 35.61 59.03C34.92 59.67 34.07 60 33.05 60C32.03 60 31.18 59.67 30.5 59.03C29.82 58.38 29.48 57.57 29.48 56.6C29.48 55.64 29.82 54.84 30.5 54.2C31.18 53.56 32.03 53.24 33.05 53.24ZM33.07 54.65C32.55 54.65 32.11 54.84 31.74 55.22C31.38 55.59 31.2 56.06 31.2 56.61C31.2 57.16 31.38 57.63 31.75 58.01C32.12 58.4 32.56 58.59 33.07 58.59C33.58 58.59 34.01 58.4 34.36 58.01C34.72 57.63 34.9 57.16 34.9 56.61C34.9 56.06 34.72 55.59 34.36 55.22C34.01 54.84 33.58 54.65 33.07 54.65Z" fill="#FFFFFF" fill-opacity="1.000000" fill-rule="nonzero"/>
	<path d="M44.75 54.65L42.76 54.65L42.76 59.92L41.07 59.92L41.07 54.65L39.1 54.65L39.1 53.29L44.75 53.29L44.75 54.65Z" fill="#FFFFFF" fill-opacity="1.000000" fill-rule="nonzero"/>
	<path d="M49.32 59.92L47.64 59.92L47.64 53.3L49.32 53.3L49.32 59.92Z" fill="#FFFFFF" fill-opacity="1.000000" fill-rule="nonzero"/>
	<path d="M55.96 53.24C56.98 53.24 57.83 53.57 58.51 54.21C59.2 54.84 59.54 55.64 59.54 56.6C59.54 57.57 59.2 58.37 58.51 59.03C57.83 59.67 56.97 60 55.95 60C54.93 60 54.08 59.67 53.4 59.03C52.72 58.38 52.38 57.57 52.38 56.6C52.38 55.64 52.72 54.84 53.4 54.2C54.08 53.56 54.93 53.24 55.96 53.24ZM55.97 54.65C55.46 54.65 55.02 54.84 54.65 55.22C54.29 55.59 54.1 56.06 54.1 56.61C54.1 57.16 54.29 57.63 54.66 58.01C55.02 58.4 55.46 58.59 55.97 58.59C56.48 58.59 56.91 58.4 57.27 58.01C57.63 57.63 57.81 57.16 57.81 56.61C57.81 56.06 57.63 55.59 57.27 55.22C56.91 54.84 56.48 54.65 55.97 54.65Z" fill="#FFFFFF" fill-opacity="1.000000" fill-rule="nonzero"/>
	<path d="M68.7 59.92L67.22 59.92L64.17 55.85L64.17 59.92L62.6 59.92L62.6 53.3L64.08 53.3L67.13 57.38L67.13 53.3L68.7 53.3L68.7 59.92Z" fill="#FFFFFF" fill-opacity="1.000000" fill-rule="nonzero"/>
	<path d="M48.57 42.08L13.34 42.08L13.34 6.82L48.57 6.82L48.57 42.08ZM13.91 41.52L48.01 41.52L48.01 7.39L13.91 7.39L13.91 41.52Z" fill="#FFFFFF" fill-opacity="1.000000" fill-rule="nonzero"/>
	<path d="M51.75 38.52L16.53 38.52L16.53 3.26L51.75 3.26L51.75 38.52ZM17.09 37.95L51.19 37.95L51.19 3.82L17.09 3.82L17.09 37.95Z" fill="#FFFFFF" fill-opacity="1.000000" fill-rule="nonzero"/>
	<path d="M55.13 35.25L19.9 35.25L19.9 0L55.13 0L55.13 35.25ZM20.46 34.69L54.56 34.69L54.56 0.56L20.46 0.56L20.46 34.69Z" fill="#FFFFFF" fill-opacity="1.000000" fill-rule="nonzero"/>
	<path d="M24.64 22.96L32.43 22.96L32.43 30.75L24.64 30.75L24.64 22.96Z" fill="#FFFFFF" fill-opacity="1.000000" fill-rule="nonzero"/>
</svg>
