<svg width="69.068848" height="60.000000" viewBox="0 0 69.0688 60" fill="none" xmlns="http://www.w3.org/2000/svg" xmlns:xlink="http://www.w3.org/1999/xlink">
	<desc>
			Created with Pixso.
	</desc>
	<defs/>
	<path d="M34.59 0.89C26.12 0.89 19.23 7.78 19.23 16.24C19.23 24.71 26.12 31.6 34.59 31.6C43.05 31.6 49.94 24.71 49.94 16.24C49.94 7.78 43.05 0.89 34.59 0.89ZM34.59 32.49C25.63 32.49 18.34 25.2 18.34 16.24C18.34 7.29 25.63 0 34.59 0C43.54 0 50.83 7.29 50.83 16.24C50.83 25.2 43.54 32.49 34.59 32.49Z" fill="#FFFFFF" fill-opacity="1.000000" fill-rule="nonzero"/>
	<path d="M34.59 2.87C27.21 2.87 21.21 8.87 21.21 16.24C21.21 23.62 27.21 29.62 34.59 29.62C41.96 29.62 47.96 23.62 47.96 16.24C47.96 8.87 41.96 2.87 34.59 2.87ZM34.59 30.52C26.72 30.52 20.31 24.11 20.31 16.24C20.31 8.37 26.72 1.97 34.59 1.97C42.46 1.97 48.86 8.37 48.86 16.24C48.86 24.11 42.46 30.52 34.59 30.52Z" fill="#FFFFFF" fill-opacity="1.000000" fill-rule="nonzero"/>
	<path d="M34.59 4.84C28.3 4.84 23.18 9.96 23.18 16.24C23.18 22.53 28.3 27.65 34.59 27.65C40.87 27.65 45.99 22.53 45.99 16.24C45.99 9.96 40.87 4.84 34.59 4.84ZM34.59 28.54C27.81 28.54 22.29 23.03 22.29 16.24C22.29 9.46 27.81 3.95 34.59 3.95C41.37 3.95 46.88 9.46 46.88 16.24C46.88 23.03 41.37 28.54 34.59 28.54Z" fill="#FFFFFF" fill-opacity="1.000000" fill-rule="nonzero"/>
	<path d="M34.59 6.82C29.39 6.82 25.16 11.05 25.16 16.24C25.16 21.44 29.39 25.67 34.59 25.67C39.78 25.67 44.01 21.44 44.01 16.24C44.01 11.05 39.78 6.82 34.59 6.82ZM34.59 26.57C28.89 26.57 24.26 21.94 24.26 16.24C24.26 10.55 28.89 5.92 34.59 5.92C40.28 5.92 44.91 10.55 44.91 16.24C44.91 21.94 40.28 26.57 34.59 26.57Z" fill="#FFFFFF" fill-opacity="1.000000" fill-rule="nonzero"/>
	<path d="M34.59 8.79C30.48 8.79 27.13 12.13 27.13 16.24C27.13 20.35 30.48 23.7 34.59 23.7C38.7 23.7 42.04 20.35 42.04 16.24C42.04 12.13 38.7 8.79 34.59 8.79ZM34.59 24.59C29.98 24.59 26.24 20.85 26.24 16.24C26.24 11.64 29.98 7.9 34.59 7.9C39.19 7.9 42.93 11.64 42.93 16.24C42.93 20.85 39.19 24.59 34.59 24.59Z" fill="#FFFFFF" fill-opacity="1.000000" fill-rule="nonzero"/>
	<path d="M34.59 10.77C31.57 10.77 29.11 13.22 29.11 16.24C29.11 19.26 31.57 21.72 34.59 21.72C37.61 21.72 40.06 19.26 40.06 16.24C40.06 13.22 37.61 10.77 34.59 10.77ZM34.59 22.62C31.07 22.62 28.21 19.76 28.21 16.24C28.21 12.73 31.07 9.87 34.59 9.87C38.1 9.87 40.96 12.73 40.96 16.24C40.96 19.76 38.1 22.62 34.59 22.62Z" fill="#FFFFFF" fill-opacity="1.000000" fill-rule="nonzero"/>
	<path d="M34.59 12.74C32.65 12.74 31.08 14.31 31.08 16.24C31.08 18.17 32.65 19.75 34.59 19.75C36.52 19.75 38.09 18.17 38.09 16.24C38.09 14.31 36.52 12.74 34.59 12.74ZM34.59 20.64C32.16 20.64 30.19 18.67 30.19 16.24C30.19 13.82 32.16 11.85 34.59 11.85C37.01 11.85 38.98 13.82 38.98 16.24C38.98 18.67 37.01 20.64 34.59 20.64Z" fill="#FFFFFF" fill-opacity="1.000000" fill-rule="nonzero"/>
	<path d="M34.59 14.72C33.74 14.72 33.06 15.4 33.06 16.24C33.06 17.09 33.74 17.77 34.59 17.77C35.43 17.77 36.11 17.09 36.11 16.24C36.11 15.4 35.43 14.72 34.59 14.72ZM34.59 18.67C33.25 18.67 32.16 17.58 32.16 16.24C32.16 14.91 33.25 13.82 34.59 13.82C35.92 13.82 37.01 14.91 37.01 16.24C37.01 17.58 35.92 18.67 34.59 18.67Z" fill="#FFFFFF" fill-opacity="1.000000" fill-rule="nonzero"/>
	<path d="M4.47 49.11C2.89 49.11 1.73 48.78 0.99 48.13C0.32 47.56 0 46.77 0 45.78C0 44.79 0.32 44 0.99 43.42C1.73 42.78 2.89 42.45 4.47 42.45C5.4 42.45 6.17 42.56 6.77 42.77C7.38 42.99 7.85 43.27 8.18 43.64C8.51 44.01 8.74 44.43 8.85 44.91L6.03 44.91C5.75 44.41 5.23 44.16 4.47 44.16C3.82 44.16 3.35 44.35 3.04 44.72C2.8 45.02 2.68 45.37 2.68 45.78C2.68 46.19 2.8 46.54 3.04 46.84C3.35 47.21 3.82 47.39 4.47 47.39C5.23 47.39 5.75 47.15 6.03 46.65L8.85 46.65C8.74 47.13 8.51 47.55 8.18 47.92C7.85 48.29 7.38 48.58 6.77 48.79C6.17 49 5.4 49.11 4.47 49.11Z" fill="#FFFFFF" fill-opacity="1.000000" fill-rule="nonzero"/>
	<path d="M18.64 48.97L16.11 48.97C15.99 48.81 15.91 48.6 15.86 48.35C15.82 48.16 15.76 47.97 15.68 47.79C15.59 47.6 15.45 47.45 15.24 47.32C15.04 47.2 14.74 47.13 14.34 47.12L12.6 47.12L12.6 48.97L9.91 48.97L9.91 42.58L14.27 42.58C15.32 42.58 16.16 42.66 16.8 42.81C17.44 42.96 17.91 43.21 18.2 43.55C18.49 43.88 18.64 44.32 18.64 44.85C18.64 45.3 18.54 45.68 18.34 45.99C18.13 46.29 17.81 46.53 17.37 46.71C17.8 46.89 18.07 47.1 18.2 47.34C18.33 47.59 18.4 47.86 18.43 48.15C18.46 48.41 18.53 48.68 18.64 48.97ZM12.6 45.55L14.13 45.54C14.56 45.54 14.89 45.52 15.14 45.49C15.39 45.45 15.57 45.4 15.68 45.33C15.8 45.26 15.87 45.19 15.91 45.11C15.94 45.03 15.96 44.94 15.96 44.85C15.96 44.77 15.94 44.68 15.91 44.6C15.87 44.51 15.8 44.44 15.68 44.37C15.57 44.31 15.39 44.25 15.14 44.22C14.89 44.18 14.56 44.16 14.13 44.16L12.6 44.16L12.6 45.55Z" fill="#FFFFFF" fill-opacity="1.000000" fill-rule="nonzero"/>
	<path d="M27.4 48.97L19.7 48.97L19.7 42.58L27.05 42.58L27.05 44.16L22.39 44.16L22.39 45.16L26.33 45.16L26.33 46.39L22.39 46.39L22.39 47.39L27.4 47.39L27.4 48.97Z" fill="#FFFFFF" fill-opacity="1.000000" fill-rule="nonzero"/>
	<path d="M38.49 48.97L35.77 48.97L35.17 47.92L31.14 47.92L30.54 48.97L27.82 48.97L31.91 42.58L34.4 42.58L38.49 48.97ZM34.27 46.34L33.16 44.4L32.04 46.34L34.27 46.34Z" fill="#FFFFFF" fill-opacity="1.000000" fill-rule="nonzero"/>
	<path d="M44 48.97L41.32 48.97L41.32 44.16L38.82 44.16L38.82 42.58L46.51 42.58L46.51 44.16L44 44.16L44 48.97Z" fill="#FFFFFF" fill-opacity="1.000000" fill-rule="nonzero"/>
	<path d="M50.17 48.97L47.48 48.97L47.48 42.58L50.17 42.58L50.17 48.97Z" fill="#FFFFFF" fill-opacity="1.000000" fill-rule="nonzero"/>
	<path d="M57.01 48.97L54.52 48.97L50.94 42.58L53.66 42.58L55.77 47.15L57.87 42.58L60.6 42.58L57.01 48.97Z" fill="#FFFFFF" fill-opacity="1.000000" fill-rule="nonzero"/>
	<path d="M69.06 48.97L61.37 48.97L61.37 42.58L68.71 42.58L68.71 44.16L64.05 44.16L64.05 45.16L67.99 45.16L67.99 46.39L64.05 46.39L64.05 47.39L69.06 47.39L69.06 48.97Z" fill="#FFFFFF" fill-opacity="1.000000" fill-rule="nonzero"/>
	<path d="M13.92 60C13.06 60 12.36 59.9 11.83 59.72C11.31 59.53 10.9 59.27 10.63 58.95C10.35 58.63 10.16 58.25 10.07 57.83L12.92 57.83C13.13 58.13 13.46 58.28 13.92 58.28C14.38 58.28 14.72 58.13 14.93 57.83C14.95 57.8 14.96 57.77 14.96 57.74C14.96 57.67 14.85 57.61 14.64 57.57C14.43 57.53 14.11 57.5 13.69 57.48C13.15 57.45 12.6 57.4 12.01 57.3C10.71 57.1 10.06 56.58 10.06 55.73C10.06 55.66 10.06 55.59 10.07 55.51C10.16 55.08 10.35 54.71 10.63 54.38C10.9 54.06 11.31 53.8 11.83 53.62C12.36 53.43 13.06 53.34 13.92 53.34C14.79 53.34 15.48 53.43 16.01 53.62C16.54 53.8 16.94 54.06 17.22 54.38C17.5 54.71 17.68 55.08 17.78 55.51L14.93 55.51C14.72 55.21 14.38 55.05 13.92 55.05C13.46 55.05 13.13 55.21 12.92 55.51C12.9 55.53 12.9 55.55 12.9 55.57C12.9 55.64 13 55.7 13.2 55.73C13.4 55.77 13.71 55.8 14.1 55.82C14.5 55.84 14.92 55.88 15.37 55.94C15.81 55.99 16.23 56.08 16.63 56.21C17.02 56.34 17.32 56.54 17.54 56.8C17.71 57 17.8 57.25 17.8 57.55C17.8 57.64 17.79 57.73 17.78 57.83C17.68 58.25 17.5 58.63 17.22 58.95C16.94 59.27 16.54 59.53 16.01 59.72C15.48 59.9 14.79 60 13.92 60Z" fill="#FFFFFF" fill-opacity="1.000000" fill-rule="nonzero"/>
	<path d="M23.6 59.86L20.92 59.86L20.92 55.05L18.42 55.05L18.42 53.47L26.11 53.47L26.11 55.05L23.6 55.05L23.6 59.86Z" fill="#FFFFFF" fill-opacity="1.000000" fill-rule="nonzero"/>
	<path d="M30.86 60C29.3 60 28.21 59.67 27.57 59.03C27.04 58.48 26.77 57.7 26.77 56.67L26.77 53.47L29.45 53.47L29.45 56.67C29.45 57.11 29.53 57.47 29.68 57.73C29.89 58.09 30.29 58.28 30.86 58.28C31.44 58.28 31.84 58.09 32.05 57.73C32.2 57.46 32.28 57.11 32.28 56.67L32.28 53.47L34.96 53.47L34.96 56.71C34.96 57.71 34.7 58.48 34.17 59.03C33.53 59.67 32.42 60 30.86 60Z" fill="#FFFFFF" fill-opacity="1.000000" fill-rule="nonzero"/>
	<path d="M40.35 59.86L36.07 59.86L36.07 53.47L40.35 53.47C42.1 53.47 43.35 53.71 44.12 54.2C44.74 54.6 45.09 55.13 45.18 55.81C45.21 56.11 45.23 56.39 45.23 56.66C45.23 56.93 45.21 57.22 45.18 57.51C45.14 57.81 45.04 58.1 44.88 58.37C44.72 58.65 44.47 58.9 44.12 59.12C43.77 59.34 43.29 59.52 42.68 59.66C42.08 59.79 41.3 59.86 40.35 59.86ZM40.09 58.28C41.46 58.28 42.23 57.93 42.41 57.25C42.46 57.05 42.48 56.86 42.48 56.66C42.48 56.47 42.45 56.28 42.4 56.09C42.35 55.89 42.25 55.72 42.09 55.56C41.93 55.41 41.69 55.28 41.37 55.19C41.06 55.1 40.63 55.05 40.09 55.05L38.76 55.05L38.76 58.28L40.09 58.28Z" fill="#FFFFFF" fill-opacity="1.000000" fill-rule="nonzero"/>
	<path d="M48.98 59.86L46.3 59.86L46.3 53.47L48.98 53.47L48.98 59.86Z" fill="#FFFFFF" fill-opacity="1.000000" fill-rule="nonzero"/>
	<path d="M54.52 60C52.94 60 51.78 59.67 51.04 59.02C50.37 58.44 50.05 57.66 50.05 56.66C50.05 55.67 50.37 54.89 51.04 54.31C51.78 53.66 52.94 53.34 54.52 53.34C56.1 53.34 57.26 53.66 58.01 54.31C58.67 54.89 59 55.67 59 56.66C59 57.66 58.67 58.44 58.01 59.02C57.26 59.67 56.1 60 54.52 60ZM54.52 58.28C55.17 58.28 55.64 58.09 55.95 57.73C56.19 57.43 56.31 57.07 56.31 56.66C56.31 56.26 56.19 55.9 55.95 55.61C55.64 55.23 55.17 55.05 54.52 55.05C53.87 55.05 53.4 55.23 53.09 55.61C52.85 55.9 52.73 56.26 52.73 56.66C52.73 57.07 52.85 57.43 53.09 57.73C53.4 58.09 53.87 58.28 54.52 58.28Z" fill="#FFFFFF" fill-opacity="1.000000" fill-rule="nonzero"/>
</svg>
