<svg width="73.102051" height="60.000000" viewBox="0 0 73.1021 60" fill="none" xmlns="http://www.w3.org/2000/svg" xmlns:xlink="http://www.w3.org/1999/xlink">
	<desc>
			Created with Pixso.
	</desc>
	<defs/>
	<path d="M3.32 48.2L0 59.83L1.14 59.83L1.97 56.88L6.18 56.88L7.01 59.83L8.16 59.83L4.84 48.2L3.32 48.2ZM4.07 49.37L5.9 55.92L2.24 55.92L4.07 49.37Z" fill="#FFFFFF" fill-opacity="1.000000" fill-rule="nonzero"/>
	<path d="M13.1 48.02L12.07 48.02L12.07 57.62L11.98 59.83L12.84 59.83L12.98 58.77C13.4 59.45 14.12 60 15.32 60C17.46 60 18.31 58.27 18.31 56.1L18.31 55.74C18.31 53.57 17.46 51.85 15.32 51.85C14.22 51.85 13.52 52.32 13.1 52.91L13.1 48.02ZM13.1 53.98C13.41 53.47 14.02 52.77 15.08 52.77C16.56 52.77 17.25 53.93 17.25 55.74L17.25 56.1C17.25 57.91 16.56 59.06 15.08 59.06C14.02 59.06 13.41 58.37 13.1 57.85L13.1 53.98Z" fill="#FFFFFF" fill-opacity="1.000000" fill-rule="nonzero"/>
	<path d="M25.38 59.12C23.83 59.12 23.41 58.3 23.41 57.44L22.37 57.44L22.37 57.5C22.37 58.7 23.17 60 25.38 60C27.32 60 28.4 59.05 28.4 57.69L28.4 57.62C28.4 56.18 27.56 55.62 25.59 55.46C23.89 55.33 23.51 54.89 23.51 54.07C23.51 53.2 24.2 52.72 25.38 52.72C26.85 52.72 27.29 53.41 27.29 54.53L28.31 54.53L28.31 54.47C28.31 52.94 27.53 51.85 25.38 51.85C23.56 51.85 22.48 52.72 22.48 54.07L22.48 54.16C22.48 55.33 23.08 56.07 25.19 56.25C26.71 56.38 27.33 56.63 27.33 57.69C27.33 58.56 26.66 59.12 25.38 59.12Z" fill="#FFFFFF" fill-opacity="1.000000" fill-rule="nonzero"/>
	<path d="M34.48 52.01L34.48 49.79L33.44 49.79L33.44 52.01L32.2 52.01L32.2 52.94L33.44 52.94L33.44 57.66C33.44 59.36 34.4 60 35.73 60C36.35 60 36.71 59.88 36.83 59.83L36.83 58.93C36.71 58.99 36.31 59.06 35.98 59.06C34.99 59.06 34.48 58.77 34.48 57.53L34.48 52.94L36.97 52.94L36.97 52.01L34.48 52.01Z" fill="#FFFFFF" fill-opacity="1.000000" fill-rule="nonzero"/>
	<path d="M44.24 51.85C43.19 51.85 42.46 52.39 42.05 53.04L41.9 52.01L41.05 52.01L41.14 54.22L41.14 59.83L42.17 59.83L42.17 54.03C42.49 53.51 43.07 52.85 44.25 52.85L44.46 52.85L44.46 51.86C44.44 51.86 44.34 51.85 44.24 51.85Z" fill="#FFFFFF" fill-opacity="1.000000" fill-rule="nonzero"/>
	<path d="M53.43 59.83L54.29 59.83L54.2 57.62L54.2 54.75C54.2 53.03 53.54 51.85 51.37 51.85C49.06 51.85 48.55 53.28 48.55 54.46L48.55 54.59L49.54 54.59C49.54 53.57 49.88 52.72 51.35 52.72C52.74 52.72 53.17 53.41 53.17 54.75L53.17 54.96L50.81 55.33C49.54 55.52 48.25 56.01 48.25 57.71L48.25 57.85C48.25 59.11 49.08 60 50.51 60C51.87 60 52.75 59.42 53.27 58.74L53.43 59.83ZM50.78 59.1C49.73 59.1 49.28 58.46 49.28 57.77L49.28 57.63C49.28 56.75 49.89 56.26 50.89 56.08L53.17 55.71L53.17 57.85C52.89 58.31 52.22 59.1 50.78 59.1Z" fill="#FFFFFF" fill-opacity="1.000000" fill-rule="nonzero"/>
	<path d="M59.43 56.1L59.43 55.74C59.43 53.96 60.1 52.77 61.65 52.77C63.07 52.77 63.65 53.68 63.65 54.87L64.64 54.87L64.64 54.58C64.64 53.31 63.8 51.85 61.64 51.85C59.35 51.85 58.38 53.57 58.38 55.74L58.38 56.1C58.38 58.27 59.35 60 61.64 60C63.8 60 64.64 58.59 64.64 57.35L64.64 57.12L63.65 57.12C63.65 58.13 63.12 59.06 61.65 59.06C60.1 59.06 59.43 57.88 59.43 56.1Z" fill="#FFFFFF" fill-opacity="1.000000" fill-rule="nonzero"/>
	<path d="M70.6 52.01L70.6 49.79L69.57 49.79L69.57 52.01L68.33 52.01L68.33 52.94L69.57 52.94L69.57 57.66C69.57 59.36 70.53 60 71.86 60C72.48 60 72.83 59.88 72.95 59.83L72.95 58.93C72.83 58.99 72.43 59.06 72.11 59.06C71.12 59.06 70.6 58.77 70.6 57.53L70.6 52.94L73.1 52.94L73.1 52.01L70.6 52.01Z" fill="#FFFFFF" fill-opacity="1.000000" fill-rule="nonzero"/>
	<path d="M52.7 32.83L53.7 32.83L53.7 33.83L52.7 33.83L52.7 32.83Z" fill="#FFFFFF" fill-opacity="1.000000" fill-rule="nonzero"/>
	<path d="M19.86 1.01L20.88 1.01L20.88 32.83L19.86 32.83L19.86 1.01Z" fill="#FFFFFF" fill-opacity="1.000000" fill-rule="nonzero"/>
	<path d="M19.86 32.83L20.88 32.83L20.88 33.83L19.86 33.83L19.86 32.83Z" fill="#FFFFFF" fill-opacity="1.000000" fill-rule="nonzero"/>
	<path d="M52.7 1.01L53.7 1.01L53.7 32.83L52.7 32.83L52.7 1.01Z" fill="#FFFFFF" fill-opacity="1.000000" fill-rule="nonzero"/>
	<path d="M20.88 32.83L52.7 32.83L52.7 33.83L20.88 33.83L20.88 32.83Z" fill="#FFFFFF" fill-opacity="1.000000" fill-rule="nonzero"/>
	<path d="M52.7 0L53.7 0L53.7 1.01L52.7 1.01L52.7 0Z" fill="#FFFFFF" fill-opacity="1.000000" fill-rule="nonzero"/>
	<path d="M19.86 0L20.88 0L20.88 1.01L19.86 1.01L19.86 0Z" fill="#FFFFFF" fill-opacity="1.000000" fill-rule="nonzero"/>
	<path d="M20.88 0L52.7 0L52.7 1.01L20.88 1.01L20.88 0Z" fill="#FFFFFF" fill-opacity="1.000000" fill-rule="nonzero"/>
	<path d="M24.36 4.5L48.97 4.5L48.97 29.1L24.36 29.1L24.36 4.5Z" fill="#FFFFFF" fill-opacity="1.000000" fill-rule="nonzero"/>
	<path d="M31.57 15.64L41.9 15.64L41.9 17.93L31.57 17.93L31.57 15.64Z" fill="#090909" fill-opacity="1.000000" fill-rule="nonzero"/>
</svg>
