<svg width="105.297852" height="30.000000" viewBox="0 0 105.298 30" fill="none" xmlns="http://www.w3.org/2000/svg" xmlns:xlink="http://www.w3.org/1999/xlink">
	<desc>
			Created with Pixso.
	</desc>
	<defs/>
	<path d="M0 0L105.29 0L105.29 30L0 30L0 0ZM1.42 1.42L1.42 28.57L103.86 28.57L103.86 1.42L1.42 1.42Z" fill="#FFFFFF" fill-opacity="1.000000" fill-rule="evenodd"/>
	<path d="M3.52 3.4L52.62 3.4L52.62 26.61L3.52 26.61L3.52 3.4Z" fill="#FFFFFF" fill-opacity="1.000000" fill-rule="nonzero"/>
	<path d="M9.73 18.93L10.65 18.93L13.75 11.12L12.71 11.12L11.41 14.41L10.19 17.51L8.97 14.41L7.67 11.12L6.62 11.12L9.73 18.93Z" fill="#090909" fill-opacity="1.000000" fill-rule="nonzero"/>
	<path d="M15.92 18.93L16.9 18.93L16.9 11.12L15.92 11.12L15.92 18.93Z" fill="#090909" fill-opacity="1.000000" fill-rule="nonzero"/>
	<path d="M22.62 19.07C24.32 19.07 25.43 18.23 25.43 16.87C25.43 15.73 24.66 15.04 22.66 14.54C21.15 14.18 20.64 13.78 20.64 13.13C20.64 12.38 21.31 11.91 22.43 11.91C23.57 11.91 24.29 12.49 24.31 13.43L25.28 13.43C25.27 11.91 24.18 10.98 22.43 10.98C20.72 10.98 19.64 11.81 19.64 13.13C19.64 14.33 20.5 15 22.42 15.46C23.82 15.79 24.41 16.18 24.41 16.91C24.41 17.68 23.72 18.13 22.62 18.13C21.4 18.13 20.56 17.53 20.53 16.53L19.55 16.53C19.56 18.06 20.76 19.07 22.62 19.07Z" fill="#090909" fill-opacity="1.000000" fill-rule="nonzero"/>
	<path d="M28.08 18.93L29.06 18.93L29.06 11.12L28.08 11.12L28.08 18.93Z" fill="#090909" fill-opacity="1.000000" fill-rule="nonzero"/>
	<path d="M35.72 19.07C38.1 19.07 39.77 17.4 39.77 15.02C39.77 12.65 38.1 10.98 35.72 10.98C33.35 10.98 31.69 12.65 31.69 15.02C31.69 17.4 33.35 19.07 35.72 19.07ZM32.69 15.02C32.69 13.21 33.93 11.96 35.72 11.96C37.52 11.96 38.75 13.21 38.75 15.02C38.75 16.84 37.52 18.09 35.72 18.09C33.93 18.09 32.69 16.84 32.69 15.02Z" fill="#090909" fill-opacity="1.000000" fill-rule="nonzero"/>
	<path d="M42.38 18.93L43.35 18.93L43.35 12.82L47.67 18.93L48.58 18.93L48.58 11.12L47.62 11.12L47.62 17.23L43.31 11.12L42.38 11.12L42.38 18.93Z" fill="#090909" fill-opacity="1.000000" fill-rule="nonzero"/>
	<path d="M59.8 18.85C61.74 18.85 62.89 17.94 62.89 16.4C62.89 15.11 62.05 14.35 60.16 13.93C59.16 13.71 58.79 13.46 58.79 13.06C58.79 12.68 59.12 12.45 59.65 12.45C60.27 12.45 60.63 12.77 60.63 13.36L62.74 13.36C62.74 11.76 61.52 10.72 59.6 10.72C57.76 10.72 56.63 11.63 56.63 13.1C56.63 14.42 57.48 15.23 59.24 15.57C60.19 15.76 60.65 16.05 60.65 16.49C60.65 16.88 60.32 17.1 59.77 17.1C59.12 17.1 58.74 16.76 58.74 16.16L56.57 16.16C56.57 17.84 57.77 18.85 59.8 18.85Z" fill="#FFFFFF" fill-opacity="1.000000" fill-rule="nonzero"/>
	<path d="M65.99 18.69L68.23 18.69L68.23 12.97L70.6 12.97L70.6 10.89L63.61 10.89L63.61 12.97L65.99 12.97L65.99 18.69Z" fill="#FFFFFF" fill-opacity="1.000000" fill-rule="nonzero"/>
	<path d="M75.09 18.85C77.2 18.85 78.5 17.57 78.5 15.48L78.5 10.89L76.26 10.89L76.26 15.33C76.26 16.26 75.87 16.75 75.09 16.75C74.31 16.75 73.92 16.26 73.92 15.33L73.92 10.89L71.67 10.89L71.67 15.48C71.67 17.57 72.99 18.85 75.09 18.85Z" fill="#FFFFFF" fill-opacity="1.000000" fill-rule="nonzero"/>
	<path d="M80.1 18.69L83.41 18.69C85.93 18.69 87.6 17.14 87.6 14.79C87.6 12.45 85.93 10.89 83.41 10.89L80.1 10.89L80.1 18.69ZM82.35 16.67L82.35 12.9L83.34 12.9C84.53 12.9 85.3 13.64 85.3 14.79C85.3 15.93 84.53 16.67 83.34 16.67L82.35 16.67Z" fill="#FFFFFF" fill-opacity="1.000000" fill-rule="nonzero"/>
	<path d="M88.8 18.69L91.05 18.69L91.05 10.89L88.8 10.89L88.8 18.69Z" fill="#FFFFFF" fill-opacity="1.000000" fill-rule="nonzero"/>
	<path d="M96.5 18.85C98.99 18.85 100.75 17.17 100.75 14.79C100.75 12.4 98.99 10.72 96.5 10.72C94.02 10.72 92.25 12.4 92.25 14.79C92.25 17.17 94.02 18.85 96.5 18.85ZM94.54 14.79C94.54 13.62 95.35 12.8 96.5 12.8C97.66 12.8 98.46 13.62 98.46 14.79C98.46 15.96 97.66 16.77 96.5 16.77C95.35 16.77 94.54 15.96 94.54 14.79Z" fill="#FFFFFF" fill-opacity="1.000000" fill-rule="nonzero"/>
</svg>
