<svg width="59.999023" height="60.000000" viewBox="0 0 59.999 60" fill="none" xmlns="http://www.w3.org/2000/svg" xmlns:xlink="http://www.w3.org/1999/xlink">
	<desc>
			Created with Pixso.
	</desc>
	<defs/>
	<path d="M29.99 60C21.99 60 14.44 56.88 8.78 51.21C3.11 45.55 0 38 0 29.99C0 21.99 3.11 14.44 8.78 8.78C14.44 3.11 21.99 0 29.99 0C38 0 45.55 3.11 51.21 8.78C56.88 14.46 59.99 21.99 59.99 29.99C59.99 38 56.88 45.55 51.21 51.21C45.55 56.88 38 60 29.99 60ZM29.99 1.79C22.46 1.79 15.38 4.73 10.05 10.05C4.73 15.38 1.79 22.47 1.79 29.99C1.79 37.52 4.73 44.61 10.05 49.93C15.38 55.26 22.46 58.2 29.99 58.2C37.52 58.2 44.61 55.26 49.93 49.93C55.26 44.61 58.2 37.52 58.2 29.99C58.2 22.47 55.26 15.38 49.93 10.05C44.61 4.73 37.52 1.79 29.99 1.79Z" fill="#FFFFFF" fill-opacity="1.000000" fill-rule="nonzero"/>
	<path d="M36.13 16.99C36.01 16.88 35.82 16.89 35.71 17.01L33.28 19.63L33.11 19.48L35.54 16.86C35.65 16.73 35.65 16.55 35.53 16.43C35.41 16.32 35.22 16.33 35.1 16.45L32.67 19.07L32.51 18.92L34.94 16.3C35.05 16.17 35.04 15.98 34.92 15.87C34.8 15.76 34.61 15.77 34.5 15.89L32.07 18.51L31.9 18.36L34.33 15.74C34.44 15.61 34.44 15.42 34.32 15.31C34.2 15.2 34.01 15.21 33.89 15.33L31.46 17.95L31.46 17.95L31.39 18.03C31.32 18.1 31.26 18.18 31.2 18.25L31.2 18.25C31 18.53 30.88 18.82 30.88 19.16C30.88 19.52 31 19.86 31.23 20.14C31.08 20.3 30.4 20.96 29.57 21.76C28.59 20.72 27.72 19.79 27.54 19.58C27.8 19.3 27.95 18.95 27.96 18.57C27.98 18.21 27.87 17.9 27.67 17.59L27.67 17.59L27.66 17.59C27.61 17.51 27.55 17.43 27.48 17.35L27.41 17.26L27.4 17.26L27.11 16.95C25.46 15.51 24.65 15.39 24.17 15.8C23.61 16.28 23.42 17.11 24.68 19.04L24.95 19.4L24.95 19.4L24.98 19.44C25.32 19.85 25.64 20.08 26.11 20.14C26.46 20.18 26.81 20.11 27.12 19.92C27.3 20.14 28.09 21.18 28.98 22.34C27.76 23.52 26.44 24.79 26.1 25.13C25.86 25.36 25.73 25.52 25.73 25.52C25.49 25.77 25.51 26.16 25.76 26.4C26.02 26.63 26.41 26.62 26.64 26.37C26.64 26.37 26.81 26.19 26.95 26.02L26.95 26.02C27.17 25.78 28.35 24.35 29.48 23.01C30.54 24.4 31.58 25.78 31.78 26.03L31.78 26.03C31.93 26.22 32.09 26.41 32.09 26.41C32.33 26.69 32.75 26.72 33.03 26.49C33.31 26.25 33.34 25.83 33.11 25.56C33.11 25.56 32.98 25.38 32.73 25.13C32.41 24.78 31.23 23.53 30.07 22.3C30.83 21.4 31.46 20.64 31.61 20.48C31.9 20.66 32.22 20.75 32.56 20.72C33 20.68 33.31 20.48 33.65 20.11L33.68 20.08L33.68 20.08L36.15 17.42C36.26 17.29 36.25 17.11 36.13 16.99Z" fill="#FFFFFF" fill-opacity="1.000000" fill-rule="nonzero"/>
	<path d="M21.08 30.28C21.68 30.28 22.22 30.43 22.68 30.73L22.29 31.54C22.08 31.42 21.85 31.31 21.6 31.23C21.36 31.16 21.16 31.12 20.99 31.12C20.69 31.12 20.54 31.21 20.54 31.41C20.54 31.54 20.61 31.64 20.76 31.72C20.91 31.8 21.09 31.86 21.3 31.92C21.51 31.98 21.72 32.04 21.93 32.12C22.14 32.2 22.32 32.33 22.47 32.51C22.62 32.69 22.69 32.91 22.69 33.18C22.69 33.57 22.54 33.88 22.23 34.1C21.93 34.31 21.54 34.42 21.06 34.42C20.73 34.42 20.39 34.37 20.07 34.25C19.74 34.14 19.45 33.98 19.21 33.77L19.61 32.98C19.81 33.16 20.05 33.3 20.33 33.42C20.61 33.53 20.86 33.59 21.08 33.59C21.24 33.59 21.37 33.56 21.46 33.5C21.56 33.44 21.6 33.35 21.6 33.24C21.6 33.12 21.55 33.03 21.45 32.95C21.34 32.88 21.21 32.82 21.05 32.79C20.89 32.75 20.72 32.7 20.53 32.64C20.35 32.58 20.17 32.51 20.01 32.43C19.85 32.36 19.72 32.24 19.62 32.08C19.51 31.92 19.46 31.73 19.46 31.51C19.46 31.13 19.6 30.84 19.9 30.61C20.2 30.39 20.59 30.28 21.08 30.28Z" fill="#FFFFFF" fill-opacity="1.000000" fill-rule="nonzero"/>
	<path d="M27.31 30.33L27.31 32.68C27.31 33.22 27.15 33.65 26.81 33.96C26.48 34.28 26.03 34.44 25.46 34.44C24.89 34.44 24.43 34.28 24.1 33.96C23.76 33.65 23.59 33.22 23.59 32.68L23.59 30.33L24.62 30.33L24.62 32.68C24.62 32.95 24.7 33.17 24.86 33.33C25.01 33.49 25.22 33.57 25.47 33.57C25.72 33.57 25.91 33.49 26.06 33.33C26.21 33.17 26.29 32.96 26.29 32.68L26.29 30.33L27.31 30.33Z" fill="#FFFFFF" fill-opacity="1.000000" fill-rule="nonzero"/>
	<path d="M28.46 30.33L30.23 30.33C30.75 30.33 31.16 30.45 31.44 30.7C31.73 30.94 31.87 31.29 31.87 31.74C31.87 32.22 31.73 32.59 31.44 32.85C31.16 33.11 30.75 33.25 30.23 33.25L29.5 33.25L29.5 34.39L28.46 34.39L28.46 30.33ZM29.5 31.14L29.5 32.43L30.18 32.43C30.41 32.43 30.59 32.38 30.71 32.27C30.83 32.15 30.9 31.99 30.9 31.78C30.9 31.57 30.83 31.41 30.71 31.3C30.59 31.19 30.41 31.14 30.18 31.14L29.5 31.14Z" fill="#FFFFFF" fill-opacity="1.000000" fill-rule="nonzero"/>
	<path d="M36 31.14L33.85 31.14L33.85 31.95L35.79 31.95L35.79 32.76L33.85 32.76L33.85 33.58L36.06 33.58L36.06 34.39L32.82 34.39L32.82 30.33L36 30.33L36 31.14Z" fill="#FFFFFF" fill-opacity="1.000000" fill-rule="nonzero"/>
	<path d="M39.58 34.39L38.98 33.25L38.17 33.25L38.17 34.39L37.13 34.39L37.13 30.33L38.95 30.33C39.49 30.33 39.9 30.45 40.2 30.7C40.49 30.94 40.64 31.29 40.64 31.74C40.64 32.37 40.39 32.8 39.9 33.05L40.76 34.39L39.58 34.39ZM38.17 32.43L38.95 32.43C39.17 32.43 39.35 32.38 39.47 32.27C39.6 32.15 39.66 31.99 39.66 31.78C39.66 31.57 39.6 31.41 39.47 31.3C39.35 31.19 39.17 31.14 38.95 31.14L38.17 31.14L38.17 32.43Z" fill="#FFFFFF" fill-opacity="1.000000" fill-rule="nonzero"/>
	<path d="M24.18 37.89L22.2 37.89L22.2 38.83L24.02 38.83L24.02 39.65L22.2 39.65L22.2 41.14L21.17 41.14L21.17 37.08L24.18 37.08L24.18 37.89Z" fill="#FFFFFF" fill-opacity="1.000000" fill-rule="nonzero"/>
	<path d="M27 37.05C27.64 37.05 28.16 37.24 28.58 37.64C29 38.03 29.21 38.52 29.21 39.11C29.21 39.7 28.99 40.2 28.57 40.59C28.15 40.99 27.63 41.19 27 41.19C26.38 41.19 25.85 40.99 25.44 40.6C25.02 40.2 24.81 39.7 24.81 39.11C24.81 38.52 25.02 38.03 25.44 37.64C25.85 37.24 26.38 37.05 27 37.05ZM27.02 37.91C26.7 37.91 26.43 38.03 26.2 38.26C25.98 38.49 25.87 38.77 25.87 39.12C25.87 39.46 25.98 39.74 26.2 39.98C26.43 40.21 26.7 40.33 27.01 40.33C27.33 40.33 27.6 40.21 27.81 39.98C28.03 39.74 28.14 39.46 28.14 39.12C28.14 38.77 28.03 38.49 27.81 38.26C27.6 38.03 27.33 37.91 27.02 37.91Z" fill="#FFFFFF" fill-opacity="1.000000" fill-rule="nonzero"/>
	<path d="M32.08 37.05C32.71 37.05 33.24 37.24 33.66 37.64C34.07 38.03 34.28 38.52 34.28 39.11C34.28 39.7 34.07 40.2 33.65 40.59C33.23 40.99 32.71 41.19 32.08 41.19C31.45 41.19 30.93 40.99 30.52 40.6C30.1 40.2 29.89 39.7 29.89 39.11C29.89 38.52 30.1 38.03 30.52 37.64C30.93 37.24 31.45 37.05 32.08 37.05ZM32.09 37.91C31.78 37.91 31.51 38.03 31.28 38.26C31.06 38.49 30.94 38.77 30.94 39.12C30.94 39.46 31.06 39.74 31.28 39.98C31.51 40.21 31.78 40.33 32.09 40.33C32.41 40.33 32.67 40.21 32.89 39.98C33.11 39.74 33.22 39.46 33.22 39.12C33.22 38.77 33.11 38.49 32.89 38.26C32.67 38.03 32.41 37.91 32.09 37.91Z" fill="#FFFFFF" fill-opacity="1.000000" fill-rule="nonzero"/>
	<path d="M35.23 37.08L36.98 37.08C37.62 37.08 38.14 37.27 38.54 37.64C38.94 38.02 39.14 38.51 39.14 39.11C39.14 39.71 38.94 40.2 38.53 40.58C38.12 40.96 37.59 41.14 36.94 41.14L35.23 41.14L35.23 37.08ZM36.27 37.9L36.27 40.32L37 40.32C37.32 40.32 37.58 40.21 37.78 39.99C37.99 39.76 38.09 39.48 38.09 39.12C38.09 38.76 37.98 38.47 37.77 38.25C37.56 38.02 37.29 37.9 36.96 37.9L36.27 37.9Z" fill="#FFFFFF" fill-opacity="1.000000" fill-rule="nonzero"/>
	<path d="M24.57 44.62C24.79 44.62 24.98 44.68 25.16 44.79L25.04 45.04C24.87 44.94 24.7 44.89 24.55 44.89C24.46 44.89 24.4 44.9 24.35 44.93C24.3 44.96 24.27 45.01 24.27 45.06C24.27 45.12 24.3 45.17 24.34 45.21C24.38 45.24 24.44 45.27 24.51 45.29C24.57 45.31 24.65 45.33 24.73 45.36C24.81 45.39 24.88 45.42 24.95 45.45C25.01 45.48 25.07 45.53 25.11 45.6C25.16 45.66 25.18 45.74 25.18 45.84C25.18 45.99 25.12 46.1 25 46.19C24.88 46.28 24.73 46.32 24.55 46.32C24.42 46.32 24.29 46.3 24.17 46.25C24.05 46.2 23.95 46.14 23.86 46.06L23.98 45.81C24.06 45.89 24.16 45.95 24.26 45.99C24.36 46.04 24.46 46.06 24.55 46.06C24.65 46.06 24.73 46.04 24.78 46C24.84 45.97 24.86 45.92 24.86 45.85C24.86 45.8 24.84 45.75 24.8 45.71C24.75 45.67 24.7 45.64 24.63 45.62C24.56 45.6 24.49 45.58 24.41 45.55C24.33 45.53 24.26 45.5 24.19 45.47C24.12 45.44 24.07 45.39 24.02 45.33C23.98 45.26 23.96 45.18 23.96 45.09C23.96 44.95 24.01 44.83 24.12 44.75C24.24 44.66 24.38 44.62 24.57 44.62Z" fill="#FFFFFF" fill-opacity="1.000000" fill-rule="nonzero"/>
	<path d="M26.88 44.89L25.96 44.89L25.96 45.34L26.78 45.34L26.78 45.59L25.96 45.59L25.96 46.06L26.91 46.06L26.91 46.31L25.68 46.31L25.68 44.63L26.88 44.63L26.88 44.89Z" fill="#FFFFFF" fill-opacity="1.000000" fill-rule="nonzero"/>
	<path d="M27.7 46.31L27.42 46.31L27.42 44.63L27.7 44.63L27.7 46.31Z" fill="#FFFFFF" fill-opacity="1.000000" fill-rule="nonzero"/>
	<path d="M29.46 44.89L28.93 44.89L28.93 46.31L28.65 46.31L28.65 44.89L28.12 44.89L28.12 44.63L29.46 44.63L29.46 44.89Z" fill="#FFFFFF" fill-opacity="1.000000" fill-rule="nonzero"/>
	<path d="M31.09 46.31L30.8 46.31L30.8 44.88L30.47 44.88L30.47 44.63L31.09 44.63L31.09 46.31Z" fill="#FFFFFF" fill-opacity="1.000000" fill-rule="nonzero"/>
	<path d="M32.19 46.33C32.01 46.33 31.84 46.28 31.69 46.2L31.8 45.98C31.91 46.06 32.03 46.09 32.17 46.09C32.33 46.09 32.45 46.04 32.53 45.93C32.61 45.82 32.64 45.67 32.64 45.48C32.55 45.64 32.4 45.72 32.18 45.72C32.01 45.72 31.88 45.67 31.78 45.58C31.69 45.48 31.64 45.35 31.64 45.18C31.64 45.01 31.69 44.87 31.8 44.77C31.91 44.67 32.05 44.62 32.23 44.62C32.44 44.62 32.61 44.69 32.73 44.84C32.85 44.98 32.92 45.18 32.92 45.44C32.92 45.71 32.85 45.92 32.72 46.08C32.59 46.25 32.41 46.33 32.19 46.33ZM32.23 45.5C32.34 45.5 32.43 45.47 32.5 45.41C32.56 45.34 32.6 45.27 32.59 45.18C32.6 45.1 32.57 45.02 32.51 44.96C32.44 44.9 32.36 44.87 32.25 44.87C32.14 44.87 32.06 44.89 32 44.95C31.93 45.01 31.91 45.09 31.91 45.19C31.91 45.28 31.93 45.36 31.99 45.42C32.05 45.47 32.13 45.5 32.23 45.5Z" fill="#FFFFFF" fill-opacity="1.000000" fill-rule="nonzero"/>
	<path d="M33.83 46.33C33.65 46.33 33.48 46.28 33.33 46.2L33.44 45.98C33.55 46.06 33.68 46.09 33.82 46.09C33.97 46.09 34.09 46.04 34.17 45.93C34.25 45.82 34.29 45.67 34.29 45.48C34.19 45.64 34.04 45.72 33.83 45.72C33.66 45.72 33.52 45.67 33.43 45.58C33.33 45.48 33.28 45.35 33.28 45.18C33.28 45.01 33.34 44.87 33.44 44.77C33.55 44.67 33.7 44.62 33.88 44.62C34.09 44.62 34.25 44.69 34.38 44.84C34.5 44.98 34.56 45.18 34.56 45.44C34.56 45.71 34.49 45.92 34.36 46.08C34.23 46.25 34.06 46.33 33.83 46.33ZM33.88 45.5C33.99 45.5 34.08 45.47 34.14 45.41C34.21 45.34 34.24 45.27 34.24 45.18C34.24 45.1 34.21 45.02 34.15 44.96C34.09 44.9 34 44.87 33.89 44.87C33.79 44.87 33.7 44.89 33.64 44.95C33.58 45.01 33.55 45.09 33.55 45.19C33.55 45.28 33.58 45.36 33.64 45.42C33.7 45.47 33.78 45.5 33.88 45.5Z" fill="#FFFFFF" fill-opacity="1.000000" fill-rule="nonzero"/>
	<path d="M35.52 44.62C35.68 44.62 35.81 44.66 35.91 44.74C36.01 44.81 36.06 44.91 36.06 45.04C36.06 45.19 35.95 45.37 35.75 45.59L35.31 46.06L36.13 46.06L36.13 46.31L34.94 46.31L34.94 46.11L35.56 45.44C35.69 45.3 35.76 45.18 35.76 45.08C35.76 45.02 35.74 44.97 35.69 44.93C35.64 44.89 35.57 44.87 35.48 44.87C35.33 44.87 35.17 44.94 35.02 45.08L34.91 44.86C35.11 44.7 35.31 44.62 35.52 44.62Z" fill="#FFFFFF" fill-opacity="1.000000" fill-rule="nonzero"/>
</svg>
