<svg width="1801.000000" height="148.500000" viewBox="0 0 1801 148.5" fill="none" xmlns="http://www.w3.org/2000/svg" xmlns:xlink="http://www.w3.org/1999/xlink">
	<desc>
			Created with Pixso.
	</desc>
	<defs/>
	<path d="M129.47 121.36L32.11 121.36L32.11 0L0 0L0 148.5L129.47 148.5L129.47 121.36ZM228.49 101.6L228.49 148.5L196.15 148.5L196.15 101.6L131.02 0L168.27 0L212.69 71.92L256.37 0L293.63 0L228.49 101.6ZM213.28 72.87L212.7 73.83L212.11 72.88L167.72 1L132.85 1L133.49 2L197.15 101.3L197.15 147.5L227.49 147.5L227.49 101.3L291.16 2L291.8 1L256.93 1L213.28 72.87ZM462.05 106.84L462.05 1L492.17 1L492.17 147.5L462.05 147.5L354.14 42.06L353.14 41.08L353.14 147.5L323.02 147.5L323.02 1L353.14 1L461.05 107.26L462.05 108.24L462.05 106.84ZM461.05 105.85L353.55 0L322.02 0L322.02 148.5L354.14 148.5L354.14 43.46L461.64 148.5L493.17 148.5L493.17 0L461.05 0L461.05 105.85ZM675.58 106.84L675.58 1L705.7 1L705.7 147.5L675.58 147.5L567.67 42.06L566.67 41.08L566.67 147.5L536.56 147.5L536.56 1L566.67 1L674.58 107.26L675.58 108.24L675.58 106.84ZM674.58 105.85L567.08 0L535.56 0L535.56 148.5L567.67 148.5L567.67 43.46L675.18 148.5L706.7 148.5L706.7 0L674.58 0L674.58 105.85ZM31.11 2L31.11 122.36L128.47 122.36L128.47 147.5L1 147.5L1 1L31.11 1L31.11 2Z" fill="#FFFFFF" fill-opacity="1.000000" fill-rule="evenodd"/>
	<path d="M874.6 147.28C855.9 147.28 839.89 144.38 826.56 138.58Q810.11 131.17 799.98 118.65L799.98 118.65L799.98 118.65Q797.93 116.12 796.13 113.37C789.18 102.5 785.7 89.46 785.7 74.25C785.7 58.88 789.18 45.77 796.13 34.9Q798.15 31.81 800.5 28.99L800.5 28.99Q810.53 16.95 826.56 9.91C839.89 3.97 855.9 1 874.6 1Q902.85 1 922.63 9.91C935.82 15.7 945.89 24.04 952.85 34.9C959.95 45.77 963.5 58.88 963.5 74.25C963.5 89.46 959.95 102.5 952.85 113.37C945.89 124.24 935.82 132.64 922.63 138.58Q902.85 147.28 874.6 147.28ZM1126.56 97.07L1155.92 97.07C1156.5 102 1158.74 106.49 1162.66 110.54C1166.71 114.46 1172 117.57 1178.52 119.89C1185.04 122.06 1192.36 123.15 1200.48 123.15C1207.87 123.15 1213.94 122.35 1218.73 120.76C1223.52 119.17 1227.06 116.92 1229.38 114.02C1231.69 111.12 1232.86 107.65 1232.86 103.59Q1232.86 99.97 1231.21 97.42L1231.21 97.42Q1230.18 95.84 1228.52 94.68C1225.62 92.5 1221.05 90.76 1214.81 89.46C1208.59 88.01 1200.4 86.56 1190.26 85.11C1182.29 83.95 1174.76 82.36 1167.66 80.33C1160.55 78.16 1154.25 75.4 1148.75 72.07C1143.38 68.74 1139.11 64.68 1135.92 59.9C1132.88 54.97 1131.36 49.18 1131.36 42.51Q1131.36 34.41 1134.32 27.6Q1135.91 24.01 1138.31 20.77C1143.09 14.54 1150.12 9.69 1159.4 6.21C1168.67 2.73 1180.04 1 1193.52 1C1213.81 1 1229.38 5.34 1240.25 14.04Q1246.92 19.21 1250.82 25.98L1250.82 25.98L1250.82 25.98Q1256.6 35.99 1256.34 49.47L1228.07 49.47C1227.5 40.92 1223.88 34.76 1217.21 30.99C1210.68 27.22 1202.43 25.34 1192.43 25.34C1183.16 25.34 1175.48 26.72 1169.39 29.47Q1165.07 31.47 1162.85 34.85L1162.85 34.85Q1160.48 38.45 1160.48 43.6C1160.48 46.21 1161.21 48.52 1162.66 50.55C1164.1 52.44 1166.56 54.1 1170.05 55.55C1173.52 57 1178.23 58.38 1184.17 59.68C1190.12 60.99 1197.51 62.29 1206.34 63.59C1214.6 64.75 1222.06 66.35 1228.73 68.38C1235.54 70.26 1241.34 72.8 1246.12 75.98C1251.05 79.03 1254.81 82.94 1257.42 87.72C1260.03 92.5 1261.34 98.37 1261.34 105.33C1261.34 113.88 1259.09 121.34 1254.6 127.72C1250.25 133.95 1243.43 138.8 1234.17 142.28C1225.04 145.76 1213.16 147.5 1198.52 147.5C1188.09 147.5 1178.89 146.41 1170.92 144.24C1162.94 141.92 1156.06 138.87 1150.27 135.11C1144.47 131.34 1139.76 127.21 1136.14 122.72C1132.52 118.22 1129.91 113.73 1128.31 109.24Q1126.14 102.5 1126.56 97.07ZM1305.81 97.07L1276.47 97.07C1276.18 100.69 1276.76 104.75 1278.21 109.24C1279.8 113.73 1282.41 118.22 1286.03 122.72C1289.66 127.21 1294.37 131.34 1300.16 135.11C1305.96 138.87 1312.84 141.92 1320.81 144.24C1328.78 146.41 1337.98 147.5 1348.42 147.5C1363.05 147.5 1374.93 145.76 1384.06 142.28C1393.34 138.8 1400.15 133.95 1404.49 127.72C1408.99 121.34 1411.23 113.88 1411.23 105.33C1411.23 98.37 1409.93 92.5 1407.32 87.72C1404.71 82.94 1400.94 79.03 1396.02 75.98C1391.23 72.8 1385.44 70.26 1378.63 68.38C1371.96 66.35 1364.5 64.75 1356.24 63.59C1347.4 62.29 1340.01 60.99 1334.07 59.68C1328.13 58.38 1323.42 57 1319.94 55.55C1316.46 54.1 1314 52.44 1312.55 50.55C1311.1 48.52 1310.38 46.21 1310.38 43.6C1310.38 36.93 1313.35 32.22 1319.29 29.47C1325.38 26.72 1333.05 25.34 1342.33 25.34C1352.33 25.34 1360.59 27.22 1367.11 30.99C1373.77 34.76 1377.4 40.92 1377.98 49.47L1406.23 49.47C1406.52 34.4 1401.16 22.59 1390.15 14.04C1379.28 5.34 1363.7 1 1343.42 1C1329.94 1 1318.56 2.73 1309.29 6.21C1300.02 9.69 1292.99 14.54 1288.21 20.77C1283.56 27.01 1281.25 34.25 1281.25 42.51C1281.25 49.18 1282.77 54.97 1285.81 59.9C1289 64.68 1293.28 68.74 1298.64 72.07Q1306.9 77.07 1317.55 80.33C1324.65 82.36 1332.19 83.95 1340.16 85.11C1350.3 86.56 1358.49 88.01 1364.72 89.46C1370.95 90.76 1375.51 92.5 1378.41 94.68C1381.31 96.71 1382.76 99.68 1382.76 103.59Q1382.76 107.85 1381.05 111.26L1381.05 111.26Q1380.32 112.72 1379.28 114.02Q1375.8 118.37 1368.63 120.76C1363.85 122.35 1357.76 123.15 1350.37 123.15C1342.26 123.15 1334.94 122.06 1328.42 119.89C1321.9 117.57 1316.61 114.46 1312.55 110.54C1308.64 106.49 1306.39 102 1305.81 97.07ZM1519.39 147.28C1500.7 147.28 1484.69 144.38 1471.36 138.58Q1454.91 131.17 1444.78 118.65Q1442.72 116.12 1440.93 113.37C1433.97 102.5 1430.49 89.46 1430.49 74.25C1430.49 58.88 1433.97 45.77 1440.93 34.9Q1442.95 31.81 1445.3 28.99Q1455.33 16.95 1471.36 9.91C1484.69 3.97 1500.7 1 1519.39 1C1538.23 1 1554.24 3.97 1567.43 9.91C1580.62 15.7 1590.69 24.04 1597.64 34.9C1604.74 45.77 1608.29 58.88 1608.29 74.25C1608.29 89.46 1604.74 102.5 1597.64 113.37C1590.69 124.24 1580.62 132.64 1567.43 138.58C1554.24 144.38 1538.23 147.28 1519.39 147.28ZM1019.6 120.33L1019.6 3.82L990.69 3.82L990.69 144.45L1113.06 144.45L1113.06 120.33L1019.6 120.33ZM1768.95 106.77L1768.95 3.82L1797.85 3.82L1797.85 144.45L1768.95 144.45L1664.4 42.3L1664.4 144.45L1635.49 144.45L1635.49 3.82L1664.4 3.82L1768.95 106.77ZM874.6 122.28C886.19 122.28 896.33 120.54 905.03 117.07C913.87 113.59 920.75 108.3 925.68 101.2C930.75 94.1 933.28 85.11 933.28 74.25C933.28 63.38 930.75 54.39 925.68 47.29C920.75 40.19 913.87 34.9 905.03 31.43C896.33 27.8 886.19 25.99 874.6 25.99C863.15 25.99 852.93 27.8 843.95 31.43C834.97 34.9 827.94 40.19 822.87 47.29C817.79 54.39 815.26 63.38 815.26 74.25C815.26 85.11 817.79 94.1 822.87 101.2C827.94 108.3 834.97 113.59 843.95 117.07C852.93 120.54 863.15 122.28 874.6 122.28ZM1519.39 122.28C1530.99 122.28 1541.13 120.54 1549.82 117.07C1558.66 113.59 1565.55 108.3 1570.47 101.2Q1578.08 90.55 1578.08 74.25Q1578.08 57.94 1570.47 47.29C1565.55 40.19 1558.66 34.9 1549.82 31.43C1541.13 27.8 1530.99 25.99 1519.39 25.99C1507.95 25.99 1497.73 27.8 1488.75 31.43C1479.76 34.9 1472.73 40.19 1467.66 47.29C1462.59 54.39 1460.05 63.38 1460.05 74.25C1460.05 85.11 1462.59 94.1 1467.66 101.2C1472.73 108.3 1479.76 113.59 1488.75 117.07C1497.73 120.54 1507.95 122.28 1519.39 122.28Z" fill="#FFFFFF" fill-opacity="1.000000" fill-rule="evenodd"/>
</svg>
